<svg width="295" height="141" viewBox="0 0 295 141" fill="none" xmlns="http://www.w3.org/2000/svg">
<g clip-path="url(#clip0_1309_20436)">
<rect width="295" height="141" rx="8" fill="#F2EFED"/>
<ellipse cx="32.3032" cy="32.1911" rx="32.3032" ry="32.1911" transform="matrix(-1 0 0 1 89.6055 56.8975)" fill="url(#paint0_linear_1309_20436)"/>
<ellipse cx="32.3032" cy="32.1911" rx="32.3032" ry="32.1911" transform="matrix(-1 0 0 1 89.6055 56.8975)" fill="url(#paint1_radial_1309_20436)" fill-opacity="0.5"/>
<g opacity="0.21" filter="url(#filter0_f_1309_20436)">
<ellipse cx="57.4786" cy="120.176" rx="27.4395" ry="1.98837" fill="black"/>
</g>
<g opacity="0.1" filter="url(#filter1_f_1309_20436)">
<ellipse cx="134.479" cy="120.177" rx="27.4395" ry="1.98837" fill="black"/>
</g>
<g opacity="0.1" filter="url(#filter2_f_1309_20436)">
<ellipse cx="211.479" cy="120.177" rx="27.4395" ry="1.98837" fill="black"/>
</g>
<g opacity="0.1" filter="url(#filter3_f_1309_20436)">
<ellipse cx="288.479" cy="120.177" rx="27.4395" ry="1.98837" fill="black"/>
</g>
<ellipse cx="32.3032" cy="32.1911" rx="32.3032" ry="32.1911" transform="matrix(0.642788 0.766044 0.766044 -0.642788 88.875 85.0381)" fill="url(#paint2_linear_1309_20436)"/>
<ellipse cx="32.3032" cy="32.1911" rx="32.3032" ry="32.1911" transform="matrix(0.642788 0.766044 0.766044 -0.642788 88.875 85.0381)" fill="url(#paint3_radial_1309_20436)" fill-opacity="0.3"/>
<ellipse cx="32.3032" cy="32.1911" rx="32.3032" ry="32.1911" transform="matrix(0.642788 0.766044 0.766044 -0.642788 165.875 85.0381)" fill="url(#paint4_linear_1309_20436)"/>
<ellipse cx="32.3032" cy="32.1911" rx="32.3032" ry="32.1911" transform="matrix(0.642788 0.766044 0.766044 -0.642788 165.875 85.0381)" fill="url(#paint5_radial_1309_20436)" fill-opacity="0.3"/>
<ellipse cx="32.3032" cy="32.1911" rx="32.3032" ry="32.1911" transform="matrix(0.642788 0.766044 0.766044 -0.642788 242.875 85.0381)" fill="url(#paint6_linear_1309_20436)"/>
<ellipse cx="32.3032" cy="32.1911" rx="32.3032" ry="32.1911" transform="matrix(0.642788 0.766044 0.766044 -0.642788 242.875 85.0381)" fill="url(#paint7_radial_1309_20436)" fill-opacity="0.3"/>
</g>
<defs>
<filter id="filter0_f_1309_20436" x="24.2065" y="112.355" width="66.544" height="15.6417" filterUnits="userSpaceOnUse" color-interpolation-filters="sRGB">
<feFlood flood-opacity="0" result="BackgroundImageFix"/>
<feBlend mode="normal" in="SourceGraphic" in2="BackgroundImageFix" result="shape"/>
<feGaussianBlur stdDeviation="2.91628" result="effect1_foregroundBlur_1309_20436"/>
</filter>
<filter id="filter1_f_1309_20436" x="101.207" y="112.356" width="66.544" height="15.6417" filterUnits="userSpaceOnUse" color-interpolation-filters="sRGB">
<feFlood flood-opacity="0" result="BackgroundImageFix"/>
<feBlend mode="normal" in="SourceGraphic" in2="BackgroundImageFix" result="shape"/>
<feGaussianBlur stdDeviation="2.91628" result="effect1_foregroundBlur_1309_20436"/>
</filter>
<filter id="filter2_f_1309_20436" x="178.207" y="112.356" width="66.544" height="15.6417" filterUnits="userSpaceOnUse" color-interpolation-filters="sRGB">
<feFlood flood-opacity="0" result="BackgroundImageFix"/>
<feBlend mode="normal" in="SourceGraphic" in2="BackgroundImageFix" result="shape"/>
<feGaussianBlur stdDeviation="2.91628" result="effect1_foregroundBlur_1309_20436"/>
</filter>
<filter id="filter3_f_1309_20436" x="255.207" y="112.356" width="66.544" height="15.6417" filterUnits="userSpaceOnUse" color-interpolation-filters="sRGB">
<feFlood flood-opacity="0" result="BackgroundImageFix"/>
<feBlend mode="normal" in="SourceGraphic" in2="BackgroundImageFix" result="shape"/>
<feGaussianBlur stdDeviation="2.91628" result="effect1_foregroundBlur_1309_20436"/>
</filter>
<linearGradient id="paint0_linear_1309_20436" x1="32.3032" y1="0" x2="32.3032" y2="64.3822" gradientUnits="userSpaceOnUse">
<stop stop-color="#FF4D00"/>
<stop offset="1" stop-color="#FF4D00"/>
</linearGradient>
<radialGradient id="paint1_radial_1309_20436" cx="0" cy="0" r="1" gradientUnits="userSpaceOnUse" gradientTransform="translate(46.2149 19.0327) rotate(122.02) scale(38.2445 38.303)">
<stop stop-color="white"/>
<stop offset="1" stop-color="white" stop-opacity="0"/>
</radialGradient>
<linearGradient id="paint2_linear_1309_20436" x1="32.3032" y1="0" x2="32.3032" y2="64.3822" gradientUnits="userSpaceOnUse">
<stop stop-color="white"/>
<stop offset="1" stop-color="white"/>
</linearGradient>
<radialGradient id="paint3_radial_1309_20436" cx="0" cy="0" r="1" gradientUnits="userSpaceOnUse" gradientTransform="translate(46.2149 19.0327) rotate(122.02) scale(38.2445 38.303)">
<stop stop-color="#757575"/>
<stop offset="1" stop-color="#A3A3A3" stop-opacity="0"/>
</radialGradient>
<linearGradient id="paint4_linear_1309_20436" x1="32.3032" y1="0" x2="32.3032" y2="64.3822" gradientUnits="userSpaceOnUse">
<stop stop-color="white"/>
<stop offset="1" stop-color="white"/>
</linearGradient>
<radialGradient id="paint5_radial_1309_20436" cx="0" cy="0" r="1" gradientUnits="userSpaceOnUse" gradientTransform="translate(46.2149 19.0327) rotate(122.02) scale(38.2445 38.303)">
<stop stop-color="#757575"/>
<stop offset="1" stop-color="#A3A3A3" stop-opacity="0"/>
</radialGradient>
<linearGradient id="paint6_linear_1309_20436" x1="32.3032" y1="0" x2="32.3032" y2="64.3822" gradientUnits="userSpaceOnUse">
<stop stop-color="white"/>
<stop offset="1" stop-color="white"/>
</linearGradient>
<radialGradient id="paint7_radial_1309_20436" cx="0" cy="0" r="1" gradientUnits="userSpaceOnUse" gradientTransform="translate(46.2149 19.0327) rotate(122.02) scale(38.2445 38.303)">
<stop stop-color="#757575"/>
<stop offset="1" stop-color="#A3A3A3" stop-opacity="0"/>
</radialGradient>
<clipPath id="clip0_1309_20436">
<rect width="295" height="141" rx="8" fill="white"/>
</clipPath>
</defs>
</svg>
