<svg width="440" height="476" viewBox="0 0 440 476" fill="none" xmlns="http://www.w3.org/2000/svg">
<g filter="url(#filter0_d_1649_31620)">
<rect x="64" y="19" width="312" height="348" rx="8" fill="white" shape-rendering="crispEdges"/>
<path d="M81.14 37.88V47H84.248C86.972 47 88.772 45.404 88.772 42.44C88.772 39.476 86.972 37.88 84.248 37.88H81.14ZM82.352 45.92V38.96H84.284C86.324 38.96 87.512 40.208 87.512 42.44C87.512 44.684 86.324 45.92 84.284 45.92H82.352ZM93.0467 47.132C94.9547 47.132 96.1667 45.776 96.1667 43.784C96.1667 41.792 94.9547 40.436 93.0467 40.436C91.1387 40.436 89.9147 41.792 89.9147 43.784C89.9147 45.776 91.1387 47.132 93.0467 47.132ZM93.0467 46.268C91.8227 46.268 91.1147 45.296 91.1147 43.784C91.1147 42.272 91.8227 41.3 93.0467 41.3C94.2707 41.3 94.9667 42.272 94.9667 43.784C94.9667 45.296 94.2707 46.268 93.0467 46.268ZM104.787 40.436C103.635 40.436 103.011 41.264 102.747 42.044C102.519 41.216 101.835 40.436 100.731 40.436C99.6752 40.436 99.0992 41.108 98.8112 41.876V40.568H97.6352V47H98.8112V43.196C98.8112 41.876 99.3152 41.3 100.251 41.3C101.187 41.3 101.691 41.876 101.691 43.172V43.196V47H102.867V43.196C102.867 41.876 103.371 41.3 104.307 41.3C105.243 41.3 105.747 41.876 105.747 43.172V43.196V47H106.923V43.016V42.992C106.923 41.504 106.191 40.436 104.787 40.436ZM111.253 40.436C109.741 40.436 108.709 41.252 108.565 42.464H109.765C109.849 41.852 110.353 41.3 111.253 41.3C112.273 41.3 112.741 42.008 112.741 42.848V42.872V42.98L111.013 43.16C109.861 43.28 108.361 43.568 108.361 45.068C108.361 46.256 109.321 47.132 110.521 47.132C111.769 47.132 112.297 46.58 112.741 45.68V47H113.917V42.884V42.86C113.917 41.66 113.209 40.436 111.253 40.436ZM110.953 46.352C110.209 46.352 109.561 45.896 109.561 45.068C109.561 44.132 110.569 44.012 111.457 43.916L112.741 43.784V44.264C112.741 45.416 112.141 46.352 110.953 46.352ZM116.941 39.464V37.88H115.669V39.464H116.941ZM116.893 47V40.568H115.717V47H116.893ZM121.956 40.436C120.852 40.436 120.228 41.12 119.94 41.876V40.568H118.764V47H119.94V43.196C119.94 41.876 120.54 41.3 121.476 41.3C122.412 41.3 123.012 41.864 123.012 43.172V43.196V47H124.188V43.016V42.992C124.188 41.552 123.408 40.436 121.956 40.436Z" fill="#666666"/>
<path d="M82.5682 61.75V67H81.2273V58.2727H82.5227V59.6364H82.6364C82.8409 59.1932 83.1515 58.8371 83.5682 58.5682C83.9848 58.2955 84.5227 58.1591 85.1818 58.1591C85.7727 58.1591 86.2898 58.2803 86.733 58.5227C87.1761 58.7614 87.5208 59.125 87.767 59.6136C88.0133 60.0985 88.1364 60.7121 88.1364 61.4545V67H86.7955V61.5455C86.7955 60.8598 86.6174 60.3258 86.2614 59.9432C85.9053 59.5568 85.4167 59.3636 84.7955 59.3636C84.3674 59.3636 83.9848 59.4564 83.6477 59.642C83.3144 59.8277 83.0511 60.0985 82.858 60.4545C82.6648 60.8106 82.5682 61.2424 82.5682 61.75ZM92.9948 67.2045C92.4418 67.2045 91.9399 67.1004 91.4891 66.892C91.0384 66.6799 90.6804 66.375 90.4153 65.9773C90.1501 65.5758 90.0176 65.0909 90.0176 64.5227C90.0176 64.0227 90.116 63.6174 90.313 63.3068C90.51 62.9924 90.7732 62.7462 91.1028 62.5682C91.4323 62.3902 91.796 62.2576 92.1937 62.1705C92.5952 62.0795 92.9986 62.0076 93.4039 61.9545C93.9342 61.8864 94.3641 61.8352 94.6937 61.8011C95.027 61.7633 95.2695 61.7008 95.421 61.6136C95.5763 61.5265 95.6539 61.375 95.6539 61.1591V61.1136C95.6539 60.553 95.5005 60.1174 95.1937 59.8068C94.8907 59.4962 94.4304 59.3409 93.813 59.3409C93.1729 59.3409 92.671 59.4811 92.3073 59.7614C91.9437 60.0417 91.688 60.3409 91.5403 60.6591L90.2676 60.2045C90.4948 59.6742 90.7979 59.2614 91.1766 58.9659C91.5592 58.6667 91.9759 58.4583 92.4266 58.3409C92.8812 58.2197 93.3282 58.1591 93.7676 58.1591C94.0479 58.1591 94.3698 58.1932 94.7335 58.2614C95.1009 58.3258 95.4551 58.4602 95.796 58.6648C96.1407 58.8693 96.4266 59.178 96.6539 59.5909C96.8812 60.0038 96.9948 60.5568 96.9948 61.25V67H95.6539V65.8182H95.5857C95.4948 66.0076 95.3433 66.2102 95.1312 66.4261C94.9191 66.642 94.6369 66.8258 94.2846 66.9773C93.9323 67.1288 93.5024 67.2045 92.9948 67.2045ZM93.1994 66C93.7297 66 94.1766 65.8958 94.5403 65.6875C94.9077 65.4792 95.1842 65.2102 95.3698 64.8807C95.5592 64.5511 95.6539 64.2045 95.6539 63.8409V62.6136C95.5971 62.6818 95.4721 62.7443 95.2789 62.8011C95.0895 62.8542 94.8698 62.9015 94.6198 62.9432C94.3736 62.9811 94.1331 63.0152 93.8982 63.0455C93.6672 63.072 93.4797 63.0947 93.3357 63.1136C92.9873 63.1591 92.6615 63.233 92.3585 63.3352C92.0592 63.4337 91.8168 63.5833 91.6312 63.7841C91.4494 63.9811 91.3585 64.25 91.3585 64.5909C91.3585 65.0568 91.5308 65.4091 91.8755 65.6477C92.224 65.8826 92.6653 66 93.1994 66ZM99.2823 67V58.2727H100.578V59.6364H100.691C100.873 59.1705 101.167 58.8087 101.572 58.5511C101.977 58.2898 102.464 58.1591 103.032 58.1591C103.608 58.1591 104.087 58.2898 104.47 58.5511C104.856 58.8087 105.157 59.1705 105.373 59.6364H105.464C105.688 59.1856 106.023 58.8277 106.47 58.5625C106.917 58.2936 107.453 58.1591 108.078 58.1591C108.858 58.1591 109.496 58.4034 109.993 58.892C110.489 59.3769 110.737 60.1326 110.737 61.1591V67H109.396V61.1591C109.396 60.5152 109.22 60.0549 108.868 59.7784C108.515 59.5019 108.1 59.3636 107.623 59.3636C107.01 59.3636 106.534 59.5492 106.197 59.9205C105.86 60.2879 105.691 60.7538 105.691 61.3182V67H104.328V61.0227C104.328 60.5265 104.167 60.1269 103.845 59.8239C103.523 59.517 103.108 59.3636 102.6 59.3636C102.252 59.3636 101.926 59.4564 101.623 59.642C101.324 59.8277 101.082 60.0852 100.896 60.4148C100.714 60.7405 100.623 61.1174 100.623 61.5455V67H99.2823ZM116.688 67.1818C115.847 67.1818 115.121 66.9962 114.511 66.625C113.905 66.25 113.438 65.7273 113.108 65.0568C112.782 64.3826 112.619 63.5985 112.619 62.7045C112.619 61.8106 112.782 61.0227 113.108 60.3409C113.438 59.6553 113.896 59.1212 114.483 58.7386C115.074 58.3523 115.763 58.1591 116.551 58.1591C117.006 58.1591 117.455 58.2348 117.898 58.3864C118.341 58.5379 118.744 58.7841 119.108 59.125C119.472 59.4621 119.761 59.9091 119.977 60.4659C120.193 61.0227 120.301 61.7083 120.301 62.5227V63.0909H113.574V61.9318H118.938C118.938 61.4394 118.839 61 118.642 60.6136C118.449 60.2273 118.172 59.9223 117.813 59.6989C117.457 59.4754 117.036 59.3636 116.551 59.3636C116.017 59.3636 115.555 59.4962 115.165 59.7614C114.779 60.0227 114.481 60.3636 114.273 60.7841C114.065 61.2045 113.96 61.6553 113.96 62.1364V62.9091C113.96 63.5682 114.074 64.1269 114.301 64.5852C114.532 65.0398 114.852 65.3864 115.261 65.625C115.671 65.8598 116.146 65.9773 116.688 65.9773C117.04 65.9773 117.358 65.928 117.642 65.8295C117.93 65.7273 118.178 65.5758 118.386 65.375C118.595 65.1705 118.756 64.9167 118.869 64.6136L120.165 64.9773C120.029 65.4167 119.799 65.803 119.477 66.1364C119.155 66.4659 118.758 66.7235 118.284 66.9091C117.811 67.0909 117.279 67.1818 116.688 67.1818ZM123.158 67.0909C122.878 67.0909 122.637 66.9905 122.437 66.7898C122.236 66.589 122.136 66.3485 122.136 66.0682C122.136 65.7879 122.236 65.5473 122.437 65.3466C122.637 65.1458 122.878 65.0455 123.158 65.0455C123.439 65.0455 123.679 65.1458 123.88 65.3466C124.081 65.5473 124.181 65.7879 124.181 66.0682C124.181 66.2538 124.134 66.4242 124.039 66.5795C123.948 66.7348 123.825 66.8598 123.67 66.9545C123.518 67.0455 123.348 67.0909 123.158 67.0909ZM128.995 67.2045C128.442 67.2045 127.941 67.1004 127.49 66.892C127.039 66.6799 126.681 66.375 126.416 65.9773C126.151 65.5758 126.018 65.0909 126.018 64.5227C126.018 64.0227 126.117 63.6174 126.314 63.3068C126.511 62.9924 126.774 62.7462 127.103 62.5682C127.433 62.3902 127.797 62.2576 128.194 62.1705C128.596 62.0795 128.999 62.0076 129.405 61.9545C129.935 61.8864 130.365 61.8352 130.694 61.8011C131.028 61.7633 131.27 61.7008 131.422 61.6136C131.577 61.5265 131.655 61.375 131.655 61.1591V61.1136C131.655 60.553 131.501 60.1174 131.194 59.8068C130.891 59.4962 130.431 59.3409 129.814 59.3409C129.173 59.3409 128.672 59.4811 128.308 59.7614C127.944 60.0417 127.689 60.3409 127.541 60.6591L126.268 60.2045C126.495 59.6742 126.798 59.2614 127.177 58.9659C127.56 58.6667 127.977 58.4583 128.427 58.3409C128.882 58.2197 129.329 58.1591 129.768 58.1591C130.048 58.1591 130.37 58.1932 130.734 58.2614C131.102 58.3258 131.456 58.4602 131.797 58.6648C132.141 58.8693 132.427 59.178 132.655 59.5909C132.882 60.0038 132.995 60.5568 132.995 61.25V67H131.655V65.8182H131.586C131.495 66.0076 131.344 66.2102 131.132 66.4261C130.92 66.642 130.638 66.8258 130.285 66.9773C129.933 67.1288 129.503 67.2045 128.995 67.2045ZM129.2 66C129.73 66 130.177 65.8958 130.541 65.6875C130.908 65.4792 131.185 65.2102 131.37 64.8807C131.56 64.5511 131.655 64.2045 131.655 63.8409V62.6136C131.598 62.6818 131.473 62.7443 131.28 62.8011C131.09 62.8542 130.87 62.9015 130.62 62.9432C130.374 62.9811 130.134 63.0152 129.899 63.0455C129.668 63.072 129.48 63.0947 129.336 63.1136C128.988 63.1591 128.662 63.233 128.359 63.3352C128.06 63.4337 127.817 63.5833 127.632 63.7841C127.45 63.9811 127.359 64.25 127.359 64.5909C127.359 65.0568 127.531 65.4091 127.876 65.6477C128.225 65.8826 128.666 66 129.2 66ZM135.283 67V58.2727H136.578V59.5909H136.669C136.828 59.1591 137.116 58.8087 137.533 58.5398C137.95 58.2708 138.419 58.1364 138.942 58.1364C139.04 58.1364 139.164 58.1383 139.311 58.142C139.459 58.1458 139.571 58.1515 139.647 58.1591V59.5227C139.601 59.5114 139.497 59.4943 139.334 59.4716C139.175 59.4451 139.006 59.4318 138.828 59.4318C138.404 59.4318 138.025 59.5208 137.692 59.6989C137.362 59.8731 137.101 60.1155 136.908 60.4261C136.719 60.733 136.624 61.0833 136.624 61.4773V67H135.283ZM144.356 67.1818C143.538 67.1818 142.833 66.9886 142.242 66.6023C141.651 66.2159 141.197 65.6837 140.879 65.0057C140.56 64.3277 140.401 63.553 140.401 62.6818C140.401 61.7955 140.564 61.0133 140.89 60.3352C141.219 59.6534 141.678 59.1212 142.265 58.7386C142.856 58.3523 143.545 58.1591 144.333 58.1591C144.947 58.1591 145.5 58.2727 145.992 58.5C146.485 58.7273 146.888 59.0455 147.202 59.4545C147.517 59.8636 147.712 60.3409 147.788 60.8864H146.447C146.344 60.4886 146.117 60.1364 145.765 59.8295C145.416 59.5189 144.947 59.3636 144.356 59.3636C143.833 59.3636 143.375 59.5 142.981 59.7727C142.591 60.0417 142.286 60.4223 142.066 60.9148C141.85 61.4034 141.742 61.9773 141.742 62.6364C141.742 63.3106 141.848 63.8977 142.06 64.3977C142.276 64.8977 142.579 65.286 142.969 65.5625C143.363 65.839 143.826 65.9773 144.356 65.9773C144.704 65.9773 145.021 65.9167 145.305 65.7955C145.589 65.6742 145.829 65.5 146.026 65.2727C146.223 65.0455 146.363 64.7727 146.447 64.4545H147.788C147.712 64.9697 147.524 65.4337 147.225 65.8466C146.93 66.2557 146.538 66.5814 146.049 66.8239C145.564 67.0625 145 67.1818 144.356 67.1818ZM150.929 61.75V67H149.588V55.3636H150.929V59.6364H151.042C151.247 59.1856 151.554 58.8277 151.963 58.5625C152.376 58.2936 152.925 58.1591 153.611 58.1591C154.205 58.1591 154.726 58.2784 155.173 58.517C155.62 58.7519 155.967 59.1136 156.213 59.6023C156.463 60.0871 156.588 60.7045 156.588 61.4545V67H155.247V61.5455C155.247 60.8523 155.067 60.3163 154.707 59.9375C154.351 59.5549 153.857 59.3636 153.224 59.3636C152.785 59.3636 152.391 59.4564 152.042 59.642C151.698 59.8277 151.425 60.0985 151.224 60.4545C151.027 60.8106 150.929 61.2424 150.929 61.75Z" fill="black"/>
<mask id="mask0_1649_31620" style="mask-type:alpha" maskUnits="userSpaceOnUse" x="131" y="103" width="178" height="171">
<path d="M229.404 270C223.796 274.074 216.203 274.074 210.595 270L138.103 217.331C132.495 213.257 130.148 206.035 132.29 199.443L159.98 114.223C162.122 107.63 168.265 103.167 175.197 103.167L264.802 103.167C271.734 103.167 277.877 107.63 280.019 114.223L307.709 199.443C309.851 206.035 307.504 213.257 301.897 217.331L229.404 270Z" fill="#D9D9D9"/>
</mask>
<g mask="url(#mask0_1649_31620)">
<path d="M220 276.833L128.698 210.498L163.572 103.167L276.427 103.167L311.301 210.498L220 276.833Z" fill="url(#paint0_linear_1649_31620)"/>
<path d="M220 276.833L128.698 210.498L163.572 103.167L276.427 103.167L311.301 210.498L220 276.833Z" fill="url(#paint1_radial_1649_31620)" fill-opacity="0.5"/>
<path d="M220 171.941V278L302.66 219.201C311.196 213.129 314.807 202.223 311.583 192.256L285.765 112.456C284.713 109.204 281.684 107 278.265 107C276.175 107 274.169 107.831 272.691 109.309L227.029 154.971C222.529 159.471 220 165.576 220 171.941Z" fill="#FFA077"/>
</g>
<path d="M82.352 326.836H86.996V325.756H82.352V322.96H87.08V321.88H81.14V331H87.188V329.92H82.352V326.836ZM91.871 327.544L94.151 324.568H92.879L91.175 326.8L89.471 324.568H88.199L90.479 327.544L87.947 331H89.219L91.175 328.324L93.131 331H94.403L91.871 327.544ZM98.8527 324.436C97.6527 324.436 96.8847 325.264 96.5847 326.128V324.568H95.4087V333.352H96.5847V329.596C96.9807 330.52 97.8927 331.132 98.8527 331.132C100.413 331.132 101.589 329.764 101.589 327.784C101.589 325.804 100.401 324.436 98.8527 324.436ZM98.4687 330.268C97.2447 330.268 96.5367 329.296 96.5367 327.784C96.5367 326.272 97.2447 325.3 98.4687 325.3C99.6927 325.3 100.389 326.272 100.389 327.784C100.389 329.296 99.6927 330.268 98.4687 330.268ZM104.285 323.464V321.88H103.013V323.464H104.285ZM104.237 331V324.568H103.061V331H104.237ZM107.284 324.568H106.108V331H107.284V327.124C107.284 325.972 107.86 325.6 109.036 325.6H109.396V324.436C108.208 324.436 107.572 325.048 107.284 325.948V324.568ZM112.976 324.436C111.464 324.436 110.432 325.252 110.288 326.464H111.488C111.572 325.852 112.076 325.3 112.976 325.3C113.996 325.3 114.464 326.008 114.464 326.848V326.872V326.98L112.736 327.16C111.584 327.28 110.084 327.568 110.084 329.068C110.084 330.256 111.044 331.132 112.244 331.132C113.492 331.132 114.02 330.58 114.464 329.68V331H115.64V326.884V326.86C115.64 325.66 114.932 324.436 112.976 324.436ZM112.676 330.352C111.932 330.352 111.284 329.896 111.284 329.068C111.284 328.132 112.292 328.012 113.18 327.916L114.464 327.784V328.264C114.464 329.416 113.864 330.352 112.676 330.352ZM120.034 330.112C119.446 330.112 119.098 329.92 119.098 329.236V329.212V325.456H120.73V324.568H119.098V323.044H117.922V324.568H116.566V325.456H117.922V329.212V329.236C117.922 330.46 118.798 331 119.914 331H120.754V330.112H120.034ZM123.223 323.464V321.88H121.951V323.464H123.223ZM123.175 331V324.568H121.999V331H123.175ZM127.769 331.132C129.677 331.132 130.889 329.776 130.889 327.784C130.889 325.792 129.677 324.436 127.769 324.436C125.861 324.436 124.637 325.792 124.637 327.784C124.637 329.776 125.861 331.132 127.769 331.132ZM127.769 330.268C126.545 330.268 125.837 329.296 125.837 327.784C125.837 326.272 126.545 325.3 127.769 325.3C128.993 325.3 129.689 326.272 129.689 327.784C129.689 329.296 128.993 330.268 127.769 330.268ZM135.55 324.436C134.446 324.436 133.822 325.12 133.534 325.876V324.568H132.358V331H133.534V327.196C133.534 325.876 134.134 325.3 135.07 325.3C136.006 325.3 136.606 325.864 136.606 327.172V327.196V331H137.782V327.016V326.992C137.782 325.552 137.002 324.436 135.55 324.436ZM147.185 326.128C146.885 325.264 146.117 324.436 144.917 324.436C143.369 324.436 142.181 325.804 142.181 327.784C142.181 329.764 143.357 331.132 144.917 331.132C145.877 331.132 146.789 330.52 147.185 329.596V331H148.361V321.88H147.185V326.128ZM145.301 330.268C144.077 330.268 143.381 329.296 143.381 327.784C143.381 326.272 144.077 325.3 145.301 325.3C146.525 325.3 147.233 326.272 147.233 327.784C147.233 329.296 146.525 330.268 145.301 330.268ZM152.761 324.436C151.249 324.436 150.217 325.252 150.073 326.464H151.273C151.357 325.852 151.861 325.3 152.761 325.3C153.781 325.3 154.249 326.008 154.249 326.848V326.872V326.98L152.521 327.16C151.369 327.28 149.869 327.568 149.869 329.068C149.869 330.256 150.829 331.132 152.029 331.132C153.277 331.132 153.805 330.58 154.249 329.68V331H155.425V326.884V326.86C155.425 325.66 154.717 324.436 152.761 324.436ZM152.461 330.352C151.717 330.352 151.069 329.896 151.069 329.068C151.069 328.132 152.077 328.012 152.965 327.916L154.249 327.784V328.264C154.249 329.416 153.649 330.352 152.461 330.352ZM159.819 330.112C159.231 330.112 158.883 329.92 158.883 329.236V329.212V325.456H160.515V324.568H158.883V323.044H157.707V324.568H156.351V325.456H157.707V329.212V329.236C157.707 330.46 158.583 331 159.699 331H160.539V330.112H159.819ZM167.366 327.688C167.366 325.708 166.142 324.436 164.342 324.436C162.434 324.436 161.294 325.828 161.294 327.784C161.294 329.716 162.41 331.132 164.354 331.132C165.806 331.132 166.85 330.484 167.222 329.116H166.022C165.782 329.836 165.29 330.268 164.354 330.268C163.286 330.268 162.578 329.524 162.482 328.132H167.342C167.354 327.976 167.366 327.808 167.366 327.688ZM164.342 325.3C165.398 325.3 166.094 326.092 166.166 327.244H162.494C162.638 325.96 163.322 325.3 164.342 325.3Z" fill="#666666"/>
<path d="M87.764 348.952L83.648 339.88H81.14V349H82.352V339.928L86.468 349H88.976V339.88H87.764V348.952ZM93.6561 349.132C95.5641 349.132 96.7761 347.776 96.7761 345.784C96.7761 343.792 95.5641 342.436 93.6561 342.436C91.7481 342.436 90.5241 343.792 90.5241 345.784C90.5241 347.776 91.7481 349.132 93.6561 349.132ZM93.6561 348.268C92.4321 348.268 91.7241 347.296 91.7241 345.784C91.7241 344.272 92.4321 343.3 93.6561 343.3C94.8801 343.3 95.5761 344.272 95.5761 345.784C95.5761 347.296 94.8801 348.268 93.6561 348.268ZM100.694 348.94L98.5943 342.568H97.3943L99.5423 349H101.834L103.982 342.568H102.782L100.694 348.94ZM110.682 345.688C110.682 343.708 109.458 342.436 107.658 342.436C105.75 342.436 104.61 343.828 104.61 345.784C104.61 347.716 105.726 349.132 107.67 349.132C109.122 349.132 110.166 348.484 110.538 347.116H109.338C109.098 347.836 108.606 348.268 107.67 348.268C106.602 348.268 105.894 347.524 105.798 346.132H110.658C110.67 345.976 110.682 345.808 110.682 345.688ZM107.658 343.3C108.714 343.3 109.41 344.092 109.482 345.244H105.81C105.954 343.96 106.638 343.3 107.658 343.3ZM119.295 342.436C118.143 342.436 117.519 343.264 117.255 344.044C117.027 343.216 116.343 342.436 115.239 342.436C114.183 342.436 113.607 343.108 113.319 343.876V342.568H112.143V349H113.319V345.196C113.319 343.876 113.823 343.3 114.759 343.3C115.695 343.3 116.199 343.876 116.199 345.172V345.196V349H117.375V345.196C117.375 343.876 117.879 343.3 118.815 343.3C119.751 343.3 120.255 343.876 120.255 345.172V345.196V349H121.431V345.016V344.992C121.431 343.504 120.699 342.436 119.295 342.436ZM126.673 342.436C125.473 342.436 124.705 343.264 124.405 344.128V339.88H123.229V349H124.405V347.596C124.801 348.52 125.713 349.132 126.673 349.132C128.233 349.132 129.409 347.764 129.409 345.784C129.409 343.804 128.221 342.436 126.673 342.436ZM126.289 348.268C125.065 348.268 124.357 347.296 124.357 345.784C124.357 344.272 125.065 343.3 126.289 343.3C127.513 343.3 128.209 344.272 128.209 345.784C128.209 347.296 127.513 348.268 126.289 348.268ZM136.557 345.688C136.557 343.708 135.333 342.436 133.533 342.436C131.625 342.436 130.485 343.828 130.485 345.784C130.485 347.716 131.601 349.132 133.545 349.132C134.997 349.132 136.041 348.484 136.413 347.116H135.213C134.973 347.836 134.481 348.268 133.545 348.268C132.477 348.268 131.769 347.524 131.673 346.132H136.533C136.545 345.976 136.557 345.808 136.557 345.688ZM133.533 343.3C134.589 343.3 135.285 344.092 135.357 345.244H131.685C131.829 343.96 132.513 343.3 133.533 343.3ZM139.194 342.568H138.018V349H139.194V345.124C139.194 343.972 139.77 343.6 140.946 343.6H141.306V342.436C140.118 342.436 139.482 343.048 139.194 343.948V342.568ZM149.798 344.98C150.794 344.128 151.382 343.384 151.382 342.364C151.382 340.756 150.002 339.748 148.178 339.748C146.522 339.748 145.022 340.612 144.914 342.424H146.138C146.234 341.272 147.002 340.696 148.178 340.696C149.438 340.696 150.158 341.428 150.158 342.364C150.158 343.072 149.57 343.684 148.862 344.284L144.878 347.68V349H151.61V348.016H146.234L149.798 344.98ZM156.437 342.784C155.273 342.784 154.445 343.468 154.097 344.236L154.397 340.864H158.813V339.88H153.317L152.861 344.944L154.013 345.064C154.361 344.26 155.081 343.732 156.077 343.732C157.097 343.732 158.129 344.428 158.129 345.952C158.129 347.44 157.193 348.184 156.053 348.184C154.901 348.184 154.121 347.524 154.025 346.588H152.801C153.005 348.22 154.325 349.132 156.077 349.132C157.805 349.132 159.353 348.04 159.353 345.952C159.353 343.864 157.877 342.784 156.437 342.784ZM168.43 344.98C169.426 344.128 170.014 343.384 170.014 342.364C170.014 340.756 168.634 339.748 166.81 339.748C165.154 339.748 163.654 340.612 163.546 342.424H164.77C164.866 341.272 165.634 340.696 166.81 340.696C168.07 340.696 168.79 341.428 168.79 342.364C168.79 343.072 168.202 343.684 167.494 344.284L163.51 347.68V349H170.242V348.016H164.866L168.43 344.98ZM175.021 349.132C177.253 349.132 178.585 347.476 178.585 344.44C178.585 341.404 177.253 339.748 175.021 339.748C172.789 339.748 171.457 341.404 171.457 344.44C171.457 347.476 172.789 349.132 175.021 349.132ZM175.021 348.184C173.545 348.184 172.681 346.936 172.681 344.44C172.681 341.944 173.545 340.696 175.021 340.696C176.497 340.696 177.361 341.944 177.361 344.44C177.361 346.936 176.497 348.184 175.021 348.184ZM184.802 344.98C185.798 344.128 186.386 343.384 186.386 342.364C186.386 340.756 185.006 339.748 183.182 339.748C181.526 339.748 180.026 340.612 179.918 342.424H181.142C181.238 341.272 182.006 340.696 183.182 340.696C184.442 340.696 185.162 341.428 185.162 342.364C185.162 343.072 184.574 343.684 183.866 344.284L179.882 347.68V349H186.614V348.016H181.238L184.802 344.98ZM191.933 344.176C192.905 343.984 194.057 343.456 194.057 342.064C194.057 340.648 192.617 339.748 190.889 339.748C189.353 339.748 187.985 340.648 187.841 342.172H189.065C189.149 341.296 189.773 340.696 190.889 340.696C192.089 340.696 192.833 341.308 192.833 342.16C192.833 343.012 192.041 343.684 190.757 343.684H190.193V344.668H190.757C192.065 344.668 193.133 345.232 193.133 346.384C193.133 347.704 191.873 348.184 190.901 348.184C189.641 348.184 188.993 347.524 188.885 346.588H187.661C187.829 348.148 188.993 349.132 190.901 349.132C192.749 349.132 194.357 348.232 194.357 346.432C194.357 344.872 192.917 344.296 191.933 344.176ZM201.464 342.436C199.952 342.436 198.92 343.252 198.776 344.464H199.976C200.06 343.852 200.564 343.3 201.464 343.3C202.484 343.3 202.952 344.008 202.952 344.848V344.872V344.98L201.224 345.16C200.072 345.28 198.572 345.568 198.572 347.068C198.572 348.256 199.532 349.132 200.732 349.132C201.98 349.132 202.508 348.58 202.952 347.68V349H204.128V344.884V344.86C204.128 343.66 203.42 342.436 201.464 342.436ZM201.164 348.352C200.42 348.352 199.772 347.896 199.772 347.068C199.772 346.132 200.78 346.012 201.668 345.916L202.952 345.784V346.264C202.952 347.416 202.352 348.352 201.164 348.352ZM208.522 348.112C207.934 348.112 207.586 347.92 207.586 347.236V347.212V343.456H209.218V342.568H207.586V341.044H206.41V342.568H205.054V343.456H206.41V347.212V347.236C206.41 348.46 207.286 349 208.402 349H209.242V348.112H208.522ZM218.083 344.98C219.079 344.128 219.667 343.384 219.667 342.364C219.667 340.756 218.287 339.748 216.463 339.748C214.807 339.748 213.307 340.612 213.199 342.424H214.423C214.519 341.272 215.287 340.696 216.463 340.696C217.723 340.696 218.443 341.428 218.443 342.364C218.443 343.072 217.855 343.684 217.147 344.284L213.163 347.68V349H219.895V348.016H214.519L218.083 344.98ZM224.674 349.132C226.906 349.132 228.238 347.476 228.238 344.44C228.238 341.404 226.906 339.748 224.674 339.748C222.442 339.748 221.11 341.404 221.11 344.44C221.11 347.476 222.442 349.132 224.674 349.132ZM224.674 348.184C223.198 348.184 222.334 346.936 222.334 344.44C222.334 341.944 223.198 340.696 224.674 340.696C226.15 340.696 227.014 341.944 227.014 344.44C227.014 346.936 226.15 348.184 224.674 348.184ZM231.25 343.588V342.148H229.834V343.588H231.25ZM231.25 347.62V346.18H229.834V347.62H231.25ZM236.404 349.132C238.636 349.132 239.968 347.476 239.968 344.44C239.968 341.404 238.636 339.748 236.404 339.748C234.172 339.748 232.84 341.404 232.84 344.44C232.84 347.476 234.172 349.132 236.404 349.132ZM236.404 348.184C234.928 348.184 234.064 346.936 234.064 344.44C234.064 341.944 234.928 340.696 236.404 340.696C237.88 340.696 238.744 341.944 238.744 344.44C238.744 346.936 237.88 348.184 236.404 348.184ZM244.948 342.784C243.784 342.784 242.956 343.468 242.608 344.236L242.908 340.864H247.324V339.88H241.828L241.372 344.944L242.524 345.064C242.872 344.26 243.592 343.732 244.588 343.732C245.608 343.732 246.64 344.428 246.64 345.952C246.64 347.44 245.704 348.184 244.564 348.184C243.412 348.184 242.632 347.524 242.536 346.588H241.312C241.516 348.22 242.836 349.132 244.588 349.132C246.316 349.132 247.864 348.04 247.864 345.952C247.864 343.864 246.388 342.784 244.948 342.784ZM250.738 343.588V342.148H249.322V343.588H250.738ZM250.738 347.62V346.18H249.322V347.62H250.738ZM255.893 349.132C258.125 349.132 259.457 347.476 259.457 344.44C259.457 341.404 258.125 339.748 255.893 339.748C253.661 339.748 252.329 341.404 252.329 344.44C252.329 347.476 253.661 349.132 255.893 349.132ZM255.893 348.184C254.417 348.184 253.553 346.936 253.553 344.44C253.553 341.944 254.417 340.696 255.893 340.696C257.369 340.696 258.233 341.944 258.233 344.44C258.233 346.936 257.369 348.184 255.893 348.184ZM264.389 349.132C266.621 349.132 267.953 347.476 267.953 344.44C267.953 341.404 266.621 339.748 264.389 339.748C262.157 339.748 260.825 341.404 260.825 344.44C260.825 347.476 262.157 349.132 264.389 349.132ZM264.389 348.184C262.913 348.184 262.049 346.936 262.049 344.44C262.049 341.944 262.913 340.696 264.389 340.696C265.865 340.696 266.729 341.944 266.729 344.44C266.729 346.936 265.865 348.184 264.389 348.184Z" fill="black"/>
</g>
<defs>
<filter id="filter0_d_1649_31620" x="0" y="0" width="440" height="476" filterUnits="userSpaceOnUse" color-interpolation-filters="sRGB">
<feFlood flood-opacity="0" result="BackgroundImageFix"/>
<feColorMatrix in="SourceAlpha" type="matrix" values="0 0 0 0 0 0 0 0 0 0 0 0 0 0 0 0 0 0 127 0" result="hardAlpha"/>
<feOffset dy="45"/>
<feGaussianBlur stdDeviation="32"/>
<feComposite in2="hardAlpha" operator="out"/>
<feColorMatrix type="matrix" values="0 0 0 0 0 0 0 0 0 0 0 0 0 0 0 0 0 0 0.16 0"/>
<feBlend mode="normal" in2="BackgroundImageFix" result="effect1_dropShadow_1649_31620"/>
<feBlend mode="normal" in="SourceGraphic" in2="effect1_dropShadow_1649_31620" result="shape"/>
</filter>
<linearGradient id="paint0_linear_1649_31620" x1="220" y1="103.167" x2="220" y2="276.833" gradientUnits="userSpaceOnUse">
<stop stop-color="#FF4D00"/>
<stop offset="1" stop-color="#FF4D00"/>
</linearGradient>
<radialGradient id="paint1_radial_1649_31620" cx="0" cy="0" r="1" gradientUnits="userSpaceOnUse" gradientTransform="translate(175.5 117.5) rotate(70.8988) scale(135.987 138.884)">
<stop stop-color="white"/>
<stop offset="1" stop-color="white" stop-opacity="0"/>
</radialGradient>
</defs>
</svg>
