<svg width="387" height="298" viewBox="0 0 387 298" fill="none" xmlns="http://www.w3.org/2000/svg">
<g filter="url(#filter0_d_1649_31592)">
<rect x="42" y="30.3643" width="303.333" height="214.419" rx="6.14865" fill="white" shape-rendering="crispEdges"/>
<g clip-path="url(#clip0_1649_31592)">
<path d="M65.8261 50.8565C65.3577 51.1869 64.8391 51.4395 64.2903 51.6048C63.9957 51.2661 63.6042 51.026 63.1688 50.9171C62.7334 50.8081 62.275 50.8355 61.8556 50.9956C61.4362 51.1557 61.0762 51.4407 60.824 51.812C60.5719 52.1834 60.44 52.6233 60.446 53.0721V53.5612C59.5865 53.5835 58.7348 53.3928 57.9668 53.0063C57.1987 52.6197 56.5383 52.0492 56.0441 51.3456C56.0441 51.3456 54.0877 55.7475 58.4896 57.7038C57.4823 58.3876 56.2824 58.7304 55.0659 58.682C59.4678 61.1275 64.8479 58.682 64.8479 53.0574C64.8474 52.9212 64.8343 52.7853 64.8087 52.6515C65.3079 52.1592 65.6602 51.5377 65.8261 50.8565Z" stroke="black" stroke-width="1.15287" stroke-linecap="round" stroke-linejoin="round"/>
</g>
<path d="M73.3345 50.7322V51.8389H76.4458V60.0781H77.6878V51.8389H80.799V50.7322H73.3345ZM87.8532 60.0166L86.5743 53.4868H84.287L83.0081 60.0166L81.3971 53.4868H80.2289L81.8521 60.0781H84.1517L85.4307 53.5483L86.7096 60.0781H89.0092L90.6324 53.4868H89.4642L87.8532 60.0166ZM93.1121 52.3554V50.7322H91.8086V52.3554H93.1121ZM93.063 60.0781V53.4868H91.8578V60.0781H93.063ZM102.506 59.1681C101.904 59.1681 101.547 58.9714 101.547 58.2704V58.2458V54.3968H103.232V53.4868H101.547V51.925H100.342V53.4868H96.7756V51.925H95.5705V53.4868H94.1809V54.3968H95.5705V58.2458V58.2704C95.5705 59.5247 96.4682 60.0781 97.6118 60.0781H98.4726V59.1681H97.7348C97.1322 59.1681 96.7756 58.9714 96.7756 58.2704V58.2458V54.3968H100.342V58.2458V58.2704C100.342 59.5247 101.24 60.0781 102.383 60.0781H103.244V59.1681H102.506ZM110.248 56.6841C110.248 54.655 108.994 53.3515 107.149 53.3515C105.194 53.3515 104.026 54.778 104.026 56.7824C104.026 58.7623 105.169 60.2134 107.161 60.2134C108.649 60.2134 109.719 59.5493 110.1 58.1474H108.871C108.625 58.8853 108.121 59.328 107.161 59.328C106.067 59.328 105.341 58.5656 105.243 57.1391H110.223C110.236 56.9792 110.248 56.807 110.248 56.6841ZM107.149 54.2369C108.231 54.2369 108.944 55.0485 109.018 56.2291H105.255C105.403 54.9133 106.104 54.2369 107.149 54.2369ZM112.95 53.4868H111.745V60.0781H112.95V56.1061C112.95 54.9256 113.54 54.5443 114.745 54.5443H115.114V53.3515C113.897 53.3515 113.245 53.9787 112.95 54.901V53.4868Z" fill="black"/>
<line x1="54.2974" y1="79.4087" x2="333.036" y2="79.4087" stroke="black" stroke-opacity="0.1" stroke-width="0.768581"/>
<path d="M59.0441 106.226C61.6634 106.226 62.7087 104.775 62.7087 102.34V96.7449H61.4667V102.414C61.4667 104.295 60.6551 105.181 59.0441 105.181C57.4332 105.181 56.6093 104.308 56.6093 102.439V102.414V96.7449H55.3672V102.34V102.365C55.3672 104.787 56.4248 106.226 59.0441 106.226ZM66.9229 106.226C68.5462 106.226 69.6775 105.464 69.6775 104.197C69.6775 103.176 69.1119 102.561 67.7346 102.266L66.8123 102.07C65.9269 101.885 65.4965 101.701 65.4965 101.172C65.4965 100.582 66.1851 100.25 66.8983 100.25C67.5378 100.25 68.1527 100.569 68.3371 101.147H69.5669C69.2717 99.9545 68.1773 99.3642 66.8983 99.3642C65.4596 99.3642 64.3036 100.127 64.3036 101.295C64.3036 102.303 65.0906 102.82 66.2343 103.066L67.1566 103.262C68.1404 103.471 68.4847 103.754 68.4847 104.345C68.4847 104.947 67.9559 105.341 66.9229 105.341C66.2589 105.341 65.5456 105.095 65.3612 104.16H64.1315C64.3159 105.513 65.4596 106.226 66.9229 106.226ZM76.9732 102.697C76.9732 100.668 75.7189 99.3642 73.8743 99.3642C71.919 99.3642 70.7508 100.791 70.7508 102.795C70.7508 104.775 71.8944 106.226 73.8866 106.226C75.3745 106.226 76.4444 105.562 76.8256 104.16H75.5959C75.35 104.898 74.8458 105.341 73.8866 105.341C72.7921 105.341 72.0666 104.578 71.9682 103.152H76.9486C76.9609 102.992 76.9732 102.82 76.9732 102.697ZM73.8743 100.25C74.9564 100.25 75.6697 101.061 75.7435 102.242H71.9805C72.1281 100.926 72.829 100.25 73.8743 100.25ZM79.6752 99.4995H78.4701V106.091H79.6752V102.119C79.6752 100.938 80.2655 100.557 81.4706 100.557H81.8396V99.3642C80.6221 99.3642 79.9704 99.9914 79.6752 100.914V99.4995ZM86.3287 99.3642C85.1973 99.3642 84.5578 100.065 84.2627 100.84V99.4995H83.0576V106.091H84.2627V102.193C84.2627 100.84 84.8776 100.25 85.8368 100.25C86.796 100.25 87.4108 100.828 87.4108 102.168V102.193V106.091H88.616V102.008V101.984C88.616 100.508 87.8166 99.3642 86.3287 99.3642ZM93.0499 99.3642C91.5004 99.3642 90.4429 100.2 90.2953 101.442H91.525C91.6111 100.815 92.1276 100.25 93.0499 100.25C94.0952 100.25 94.5748 100.975 94.5748 101.836V101.861V101.971L92.804 102.156C91.6234 102.279 90.0862 102.574 90.0862 104.111C90.0862 105.328 91.07 106.226 92.2998 106.226C93.5787 106.226 94.1198 105.66 94.5748 104.738V106.091H95.7799V101.873V101.848C95.7799 100.619 95.0544 99.3642 93.0499 99.3642ZM92.7425 105.427C91.98 105.427 91.316 104.959 91.316 104.111C91.316 103.152 92.349 103.029 93.259 102.93L94.5748 102.795V103.287C94.5748 104.468 93.9599 105.427 92.7425 105.427ZM104.954 99.3642C103.773 99.3642 103.134 100.213 102.863 101.012C102.63 100.164 101.929 99.3642 100.797 99.3642C99.7151 99.3642 99.1249 100.053 98.8297 100.84V99.4995H97.6246V106.091H98.8297V102.193C98.8297 100.84 99.3462 100.25 100.305 100.25C101.265 100.25 101.781 100.84 101.781 102.168V102.193V106.091H102.986V102.193C102.986 100.84 103.503 100.25 104.462 100.25C105.421 100.25 105.938 100.84 105.938 102.168V102.193V106.091H107.143V102.008V101.984C107.143 100.459 106.393 99.3642 104.954 99.3642ZM114.802 102.697C114.802 100.668 113.547 99.3642 111.703 99.3642C109.748 99.3642 108.579 100.791 108.579 102.795C108.579 104.775 109.723 106.226 111.715 106.226C113.203 106.226 114.273 105.562 114.654 104.16H113.425C113.179 104.898 112.674 105.341 111.715 105.341C110.621 105.341 109.895 104.578 109.797 103.152H114.777C114.79 102.992 114.802 102.82 114.802 102.697ZM111.703 100.25C112.785 100.25 113.498 101.061 113.572 102.242H109.809C109.957 100.926 110.658 100.25 111.703 100.25Z" fill="#666666"/>
<g clip-path="url(#clip1_1649_31592)">
<rect x="54.2974" y="113.165" width="278.739" height="42.9747" rx="6.14865" fill="#F2EFED"/>
<path d="M74.7294 139.152L71.7919 130.975H69.5645L66.627 139.152H67.7891L68.6714 136.678H72.685L73.5673 139.152H74.7294ZM70.6836 131.018L72.3406 135.709H69.0158L70.6836 131.018ZM76.6532 133.385H75.5987V139.152H76.6532V135.677C76.6532 134.644 77.1697 134.31 78.2242 134.31H78.547V133.267C77.4817 133.267 76.9114 133.815 76.6532 134.622V133.385ZM81.9292 139.271C83.2419 139.271 84.2964 138.55 84.5977 137.226H83.5217C83.285 138.044 82.7685 138.496 81.9292 138.496C80.8316 138.496 80.1968 137.624 80.1968 136.269C80.1968 134.913 80.8316 134.041 81.9292 134.041C82.8008 134.041 83.2957 134.633 83.4571 135.343H84.5331C84.2857 134.127 83.3495 133.267 81.9292 133.267C80.2183 133.267 79.1208 134.482 79.1208 136.269C79.1208 138.055 80.2183 139.271 81.9292 139.271ZM88.6536 133.267C87.6637 133.267 87.1041 133.88 86.8459 134.558V130.975H85.7914V139.152H86.8459V135.741C86.8459 134.558 87.3839 134.041 88.2232 134.041C89.0625 134.041 89.6005 134.547 89.6005 135.72V135.741V139.152H90.655V135.58V135.558C90.655 134.267 89.9556 133.267 88.6536 133.267ZM98.333 139.099L97.214 133.385H95.2126L94.0935 139.099L92.6839 133.385H91.6617L93.0821 139.152H95.0942L96.2133 133.439L97.3323 139.152H99.3445L100.765 133.385H99.7426L98.333 139.099ZM104.055 133.267C102.699 133.267 101.774 133.998 101.645 135.085H102.721C102.796 134.536 103.248 134.041 104.055 134.041C104.969 134.041 105.389 134.676 105.389 135.429V135.451V135.548L103.84 135.709C102.807 135.817 101.462 136.075 101.462 137.42C101.462 138.485 102.322 139.271 103.399 139.271C104.518 139.271 104.991 138.776 105.389 137.969V139.152H106.444V135.462V135.44C106.444 134.364 105.809 133.267 104.055 133.267ZM103.786 138.571C103.119 138.571 102.538 138.162 102.538 137.42C102.538 136.581 103.442 136.473 104.238 136.387L105.389 136.269V136.699C105.389 137.732 104.851 138.571 103.786 138.571ZM110.244 138.421L108.275 133.385H107.188L109.189 138.517H110.212L109.286 141.261H110.384L113.031 133.385H111.933L110.244 138.421ZM119.557 134.45H115.275V130.975H114.188V139.152H115.275V135.419H119.557V139.152H120.644V130.975H119.557V134.45ZM129.167 137.797C129.694 137.086 129.995 136.15 129.995 135.063C129.995 132.556 128.403 130.856 126.1 130.856C123.797 130.856 122.205 132.556 122.205 135.063C122.205 137.571 123.797 139.271 126.1 139.271C127.025 139.271 127.832 138.991 128.478 138.507L129.253 139.152H130.791L129.167 137.797ZM126.1 138.356C124.454 138.356 123.335 137 123.335 135.063C123.335 133.127 124.454 131.771 126.1 131.771C127.746 131.771 128.865 133.127 128.865 135.063C128.865 135.86 128.672 136.559 128.338 137.108L127.445 136.355H125.906L127.682 137.84C127.251 138.173 126.713 138.356 126.1 138.356Z" fill="#666666"/>
</g>
<path d="M55.4656 173.091V182.437H56.7076V178.944H58.9089C61.1224 178.944 62.4628 177.899 62.4628 176.017C62.4628 174.136 61.1224 173.091 58.9089 173.091H55.4656ZM56.7076 177.837V174.197H58.9457C60.3845 174.197 61.1716 174.788 61.1716 176.017C61.1716 177.247 60.3845 177.837 58.9457 177.837H56.7076ZM64.9641 175.845H63.759V182.437H64.9641V178.464C64.9641 177.284 65.5544 176.903 66.7595 176.903H67.1284V175.71C65.911 175.71 65.2593 176.337 64.9641 177.259V175.845ZM70.9938 182.572C72.9491 182.572 74.1911 181.182 74.1911 179.141C74.1911 177.099 72.9491 175.71 70.9938 175.71C69.0386 175.71 67.7842 177.099 67.7842 179.141C67.7842 181.182 69.0386 182.572 70.9938 182.572ZM70.9938 181.686C69.7395 181.686 69.014 180.69 69.014 179.141C69.014 177.591 69.7395 176.595 70.9938 176.595C72.2482 176.595 72.9614 177.591 72.9614 179.141C72.9614 180.69 72.2482 181.686 70.9938 181.686ZM81.3688 175.845H77.3476V174.923C77.3476 174.197 77.7042 174.001 78.3068 174.001H79.0446V173.091H78.1838C77.0279 173.091 76.1425 173.656 76.1425 174.923V175.845H74.7775V176.755H76.1425V182.437H77.3476V176.755H80.1637V182.437H81.3688V175.845ZM80.1145 174.714H81.418V173.091H80.1145V174.714ZM84.4909 182.437V173.091H83.2857V182.437H84.4909ZM92.2247 179.042C92.2247 177.013 90.9704 175.71 89.1258 175.71C87.1705 175.71 86.0023 177.136 86.0023 179.141C86.0023 181.121 87.1459 182.572 89.1381 182.572C90.6261 182.572 91.6959 181.908 92.0772 180.506H90.8474C90.6015 181.244 90.0973 181.686 89.1381 181.686C88.0436 181.686 87.3181 180.924 87.2197 179.497H92.2001C92.2124 179.338 92.2247 179.165 92.2247 179.042ZM89.1258 176.595C90.208 176.595 90.9212 177.407 90.995 178.587H87.232C87.3796 177.272 88.0805 176.595 89.1258 176.595Z" fill="#666666"/>
<g clip-path="url(#clip2_1649_31592)">
<rect x="54.2974" y="189.511" width="278.739" height="42.9747" rx="6.14865" fill="#F2EFED"/>
<path d="M71.5874 211.097C71.3184 210.322 70.6298 209.612 69.5538 209.612C68.1657 209.612 67.1005 210.764 67.1005 212.539C67.1005 214.314 68.1549 215.466 69.5538 215.466C70.4146 215.466 71.2323 214.939 71.5874 214.121V215.541C71.5874 216.488 70.888 216.951 70.0057 216.951C69.231 216.951 68.5638 216.563 68.467 215.81H67.391C67.5201 217.069 68.6176 217.725 70.0057 217.725C71.3507 217.725 72.6419 217.058 72.6419 215.52V209.731H71.5874V211.097ZM69.8981 214.691C68.8006 214.691 68.1765 213.895 68.1765 212.539C68.1765 211.183 68.8006 210.387 69.8981 210.387C70.9956 210.387 71.6305 211.183 71.6305 212.539C71.6305 213.895 70.9956 214.691 69.8981 214.691ZM75.3932 208.741V207.32H74.2527V208.741H75.3932ZM75.3502 215.498V209.731H74.2957V215.498H75.3502ZM79.438 214.702C78.9108 214.702 78.5988 214.53 78.5988 213.916V213.895V210.527H80.0621V209.731H78.5988V208.364H77.5443V209.731H76.3284V210.527H77.5443V213.895V213.916C77.5443 215.014 78.3297 215.498 79.3304 215.498H80.0836V214.702H79.438ZM84.0616 209.612C83.0717 209.612 82.5122 210.226 82.2539 210.903V207.32H81.1994V215.498H82.2539V212.087C82.2539 210.903 82.7919 210.387 83.6312 210.387C84.4705 210.387 85.0085 210.893 85.0085 212.066V212.087V215.498H86.063V211.926V211.904C86.063 210.613 85.3636 209.612 84.0616 209.612ZM91.363 213.142C91.363 214.314 90.8573 214.842 90.018 214.842C89.1787 214.842 88.6623 214.325 88.6623 213.163V213.142V209.731H87.6078V213.303V213.324C87.6078 214.616 88.2856 215.616 89.5876 215.616C90.5453 215.616 91.1156 215.003 91.363 214.347V215.498H92.4175V209.731H91.363V213.142ZM97.1808 209.612C96.1048 209.612 95.4162 210.355 95.1472 211.129V207.32H94.0927V215.498H95.1472V214.239C95.5023 215.068 96.32 215.616 97.1808 215.616C98.5797 215.616 99.6341 214.39 99.6341 212.614C99.6341 210.839 98.5689 209.612 97.1808 209.612ZM96.8365 214.842C95.739 214.842 95.1041 213.97 95.1041 212.614C95.1041 211.259 95.739 210.387 96.8365 210.387C97.934 210.387 98.5581 211.259 98.5581 212.614C98.5581 213.97 97.934 214.842 96.8365 214.842ZM102.076 215.498V214.207H100.807V215.498H102.076ZM106.034 215.616C107.347 215.616 108.402 214.895 108.703 213.572H107.627C107.39 214.39 106.874 214.842 106.034 214.842C104.937 214.842 104.302 213.97 104.302 212.614C104.302 211.259 104.937 210.387 106.034 210.387C106.906 210.387 107.401 210.979 107.562 211.689H108.638C108.391 210.473 107.455 209.612 106.034 209.612C104.324 209.612 103.226 210.828 103.226 212.614C103.226 214.401 104.324 215.616 106.034 215.616ZM112.339 215.616C114.05 215.616 115.137 214.401 115.137 212.614C115.137 210.828 114.05 209.612 112.339 209.612C110.628 209.612 109.531 210.828 109.531 212.614C109.531 214.401 110.628 215.616 112.339 215.616ZM112.339 214.842C111.242 214.842 110.607 213.97 110.607 212.614C110.607 211.259 111.242 210.387 112.339 210.387C113.437 210.387 114.061 211.259 114.061 212.614C114.061 213.97 113.437 214.842 112.339 214.842ZM122.867 209.612C121.834 209.612 121.274 210.355 121.037 211.054C120.833 210.312 120.22 209.612 119.23 209.612C118.283 209.612 117.766 210.215 117.508 210.903V209.731H116.454V215.498H117.508V212.087C117.508 210.903 117.96 210.387 118.799 210.387C119.639 210.387 120.091 210.903 120.091 212.066V212.087V215.498H121.145V212.087C121.145 210.903 121.597 210.387 122.436 210.387C123.276 210.387 123.727 210.903 123.727 212.066V212.087V215.498H124.782V211.926V211.904C124.782 210.57 124.126 209.612 122.867 209.612ZM126.943 215.498L130.548 207.32H129.407L125.802 215.498H126.943ZM133.467 209.612C132.111 209.612 131.185 210.344 131.056 211.431H132.132C132.208 210.882 132.66 210.387 133.467 210.387C134.381 210.387 134.801 211.022 134.801 211.775V211.797V211.893L133.251 212.055C132.218 212.162 130.873 212.421 130.873 213.766C130.873 214.831 131.734 215.616 132.81 215.616C133.929 215.616 134.403 215.121 134.801 214.314V215.498H135.855V211.807V211.786C135.855 210.71 135.221 209.612 133.467 209.612ZM133.198 214.917C132.53 214.917 131.949 214.508 131.949 213.766C131.949 212.926 132.853 212.819 133.65 212.733L134.801 212.614V213.045C134.801 214.078 134.263 214.917 133.198 214.917ZM138.524 209.731H137.469V215.498H138.524V212.023C138.524 210.99 139.04 210.656 140.095 210.656H140.418V209.612C139.352 209.612 138.782 210.161 138.524 210.968V209.731ZM143.8 215.616C145.113 215.616 146.167 214.895 146.468 213.572H145.392C145.156 214.39 144.639 214.842 143.8 214.842C142.702 214.842 142.068 213.97 142.068 212.614C142.068 211.259 142.702 210.387 143.8 210.387C144.672 210.387 145.166 210.979 145.328 211.689H146.404C146.156 210.473 145.22 209.612 143.8 209.612C142.089 209.612 140.992 210.828 140.992 212.614C140.992 214.401 142.089 215.616 143.8 215.616ZM150.524 209.612C149.534 209.612 148.975 210.226 148.717 210.903V207.32H147.662V215.498H148.717V212.087C148.717 210.903 149.255 210.387 150.094 210.387C150.933 210.387 151.471 210.893 151.471 212.066V212.087V215.498H152.526V211.926V211.904C152.526 210.613 151.826 209.612 150.524 209.612ZM160.204 215.444L159.085 209.731H157.083L155.964 215.444L154.555 209.731H153.533L154.953 215.498H156.965L158.084 209.784L159.203 215.498H161.215L162.636 209.731H161.613L160.204 215.444ZM165.926 209.612C164.57 209.612 163.645 210.344 163.515 211.431H164.591C164.667 210.882 165.119 210.387 165.926 210.387C166.84 210.387 167.26 211.022 167.26 211.775V211.797V211.893L165.71 212.055C164.677 212.162 163.332 212.421 163.332 213.766C163.332 214.831 164.193 215.616 165.269 215.616C166.388 215.616 166.862 215.121 167.26 214.314V215.498H168.314V211.807V211.786C168.314 210.71 167.68 209.612 165.926 209.612ZM165.657 214.917C164.99 214.917 164.408 214.508 164.408 213.766C164.408 212.926 165.312 212.819 166.109 212.733L167.26 212.614V213.045C167.26 214.078 166.722 214.917 165.657 214.917ZM172.115 214.766L170.145 209.731H169.059L171.06 214.863H172.082L171.157 217.607H172.254L174.901 209.731H173.804L172.115 214.766ZM179.021 212.894V212.012H175.621V212.894H179.021ZM183.446 209.612C182.456 209.612 181.896 210.226 181.638 210.903V209.731H180.584V215.498H181.638V212.087C181.638 210.903 182.176 210.387 183.015 210.387C183.855 210.387 184.393 210.893 184.393 212.066V212.087V215.498H185.447V211.926V211.904C185.447 210.613 184.748 209.612 183.446 209.612ZM192.146 212.528C192.146 210.753 191.048 209.612 189.434 209.612C187.724 209.612 186.701 210.86 186.701 212.614C186.701 214.347 187.702 215.616 189.445 215.616C190.747 215.616 191.683 215.035 192.017 213.809H190.941C190.726 214.454 190.285 214.842 189.445 214.842C188.488 214.842 187.853 214.175 187.767 212.926H192.124C192.135 212.786 192.146 212.636 192.146 212.528ZM189.434 210.387C190.381 210.387 191.005 211.097 191.07 212.13H187.777C187.907 210.979 188.52 210.387 189.434 210.387ZM195.761 214.702C195.234 214.702 194.922 214.53 194.922 213.916V213.895V210.527H196.385V209.731H194.922V208.364H193.867V209.731H192.651V210.527H193.867V213.895V213.916C193.867 215.014 194.653 215.498 195.653 215.498H196.407V214.702H195.761ZM203.591 215.444L202.472 209.731H200.471L199.352 215.444L197.942 209.731H196.92L198.34 215.498H200.352L201.471 209.784L202.59 215.498H204.603L206.023 209.731H205.001L203.591 215.444ZM209.496 215.616C211.206 215.616 212.293 214.401 212.293 212.614C212.293 210.828 211.206 209.612 209.496 209.612C207.785 209.612 206.687 210.828 206.687 212.614C206.687 214.401 207.785 215.616 209.496 215.616ZM209.496 214.842C208.398 214.842 207.763 213.97 207.763 212.614C207.763 211.259 208.398 210.387 209.496 210.387C210.593 210.387 211.217 211.259 211.217 212.614C211.217 213.97 210.593 214.842 209.496 214.842ZM214.665 209.731H213.61V215.498H214.665V212.023C214.665 210.99 215.181 210.656 216.236 210.656H216.558V209.612C215.493 209.612 214.923 210.161 214.665 210.968V209.731ZM219.894 212.281L222.617 209.731H221.304L218.679 212.195V207.32H217.624V215.498H218.679V212.388L221.412 215.498H222.724L219.894 212.281Z" fill="#666666"/>
</g>
</g>
<defs>
<filter id="filter0_d_1649_31592" x="0.496616" y="0.389591" width="386.34" height="297.426" filterUnits="userSpaceOnUse" color-interpolation-filters="sRGB">
<feFlood flood-opacity="0" result="BackgroundImageFix"/>
<feColorMatrix in="SourceAlpha" type="matrix" values="0 0 0 0 0 0 0 0 0 0 0 0 0 0 0 0 0 0 127 0" result="hardAlpha"/>
<feOffset dy="11.5287"/>
<feGaussianBlur stdDeviation="20.7517"/>
<feComposite in2="hardAlpha" operator="out"/>
<feColorMatrix type="matrix" values="0 0 0 0 0 0 0 0 0 0 0 0 0 0 0 0 0 0 0.06 0"/>
<feBlend mode="normal" in2="BackgroundImageFix" result="effect1_dropShadow_1649_31592"/>
<feBlend mode="normal" in="SourceGraphic" in2="effect1_dropShadow_1649_31592" result="shape"/>
</filter>
<clipPath id="clip0_1649_31592">
<rect width="12.2973" height="12.2973" fill="white" transform="translate(54.2974 48.9297)"/>
</clipPath>
<clipPath id="clip1_1649_31592">
<rect x="54.2974" y="113.165" width="278.739" height="42.9747" rx="6.14865" fill="white"/>
</clipPath>
<clipPath id="clip2_1649_31592">
<rect x="54.2974" y="189.511" width="278.739" height="42.9747" rx="6.14865" fill="white"/>
</clipPath>
</defs>
</svg>
