<svg width="387" height="299" viewBox="0 0 387 299" fill="none" xmlns="http://www.w3.org/2000/svg">
<g filter="url(#filter0_d_1649_31577)">
<rect x="42" y="30.6484" width="303.333" height="214.419" rx="6.14865" fill="white" shape-rendering="crispEdges"/>
<g clip-path="url(#clip0_1649_31577)">
<path d="M58.806 59.2074C56.244 59.975 56.244 57.928 55.2192 57.6722M62.3927 60.7426V58.7621C62.4119 58.5181 62.3789 58.2728 62.2958 58.0425C62.2128 57.8123 62.0816 57.6023 61.911 57.4265C63.5199 57.2474 65.2108 56.6384 65.2108 53.8444C65.2107 53.1299 64.9355 52.4428 64.4422 51.9254C64.6758 51.3003 64.6593 50.6094 64.3961 49.9961C64.3961 49.9961 63.7915 49.817 62.3927 50.7535C61.2183 50.4356 59.9803 50.4356 58.806 50.7535C57.4071 49.817 56.8025 49.9961 56.8025 49.9961C56.5393 50.6094 56.5228 51.3003 56.7564 51.9254C56.2594 52.4467 55.984 53.14 55.9878 53.8597C55.9878 56.6333 57.6787 57.2423 59.2876 57.4419C59.119 57.6158 58.989 57.8233 58.906 58.0508C58.823 58.2783 58.7889 58.5206 58.806 58.7621V60.7426" stroke="black" stroke-width="1.15287" stroke-linecap="round" stroke-linejoin="round"/>
</g>
<path d="M77.5782 56.4395H80.9476C80.9108 58.3824 79.6933 59.4523 77.984 59.4523C76.1025 59.4523 74.8359 57.9151 74.8359 55.6893C74.8359 53.4758 76.0779 51.9264 77.9348 51.9264C79.4228 51.9264 80.3451 52.7257 80.7632 53.9062H82.0544C81.5748 52.037 80.1114 50.8811 77.9348 50.8811C75.3647 50.8811 73.5447 52.8241 73.5447 55.6893C73.5447 58.5546 75.4139 60.4976 77.8364 60.4976C79.7302 60.4976 80.7263 59.2678 81.1075 58.0012V60.3623H82.1897V55.3327H77.5782V56.4395ZM85.303 52.6396V51.0164H83.9995V52.6396H85.303ZM85.2538 60.3623V53.771H84.0487V60.3623H85.2538ZM89.9256 59.4523C89.3231 59.4523 88.9664 59.2555 88.9664 58.5546V58.53V54.681H90.6389V53.771H88.9664V52.2092H87.7613V53.771H86.3717V54.681H87.7613V58.53V58.5546C87.7613 59.8089 88.659 60.3623 89.8027 60.3623H90.6635V59.4523H89.9256ZM95.2097 53.6357C94.0784 53.6357 93.4389 54.3366 93.1438 55.1114V51.0164H91.9386V60.3623H93.1438V56.4641C93.1438 55.1114 93.7586 54.5211 94.7178 54.5211C95.677 54.5211 96.2919 55.0991 96.2919 56.4395V56.4641V60.3623H97.497V56.2796V56.255C97.497 54.7793 96.6977 53.6357 95.2097 53.6357ZM103.554 57.6692C103.554 59.0096 102.976 59.6122 102.017 59.6122C101.058 59.6122 100.468 59.0219 100.468 57.6938V57.6692V53.771H99.2625V57.8537V57.8783C99.2625 59.3539 100.037 60.4976 101.525 60.4976C102.62 60.4976 103.271 59.7966 103.554 59.0465V60.3623H104.759V53.771H103.554V57.6692ZM110.203 53.6357C108.973 53.6357 108.186 54.4842 107.879 55.3696V51.0164H106.674V60.3623H107.879V58.9235C108.285 59.8704 109.219 60.4976 110.203 60.4976C111.802 60.4976 113.007 59.0957 113.007 57.0666C113.007 55.0376 111.789 53.6357 110.203 53.6357ZM109.81 59.6122C108.555 59.6122 107.83 58.6161 107.83 57.0666C107.83 55.5172 108.555 54.5211 109.81 54.5211C111.064 54.5211 111.777 55.5172 111.777 57.0666C111.777 58.6161 111.064 59.6122 109.81 59.6122Z" fill="black"/>
<line x1="54.2974" y1="79.6929" x2="333.036" y2="79.6929" stroke="black" stroke-opacity="0.1" stroke-width="0.768581"/>
<path d="M59.0441 106.51C61.6634 106.51 62.7087 105.059 62.7087 102.624V97.0291H61.4667V102.698C61.4667 104.58 60.6551 105.465 59.0441 105.465C57.4332 105.465 56.6093 104.592 56.6093 102.723V102.698V97.0291H55.3672V102.624V102.649C55.3672 105.071 56.4248 106.51 59.0441 106.51ZM66.9229 106.51C68.5462 106.51 69.6775 105.748 69.6775 104.481C69.6775 103.461 69.1119 102.846 67.7346 102.551L66.8123 102.354C65.9269 102.169 65.4965 101.985 65.4965 101.456C65.4965 100.866 66.1851 100.534 66.8983 100.534C67.5378 100.534 68.1527 100.854 68.3371 101.431H69.5669C69.2717 100.239 68.1773 99.6484 66.8983 99.6484C65.4596 99.6484 64.3036 100.411 64.3036 101.579C64.3036 102.587 65.0906 103.104 66.2343 103.35L67.1566 103.547C68.1404 103.756 68.4847 104.039 68.4847 104.629C68.4847 105.231 67.9559 105.625 66.9229 105.625C66.2589 105.625 65.5456 105.379 65.3612 104.444H64.1315C64.3159 105.797 65.4596 106.51 66.9229 106.51ZM76.9732 102.981C76.9732 100.952 75.7189 99.6484 73.8743 99.6484C71.919 99.6484 70.7508 101.075 70.7508 103.079C70.7508 105.059 71.8944 106.51 73.8866 106.51C75.3745 106.51 76.4444 105.846 76.8256 104.444H75.5959C75.35 105.182 74.8458 105.625 73.8866 105.625C72.7921 105.625 72.0666 104.862 71.9682 103.436H76.9486C76.9609 103.276 76.9732 103.104 76.9732 102.981ZM73.8743 100.534C74.9564 100.534 75.6697 101.345 75.7435 102.526H71.9805C72.1281 101.21 72.829 100.534 73.8743 100.534ZM79.6752 99.7836H78.4701V106.375H79.6752V102.403C79.6752 101.222 80.2655 100.841 81.4706 100.841H81.8396V99.6484C80.6221 99.6484 79.9704 100.276 79.6752 101.198V99.7836ZM86.3287 99.6484C85.1973 99.6484 84.5578 100.349 84.2627 101.124V99.7836H83.0576V106.375H84.2627V102.477C84.2627 101.124 84.8776 100.534 85.8368 100.534C86.796 100.534 87.4108 101.112 87.4108 102.452V102.477V106.375H88.616V102.292V102.268C88.616 100.792 87.8166 99.6484 86.3287 99.6484ZM93.0499 99.6484C91.5004 99.6484 90.4429 100.485 90.2953 101.727H91.525C91.6111 101.099 92.1276 100.534 93.0499 100.534C94.0952 100.534 94.5748 101.259 94.5748 102.12V102.145V102.255L92.804 102.44C91.6234 102.563 90.0862 102.858 90.0862 104.395C90.0862 105.613 91.07 106.51 92.2998 106.51C93.5787 106.51 94.1198 105.945 94.5748 105.022V106.375H95.7799V102.157V102.132C95.7799 100.903 95.0544 99.6484 93.0499 99.6484ZM92.7425 105.711C91.98 105.711 91.316 105.244 91.316 104.395C91.316 103.436 92.349 103.313 93.259 103.215L94.5748 103.079V103.571C94.5748 104.752 93.9599 105.711 92.7425 105.711ZM104.954 99.6484C103.773 99.6484 103.134 100.497 102.863 101.296C102.63 100.448 101.929 99.6484 100.797 99.6484C99.7151 99.6484 99.1249 100.337 98.8297 101.124V99.7836H97.6246V106.375H98.8297V102.477C98.8297 101.124 99.3462 100.534 100.305 100.534C101.265 100.534 101.781 101.124 101.781 102.452V102.477V106.375H102.986V102.477C102.986 101.124 103.503 100.534 104.462 100.534C105.421 100.534 105.938 101.124 105.938 102.452V102.477V106.375H107.143V102.292V102.268C107.143 100.743 106.393 99.6484 104.954 99.6484ZM114.802 102.981C114.802 100.952 113.547 99.6484 111.703 99.6484C109.748 99.6484 108.579 101.075 108.579 103.079C108.579 105.059 109.723 106.51 111.715 106.51C113.203 106.51 114.273 105.846 114.654 104.444H113.425C113.179 105.182 112.674 105.625 111.715 105.625C110.621 105.625 109.895 104.862 109.797 103.436H114.777C114.79 103.276 114.802 103.104 114.802 102.981ZM111.703 100.534C112.785 100.534 113.498 101.345 113.572 102.526H109.809C109.957 101.21 110.658 100.534 111.703 100.534Z" fill="#666666"/>
<g clip-path="url(#clip1_1649_31577)">
<rect x="54.2974" y="113.449" width="278.739" height="42.9747" rx="6.14865" fill="#F2EFED"/>
<path d="M69.7044 133.551C68.3486 133.551 67.4233 134.282 67.2941 135.369H68.3701C68.4455 134.82 68.8974 134.325 69.7044 134.325C70.619 134.325 71.0387 134.96 71.0387 135.714V135.735V135.832L69.4892 135.993C68.4562 136.101 67.1112 136.359 67.1112 137.704C67.1112 138.769 67.972 139.555 69.048 139.555C70.1671 139.555 70.6405 139.06 71.0387 138.253V139.437H72.0932V135.746V135.724C72.0932 134.648 71.4583 133.551 69.7044 133.551ZM69.4354 138.855C68.7683 138.855 68.1872 138.447 68.1872 137.704C68.1872 136.865 69.0911 136.757 69.8873 136.671L71.0387 136.553V136.983C71.0387 138.016 70.5007 138.855 69.4354 138.855ZM74.7618 133.669H73.7073V139.437H74.7618V135.961C74.7618 134.928 75.2782 134.594 76.3327 134.594H76.6555V133.551C75.5903 133.551 75.02 134.099 74.7618 134.907V133.669ZM80.0378 139.555C81.3505 139.555 82.405 138.834 82.7063 137.51H81.6303C81.3935 138.328 80.877 138.78 80.0378 138.78C78.9402 138.78 78.3054 137.909 78.3054 136.553C78.3054 135.197 78.9402 134.325 80.0378 134.325C80.9093 134.325 81.4043 134.917 81.5657 135.627H82.6417C82.3942 134.412 81.4581 133.551 80.0378 133.551C78.3269 133.551 77.2294 134.767 77.2294 136.553C77.2294 138.339 78.3269 139.555 80.0378 139.555ZM86.7622 133.551C85.7722 133.551 85.2127 134.164 84.9545 134.842V131.259H83.9V139.437H84.9545V136.026C84.9545 134.842 85.4925 134.325 86.3318 134.325C87.171 134.325 87.7091 134.831 87.7091 136.004V136.026V139.437H88.7635V135.864V135.843C88.7635 134.551 88.0641 133.551 86.7622 133.551ZM96.4416 139.383L95.3225 133.669H93.3211L92.2021 139.383L90.7925 133.669H89.7703L91.1906 139.437H93.2028L94.3218 133.723L95.4409 139.437H97.453L98.8734 133.669H97.8512L96.4416 139.383ZM102.163 133.551C100.808 133.551 99.8823 134.282 99.7532 135.369H100.829C100.905 134.82 101.356 134.325 102.163 134.325C103.078 134.325 103.498 134.96 103.498 135.714V135.735V135.832L101.948 135.993C100.915 136.101 99.5703 136.359 99.5703 137.704C99.5703 138.769 100.431 139.555 101.507 139.555C102.626 139.555 103.1 139.06 103.498 138.253V139.437H104.552V135.746V135.724C104.552 134.648 103.917 133.551 102.163 133.551ZM101.894 138.855C101.227 138.855 100.646 138.447 100.646 137.704C100.646 136.865 101.55 136.757 102.346 136.671L103.498 136.553V136.983C103.498 138.016 102.96 138.855 101.894 138.855ZM108.352 138.705L106.383 133.669H105.296L107.298 138.802H108.32L107.395 141.546H108.492L111.139 133.669H110.042L108.352 138.705ZM115.259 136.833V135.95H111.859V136.833H115.259ZM119.684 133.551C118.694 133.551 118.134 134.164 117.876 134.842V133.669H116.821V139.437H117.876V136.026C117.876 134.842 118.414 134.325 119.253 134.325C120.092 134.325 120.63 134.831 120.63 136.004V136.026V139.437H121.685V135.864V135.843C121.685 134.551 120.986 133.551 119.684 133.551ZM128.384 136.467C128.384 134.691 127.286 133.551 125.672 133.551C123.961 133.551 122.939 134.799 122.939 136.553C122.939 138.285 123.94 139.555 125.683 139.555C126.985 139.555 127.921 138.974 128.255 137.747H127.179C126.963 138.393 126.522 138.78 125.683 138.78C124.725 138.78 124.091 138.113 124.004 136.865H128.362C128.373 136.725 128.384 136.574 128.384 136.467ZM125.672 134.325C126.619 134.325 127.243 135.036 127.308 136.069H124.015C124.144 134.917 124.758 134.325 125.672 134.325ZM131.999 138.64C131.472 138.64 131.159 138.468 131.159 137.855V137.833V134.465H132.623V133.669H131.159V132.303H130.105V133.669H128.889V134.465H130.105V137.833V137.855C130.105 138.952 130.89 139.437 131.891 139.437H132.644V138.64H131.999ZM139.829 139.383L138.71 133.669H136.708L135.589 139.383L134.18 133.669H133.158L134.578 139.437H136.59L137.709 133.723L138.828 139.437H140.84L142.261 133.669H141.238L139.829 139.383ZM145.733 139.555C147.444 139.555 148.531 138.339 148.531 136.553C148.531 134.767 147.444 133.551 145.733 133.551C144.023 133.551 142.925 134.767 142.925 136.553C142.925 138.339 144.023 139.555 145.733 139.555ZM145.733 138.78C144.636 138.78 144.001 137.909 144.001 136.553C144.001 135.197 144.636 134.325 145.733 134.325C146.831 134.325 147.455 135.197 147.455 136.553C147.455 137.909 146.831 138.78 145.733 138.78ZM150.902 133.669H149.848V139.437H150.902V135.961C150.902 134.928 151.419 134.594 152.473 134.594H152.796V133.551C151.731 133.551 151.161 134.099 150.902 134.907V133.669ZM156.132 136.219L158.855 133.669H157.542L154.916 136.133V131.259H153.862V139.437H154.916V136.327L157.649 139.437H158.962L156.132 136.219Z" fill="#666666"/>
</g>
<path d="M55.4656 173.375V182.721H56.7076V179.228H58.9089C61.1224 179.228 62.4628 178.183 62.4628 176.302C62.4628 174.42 61.1224 173.375 58.9089 173.375H55.4656ZM56.7076 178.122V174.482H58.9457C60.3845 174.482 61.1716 175.072 61.1716 176.302C61.1716 177.531 60.3845 178.122 58.9457 178.122H56.7076ZM64.9641 176.129H63.759V182.721H64.9641V178.749C64.9641 177.568 65.5544 177.187 66.7595 177.187H67.1284V175.994C65.911 175.994 65.2593 176.621 64.9641 177.544V176.129ZM70.9938 182.856C72.9491 182.856 74.1911 181.466 74.1911 179.425C74.1911 177.384 72.9491 175.994 70.9938 175.994C69.0386 175.994 67.7842 177.384 67.7842 179.425C67.7842 181.466 69.0386 182.856 70.9938 182.856ZM70.9938 181.971C69.7395 181.971 69.014 180.974 69.014 179.425C69.014 177.876 69.7395 176.879 70.9938 176.879C72.2482 176.879 72.9614 177.876 72.9614 179.425C72.9614 180.974 72.2482 181.971 70.9938 181.971ZM81.3688 176.129H77.3476V175.207C77.3476 174.482 77.7042 174.285 78.3068 174.285H79.0446V173.375H78.1838C77.0279 173.375 76.1425 173.94 76.1425 175.207V176.129H74.7775V177.039H76.1425V182.721H77.3476V177.039H80.1637V182.721H81.3688V176.129ZM80.1145 174.998H81.418V173.375H80.1145V174.998ZM84.4909 182.721V173.375H83.2857V182.721H84.4909ZM92.2247 179.327C92.2247 177.298 90.9704 175.994 89.1258 175.994C87.1705 175.994 86.0023 177.421 86.0023 179.425C86.0023 181.405 87.1459 182.856 89.1381 182.856C90.6261 182.856 91.6959 182.192 92.0772 180.79H90.8474C90.6015 181.528 90.0973 181.971 89.1381 181.971C88.0436 181.971 87.3181 181.208 87.2197 179.782H92.2001C92.2124 179.622 92.2247 179.45 92.2247 179.327ZM89.1258 176.879C90.208 176.879 90.9212 177.691 90.995 178.872H87.232C87.3796 177.556 88.0805 176.879 89.1258 176.879Z" fill="#666666"/>
<g clip-path="url(#clip2_1649_31577)">
<rect x="54.2974" y="189.795" width="278.739" height="42.9747" rx="6.14865" fill="#F2EFED"/>
<path d="M71.5874 211.381C71.3184 210.607 70.6298 209.896 69.5538 209.896C68.1657 209.896 67.1005 211.048 67.1005 212.823C67.1005 214.599 68.1549 215.75 69.5538 215.75C70.4146 215.75 71.2323 215.223 71.5874 214.405V215.825C71.5874 216.772 70.888 217.235 70.0057 217.235C69.231 217.235 68.5638 216.847 68.467 216.094H67.391C67.5201 217.353 68.6176 218.01 70.0057 218.01C71.3507 218.01 72.6419 217.342 72.6419 215.804V210.015H71.5874V211.381ZM69.8981 214.975C68.8006 214.975 68.1765 214.179 68.1765 212.823C68.1765 211.467 68.8006 210.671 69.8981 210.671C70.9956 210.671 71.6305 211.467 71.6305 212.823C71.6305 214.179 70.9956 214.975 69.8981 214.975ZM75.3932 209.025V207.605H74.2527V209.025H75.3932ZM75.3502 215.782V210.015H74.2957V215.782H75.3502ZM79.438 214.986C78.9108 214.986 78.5988 214.814 78.5988 214.2V214.179V210.811H80.0621V210.015H78.5988V208.648H77.5443V210.015H76.3284V210.811H77.5443V214.179V214.2C77.5443 215.298 78.3297 215.782 79.3304 215.782H80.0836V214.986H79.438ZM84.0616 209.896C83.0717 209.896 82.5122 210.51 82.2539 211.188V207.605H81.1994V215.782H82.2539V212.371C82.2539 211.188 82.7919 210.671 83.6312 210.671C84.4705 210.671 85.0085 211.177 85.0085 212.35V212.371V215.782H86.063V212.21V212.188C86.063 210.897 85.3636 209.896 84.0616 209.896ZM91.363 213.426C91.363 214.599 90.8573 215.126 90.018 215.126C89.1787 215.126 88.6623 214.609 88.6623 213.447V213.426V210.015H87.6078V213.587V213.609C87.6078 214.9 88.2856 215.901 89.5876 215.901C90.5453 215.901 91.1156 215.287 91.363 214.631V215.782H92.4175V210.015H91.363V213.426ZM97.1808 209.896C96.1048 209.896 95.4162 210.639 95.1472 211.414V207.605H94.0927V215.782H95.1472V214.523C95.5023 215.352 96.32 215.901 97.1808 215.901C98.5797 215.901 99.6341 214.674 99.6341 212.899C99.6341 211.123 98.5689 209.896 97.1808 209.896ZM96.8365 215.126C95.739 215.126 95.1041 214.254 95.1041 212.899C95.1041 211.543 95.739 210.671 96.8365 210.671C97.934 210.671 98.5581 211.543 98.5581 212.899C98.5581 214.254 97.934 215.126 96.8365 215.126ZM102.076 215.782V214.491H100.807V215.782H102.076ZM106.034 215.901C107.347 215.901 108.402 215.18 108.703 213.856H107.627C107.39 214.674 106.874 215.126 106.034 215.126C104.937 215.126 104.302 214.254 104.302 212.899C104.302 211.543 104.937 210.671 106.034 210.671C106.906 210.671 107.401 211.263 107.562 211.973H108.638C108.391 210.757 107.455 209.896 106.034 209.896C104.324 209.896 103.226 211.112 103.226 212.899C103.226 214.685 104.324 215.901 106.034 215.901ZM112.339 215.901C114.05 215.901 115.137 214.685 115.137 212.899C115.137 211.112 114.05 209.896 112.339 209.896C110.628 209.896 109.531 211.112 109.531 212.899C109.531 214.685 110.628 215.901 112.339 215.901ZM112.339 215.126C111.242 215.126 110.607 214.254 110.607 212.899C110.607 211.543 111.242 210.671 112.339 210.671C113.437 210.671 114.061 211.543 114.061 212.899C114.061 214.254 113.437 215.126 112.339 215.126ZM122.867 209.896C121.834 209.896 121.274 210.639 121.037 211.338C120.833 210.596 120.22 209.896 119.23 209.896C118.283 209.896 117.766 210.499 117.508 211.188V210.015H116.454V215.782H117.508V212.371C117.508 211.188 117.96 210.671 118.799 210.671C119.639 210.671 120.091 211.188 120.091 212.35V212.371V215.782H121.145V212.371C121.145 211.188 121.597 210.671 122.436 210.671C123.276 210.671 123.727 211.188 123.727 212.35V212.371V215.782H124.782V212.21V212.188C124.782 210.854 124.126 209.896 122.867 209.896ZM126.943 215.782L130.548 207.605H129.407L125.802 215.782H126.943ZM133.467 209.896C132.111 209.896 131.185 210.628 131.056 211.715H132.132C132.208 211.166 132.66 210.671 133.467 210.671C134.381 210.671 134.801 211.306 134.801 212.059V212.081V212.178L133.251 212.339C132.218 212.447 130.873 212.705 130.873 214.05C130.873 215.115 131.734 215.901 132.81 215.901C133.929 215.901 134.403 215.406 134.801 214.599V215.782H135.855V212.091V212.07C135.855 210.994 135.221 209.896 133.467 209.896ZM133.198 215.201C132.53 215.201 131.949 214.792 131.949 214.05C131.949 213.211 132.853 213.103 133.65 213.017L134.801 212.899V213.329C134.801 214.362 134.263 215.201 133.198 215.201ZM138.524 210.015H137.469V215.782H138.524V212.307C138.524 211.274 139.04 210.94 140.095 210.94H140.418V209.896C139.352 209.896 138.782 210.445 138.524 211.252V210.015ZM143.8 215.901C145.113 215.901 146.167 215.18 146.468 213.856H145.392C145.156 214.674 144.639 215.126 143.8 215.126C142.702 215.126 142.068 214.254 142.068 212.899C142.068 211.543 142.702 210.671 143.8 210.671C144.672 210.671 145.166 211.263 145.328 211.973H146.404C146.156 210.757 145.22 209.896 143.8 209.896C142.089 209.896 140.992 211.112 140.992 212.899C140.992 214.685 142.089 215.901 143.8 215.901ZM150.524 209.896C149.534 209.896 148.975 210.51 148.717 211.188V207.605H147.662V215.782H148.717V212.371C148.717 211.188 149.255 210.671 150.094 210.671C150.933 210.671 151.471 211.177 151.471 212.35V212.371V215.782H152.526V212.21V212.188C152.526 210.897 151.826 209.896 150.524 209.896ZM160.204 215.728L159.085 210.015H157.083L155.964 215.728L154.555 210.015H153.533L154.953 215.782H156.965L158.084 210.069L159.203 215.782H161.215L162.636 210.015H161.613L160.204 215.728ZM165.926 209.896C164.57 209.896 163.645 210.628 163.515 211.715H164.591C164.667 211.166 165.119 210.671 165.926 210.671C166.84 210.671 167.26 211.306 167.26 212.059V212.081V212.178L165.71 212.339C164.677 212.447 163.332 212.705 163.332 214.05C163.332 215.115 164.193 215.901 165.269 215.901C166.388 215.901 166.862 215.406 167.26 214.599V215.782H168.314V212.091V212.07C168.314 210.994 167.68 209.896 165.926 209.896ZM165.657 215.201C164.99 215.201 164.408 214.792 164.408 214.05C164.408 213.211 165.312 213.103 166.109 213.017L167.26 212.899V213.329C167.26 214.362 166.722 215.201 165.657 215.201ZM172.115 215.051L170.145 210.015H169.059L171.06 215.147H172.082L171.157 217.891H172.254L174.901 210.015H173.804L172.115 215.051ZM179.021 213.178V212.296H175.621V213.178H179.021ZM183.446 209.896C182.456 209.896 181.896 210.51 181.638 211.188V210.015H180.584V215.782H181.638V212.371C181.638 211.188 182.176 210.671 183.015 210.671C183.855 210.671 184.393 211.177 184.393 212.35V212.371V215.782H185.447V212.21V212.188C185.447 210.897 184.748 209.896 183.446 209.896ZM192.146 212.812C192.146 211.037 191.048 209.896 189.434 209.896C187.724 209.896 186.701 211.145 186.701 212.899C186.701 214.631 187.702 215.901 189.445 215.901C190.747 215.901 191.683 215.32 192.017 214.093H190.941C190.726 214.738 190.285 215.126 189.445 215.126C188.488 215.126 187.853 214.459 187.767 213.211H192.124C192.135 213.071 192.146 212.92 192.146 212.812ZM189.434 210.671C190.381 210.671 191.005 211.381 191.07 212.414H187.777C187.907 211.263 188.52 210.671 189.434 210.671ZM195.761 214.986C195.234 214.986 194.922 214.814 194.922 214.2V214.179V210.811H196.385V210.015H194.922V208.648H193.867V210.015H192.651V210.811H193.867V214.179V214.2C193.867 215.298 194.653 215.782 195.653 215.782H196.407V214.986H195.761ZM203.591 215.728L202.472 210.015H200.471L199.352 215.728L197.942 210.015H196.92L198.34 215.782H200.352L201.471 210.069L202.59 215.782H204.603L206.023 210.015H205.001L203.591 215.728ZM209.496 215.901C211.206 215.901 212.293 214.685 212.293 212.899C212.293 211.112 211.206 209.896 209.496 209.896C207.785 209.896 206.687 211.112 206.687 212.899C206.687 214.685 207.785 215.901 209.496 215.901ZM209.496 215.126C208.398 215.126 207.763 214.254 207.763 212.899C207.763 211.543 208.398 210.671 209.496 210.671C210.593 210.671 211.217 211.543 211.217 212.899C211.217 214.254 210.593 215.126 209.496 215.126ZM214.665 210.015H213.61V215.782H214.665V212.307C214.665 211.274 215.181 210.94 216.236 210.94H216.558V209.896C215.493 209.896 214.923 210.445 214.665 211.252V210.015ZM219.894 212.565L222.617 210.015H221.304L218.679 212.479V207.605H217.624V215.782H218.679V212.673L221.412 215.782H222.724L219.894 212.565Z" fill="#666666"/>
</g>
</g>
<defs>
<filter id="filter0_d_1649_31577" x="0.496616" y="0.673771" width="386.34" height="297.426" filterUnits="userSpaceOnUse" color-interpolation-filters="sRGB">
<feFlood flood-opacity="0" result="BackgroundImageFix"/>
<feColorMatrix in="SourceAlpha" type="matrix" values="0 0 0 0 0 0 0 0 0 0 0 0 0 0 0 0 0 0 127 0" result="hardAlpha"/>
<feOffset dy="11.5287"/>
<feGaussianBlur stdDeviation="20.7517"/>
<feComposite in2="hardAlpha" operator="out"/>
<feColorMatrix type="matrix" values="0 0 0 0 0 0 0 0 0 0 0 0 0 0 0 0 0 0 0.06 0"/>
<feBlend mode="normal" in2="BackgroundImageFix" result="effect1_dropShadow_1649_31577"/>
<feBlend mode="normal" in="SourceGraphic" in2="effect1_dropShadow_1649_31577" result="shape"/>
</filter>
<clipPath id="clip0_1649_31577">
<rect width="12.2973" height="12.2973" fill="white" transform="translate(54.2974 49.2139)"/>
</clipPath>
<clipPath id="clip1_1649_31577">
<rect x="54.2974" y="113.449" width="278.739" height="42.9747" rx="6.14865" fill="white"/>
</clipPath>
<clipPath id="clip2_1649_31577">
<rect x="54.2974" y="189.795" width="278.739" height="42.9747" rx="6.14865" fill="white"/>
</clipPath>
</defs>
</svg>
