<?xml version="1.0" encoding="UTF-8" standalone="no"?>
<svg
   xmlns:dc="http://purl.org/dc/elements/1.1/"
   xmlns:cc="http://creativecommons.org/ns#"
   xmlns:rdf="http://www.w3.org/1999/02/22-rdf-syntax-ns#"
   xmlns:svg="http://www.w3.org/2000/svg"
   xmlns="http://www.w3.org/2000/svg"
   width="1408"
   height="1118"
   viewBox="0 0 1408 1118"
   fill="none"
   version="1.1"
   id="svg1285">
  <metadata
     id="metadata1289">
    <rdf:RDF>
      <cc:Work
         rdf:about="">
        <dc:format>image/svg+xml</dc:format>
        <dc:type
           rdf:resource="http://purl.org/dc/dcmitype/StillImage" />
        <dc:title></dc:title>
      </cc:Work>
    </rdf:RDF>
  </metadata>
  <rect
     width="1408"
     height="1118"
     fill="#F2EFED"
     id="rect1062" />
  <g
     opacity="0.2"
     id="g1090">
    <line
       x1="703.576"
       y1="528.735"
       x2="766.576"
       y2="427.735"
       stroke="#FF4D00"
       id="line1068" />
    <line
       x1="703.9"
       y1="528.51"
       x2="845.9"
       y2="499.51"
       stroke="#FF4D00"
       id="line1070" />
    <line
       x1="704.024"
       y1="528.501"
       x2="1021.02"
       y2="543.501"
       stroke="#FF4D00"
       id="line1072" />
    <line
       x1="704.178"
       y1="528.533"
       x2="1085.18"
       y2="673.533"
       stroke="#FF4D00"
       id="line1074" />
    <line
       x1="703.735"
       y1="528.576"
       x2="1097.74"
       y2="282.576"
       stroke="#FF4D00"
       id="line1076" />
    <line
       x1="703.969"
       y1="528.501"
       x2="1165.97"
       y2="499.501"
       stroke="#FF4D00"
       id="line1078" />
    <line
       x1="704.499"
       y1="529.025"
       x2="701.499"
       y2="588.025"
       stroke="#FF4D00"
       id="line1080" />
    <line
       x1="704.176"
       y1="529.468"
       x2="472.176"
       y2="616.468"
       stroke="#FF4D00"
       id="line1082" />
    <line
       x1="703.694"
       y1="529.395"
       x2="654.694"
       y2="491.395"
       stroke="#FF4D00"
       id="line1084" />
    <line
       x1="703.852"
       y1="529.478"
       x2="306.852"
       y2="406.478"
       stroke="#FF4D00"
       id="line1086" />
    <line
       x1="704.045"
       y1="529.498"
       x2="239.045"
       y2="571.498"
       stroke="#FF4D00"
       id="line1088" />
  </g>
  <mask
     id="mask0_1548_31560"
     style="mask-type:alpha"
     maskUnits="userSpaceOnUse"
     x="615"
     y="424"
     width="178"
     height="170">
    <path
       d="M713.706 590.833C708.098 594.907 700.505 594.907 694.897 590.833L622.405 538.164C616.797 534.09 614.45 526.868 616.592 520.276L644.282 435.056C646.424 428.463 652.567 424 659.499 424L749.104 424C756.036 424 762.179 428.463 764.321 435.056L792.011 520.276C794.153 526.868 791.806 534.09 786.198 538.164L713.706 590.833Z"
       fill="#D9D9D9"
       id="path1092" />
  </mask>
  <g
     mask="url(#mask0_1548_31560)"
     id="g1105">
    <path
       d="M704.301 597.666L613 531.331L647.874 424L760.729 424L795.603 531.331L704.301 597.666Z"
       fill="url(#paint0_linear_1548_31560)"
       id="path1095" />
    <path
       d="M704.301 597.666L613 531.331L647.874 424L760.729 424L795.603 531.331L704.301 597.666Z"
       fill="url(#paint1_radial_1548_31560)"
       fill-opacity="0.5"
       id="path1097" />
    <path
       d="M704.302 492.774V598.833L786.962 540.034C795.497 533.962 799.109 523.056 795.885 513.089L770.067 433.289C769.015 430.037 765.986 427.833 762.567 427.833C760.476 427.833 758.471 428.664 756.993 430.142L711.331 475.804C706.83 480.304 704.302 486.409 704.302 492.774Z"
       fill="#FFA077"
       id="path1099" />
    <path
       d="M732 518.311L756 518.311L756 521.667L732 521.667L732 518.311Z"
       fill="white"
       id="path1101" />
    <path
       d="M756 508.364L756 515.565L732 515.565L732 508.136C732 505.957 732.48 504.085 733.441 502.522C734.395 500.958 735.766 499.759 737.555 498.927C739.336 498.087 741.473 497.667 743.965 497.667C746.465 497.667 748.613 498.091 750.41 498.938C752.207 499.778 753.59 500.994 754.559 502.587C755.52 504.18 756 506.105 756 508.364ZM752.836 512.209L752.836 508.549C752.836 506.855 752.492 505.447 751.805 504.324C751.109 503.202 750.105 502.362 748.793 501.805C747.473 501.247 745.863 500.969 743.965 500.969C742.082 500.969 740.484 501.247 739.172 501.805C737.859 502.355 736.863 503.177 736.184 504.27C735.504 505.363 735.164 506.721 735.164 508.343L735.164 512.209L752.836 512.209Z"
       fill="white"
       id="path1103" />
  </g>
  <ellipse
     cx="43.4301"
     cy="43.43"
     rx="43.4301"
     ry="43.43"
     transform="matrix(1 -9.54902e-08 -8.0037e-08 -1 238.81 439.841)"
     fill="url(#paint2_linear_1548_31560)"
     id="ellipse1107" />
  <ellipse
     cx="43.4301"
     cy="43.43"
     rx="43.4301"
     ry="43.43"
     transform="matrix(1 -9.54902e-08 -8.0037e-08 -1 238.81 439.841)"
     fill="url(#paint3_radial_1548_31560)"
     fill-opacity="0.3"
     id="ellipse1109" />
  <ellipse
     cx="81.8394"
     cy="81.84"
     rx="81.8394"
     ry="81.84"
     transform="matrix(4.00185e-08 -1 -1 -4.77451e-08 1001.32 544.628)"
     fill="url(#paint4_linear_1548_31560)"
     id="ellipse1111" />
  <ellipse
     cx="81.8394"
     cy="81.84"
     rx="81.8394"
     ry="81.84"
     transform="matrix(4.00185e-08 -1 -1 -4.77451e-08 1001.32 544.628)"
     fill="url(#paint5_radial_1548_31560)"
     fill-opacity="0.3"
     id="ellipse1113" />
  <ellipse
     cx="43.4301"
     cy="43.43"
     rx="43.4301"
     ry="43.43"
     transform="matrix(1 -9.54902e-08 -8.0037e-08 -1 1072.79 733.549)"
     fill="url(#paint6_linear_1548_31560)"
     id="ellipse1115" />
  <ellipse
     cx="43.4301"
     cy="43.43"
     rx="43.4301"
     ry="43.43"
     transform="matrix(1 -9.54902e-08 -8.0037e-08 -1 1072.79 733.549)"
     fill="url(#paint7_radial_1548_31560)"
     fill-opacity="0.3"
     id="ellipse1117" />
  <ellipse
     cx="127.105"
     cy="127.105"
     rx="127.105"
     ry="127.105"
     transform="matrix(1 -9.54902e-08 -8.0037e-08 -1 701.384 445.058)"
     fill="url(#paint8_linear_1548_31560)"
     id="ellipse1119" />
  <ellipse
     cx="127.105"
     cy="127.105"
     rx="127.105"
     ry="127.105"
     transform="matrix(1 -9.54902e-08 -8.0037e-08 -1 701.384 445.058)"
     fill="url(#paint9_radial_1548_31560)"
     fill-opacity="0.3"
     id="ellipse1121" />
  <ellipse
     cx="173.5"
     cy="173.5"
     rx="173.5"
     ry="173.5"
     transform="matrix(1 -9.54902e-08 -8.0037e-08 -1 581 926)"
     fill="url(#paint10_linear_1548_31560)"
     id="ellipse1123" />
  <ellipse
     cx="173.5"
     cy="173.5"
     rx="173.5"
     ry="173.5"
     transform="matrix(1 -9.54902e-08 -8.0037e-08 -1 581 926)"
     fill="url(#paint11_radial_1548_31560)"
     fill-opacity="0.3"
     id="ellipse1125" />
  <ellipse
     cx="105.094"
     cy="105.095"
     rx="105.094"
     ry="105.095"
     transform="matrix(1 -9.54902e-08 -8.0037e-08 -1 1165.81 595.641)"
     fill="url(#paint12_linear_1548_31560)"
     id="ellipse1127" />
  <ellipse
     cx="105.094"
     cy="105.095"
     rx="105.094"
     ry="105.095"
     transform="matrix(1 -9.54902e-08 -8.0037e-08 -1 1165.81 595.641)"
     fill="url(#paint13_radial_1548_31560)"
     fill-opacity="0.3"
     id="ellipse1129" />
  <ellipse
     cx="124.654"
     cy="124.655"
     rx="124.654"
     ry="124.655"
     transform="matrix(1 -9.54902e-08 -8.0037e-08 -1 21.9998 695.478)"
     fill="url(#paint14_linear_1548_31560)"
     id="ellipse1131" />
  <ellipse
     cx="124.654"
     cy="124.655"
     rx="124.654"
     ry="124.655"
     transform="matrix(1 -9.54902e-08 -8.0037e-08 -1 21.9998 695.478)"
     fill="url(#paint15_radial_1548_31560)"
     fill-opacity="0.3"
     id="ellipse1133" />
  <ellipse
     cx="33.1528"
     cy="33.155"
     rx="33.1528"
     ry="33.155"
     transform="matrix(1 -9.54902e-08 -8.0037e-08 -1 1084.99 298.421)"
     fill="url(#paint16_linear_1548_31560)"
     id="ellipse1135" />
  <ellipse
     cx="33.1528"
     cy="33.155"
     rx="33.1528"
     ry="33.155"
     transform="matrix(1 -9.54902e-08 -8.0037e-08 -1 1084.99 298.421)"
     fill="url(#paint17_radial_1548_31560)"
     fill-opacity="0.3"
     id="ellipse1137" />
  <ellipse
     cx="78.2405"
     cy="78.24"
     rx="78.2405"
     ry="78.24"
     transform="matrix(1 -9.54902e-08 -8.0037e-08 -1 330.253 733.549)"
     fill="url(#paint18_linear_1548_31560)"
     id="ellipse1139" />
  <ellipse
     cx="78.2405"
     cy="78.24"
     rx="78.2405"
     ry="78.24"
     transform="matrix(1 -9.54902e-08 -8.0037e-08 -1 330.253 733.549)"
     fill="url(#paint19_radial_1548_31560)"
     fill-opacity="0.3"
     id="ellipse1141" />
  <ellipse
     cx="88.1864"
     cy="88.185"
     rx="88.1864"
     ry="88.185"
     transform="matrix(1 -9.54902e-08 -8.0037e-08 -1 441.899 504.205)"
     fill="url(#paint20_linear_1548_31560)"
     id="ellipse1143" />
  <ellipse
     cx="88.1864"
     cy="88.185"
     rx="88.1864"
     ry="88.185"
     transform="matrix(1 -9.54902e-08 -8.0037e-08 -1 441.899 504.205)"
     fill="url(#paint21_radial_1548_31560)"
     fill-opacity="0.3"
     id="ellipse1145" />
  <ellipse
     cx="27.8483"
     cy="27.85"
     rx="27.8483"
     ry="27.85"
     transform="matrix(1 -9.54902e-08 -8.0037e-08 -1 1021.26 562.826)"
     fill="url(#paint22_linear_1548_31560)"
     id="ellipse1147" />
  <ellipse
     cx="27.8483"
     cy="27.85"
     rx="27.8483"
     ry="27.85"
     transform="matrix(1 -9.54902e-08 -8.0037e-08 -1 1021.26 562.826)"
     fill="url(#paint23_radial_1548_31560)"
     fill-opacity="0.3"
     id="ellipse1149" />
  <rect
     x="894.5"
     y="338"
     width="120"
     height="31"
     rx="8"
     fill="black"
     id="rect1151" />
  <path
     d="M903.557 358V349.273H908.79V350.21H904.614V353.159H908.398V354.097H904.614V358H903.557ZM912.39 358.153C911.975 358.153 911.598 358.075 911.26 357.919C910.922 357.76 910.654 357.531 910.455 357.233C910.256 356.932 910.157 356.568 910.157 356.142C910.157 355.767 910.23 355.463 910.378 355.23C910.526 354.994 910.723 354.81 910.971 354.676C911.218 354.543 911.49 354.443 911.789 354.378C912.09 354.31 912.392 354.256 912.696 354.216C913.094 354.165 913.417 354.126 913.664 354.101C913.914 354.072 914.096 354.026 914.209 353.96C914.326 353.895 914.384 353.781 914.384 353.619V353.585C914.384 353.165 914.269 352.838 914.039 352.605C913.811 352.372 913.466 352.256 913.003 352.256C912.523 352.256 912.147 352.361 911.874 352.571C911.601 352.781 911.409 353.006 911.299 353.244L910.344 352.903C910.515 352.506 910.742 352.196 911.026 351.974C911.313 351.75 911.625 351.594 911.963 351.506C912.304 351.415 912.64 351.369 912.969 351.369C913.179 351.369 913.421 351.395 913.694 351.446C913.969 351.494 914.235 351.595 914.49 351.749C914.749 351.902 914.963 352.134 915.134 352.443C915.304 352.753 915.39 353.168 915.39 353.688V358H914.384V357.114H914.333C914.265 357.256 914.151 357.408 913.992 357.57C913.833 357.732 913.621 357.869 913.357 357.983C913.093 358.097 912.77 358.153 912.39 358.153ZM912.543 357.25C912.941 357.25 913.276 357.172 913.549 357.016C913.824 356.859 914.032 356.658 914.171 356.411C914.313 356.163 914.384 355.903 914.384 355.631V354.71C914.341 354.761 914.248 354.808 914.103 354.851C913.961 354.891 913.796 354.926 913.608 354.957C913.424 354.986 913.243 355.011 913.067 355.034C912.894 355.054 912.753 355.071 912.645 355.085C912.384 355.119 912.14 355.175 911.912 355.251C911.688 355.325 911.506 355.437 911.367 355.588C911.23 355.736 911.162 355.937 911.162 356.193C911.162 356.543 911.292 356.807 911.55 356.986C911.811 357.162 912.142 357.25 912.543 357.25ZM917.225 358V351.455H918.197V352.477H918.282C918.418 352.128 918.638 351.857 918.942 351.663C919.246 351.467 919.612 351.369 920.038 351.369C920.469 351.369 920.829 351.467 921.116 351.663C921.406 351.857 921.631 352.128 921.793 352.477H921.862C922.029 352.139 922.281 351.871 922.616 351.672C922.951 351.47 923.353 351.369 923.822 351.369C924.407 351.369 924.886 351.553 925.258 351.919C925.63 352.283 925.816 352.849 925.816 353.619V358H924.81V353.619C924.81 353.136 924.678 352.791 924.414 352.584C924.15 352.376 923.839 352.273 923.481 352.273C923.021 352.273 922.664 352.412 922.411 352.69C922.158 352.966 922.032 353.315 922.032 353.739V358H921.009V353.517C921.009 353.145 920.888 352.845 920.647 352.618C920.406 352.388 920.094 352.273 919.714 352.273C919.452 352.273 919.208 352.342 918.981 352.482C918.756 352.621 918.575 352.814 918.435 353.061C918.299 353.305 918.231 353.588 918.231 353.909V358H917.225ZM930.314 358.136C929.723 358.136 929.205 357.996 928.759 357.714C928.315 357.433 927.969 357.04 927.719 356.534C927.472 356.028 927.348 355.437 927.348 354.761C927.348 354.08 927.472 353.484 927.719 352.976C927.969 352.467 928.315 352.072 928.759 351.791C929.205 351.51 929.723 351.369 930.314 351.369C930.905 351.369 931.422 351.51 931.865 351.791C932.311 352.072 932.658 352.467 932.905 352.976C933.155 353.484 933.28 354.08 933.28 354.761C933.28 355.437 933.155 356.028 932.905 356.534C932.658 357.04 932.311 357.433 931.865 357.714C931.422 357.996 930.905 358.136 930.314 358.136ZM930.314 357.233C930.763 357.233 931.132 357.118 931.422 356.888C931.712 356.658 931.926 356.355 932.065 355.98C932.205 355.605 932.274 355.199 932.274 354.761C932.274 354.324 932.205 353.916 932.065 353.538C931.926 353.161 931.712 352.855 931.422 352.622C931.132 352.389 930.763 352.273 930.314 352.273C929.865 352.273 929.496 352.389 929.206 352.622C928.916 352.855 928.702 353.161 928.562 353.538C928.423 353.916 928.354 354.324 928.354 354.761C928.354 355.199 928.423 355.605 928.562 355.98C928.702 356.355 928.916 356.658 929.206 356.888C929.496 357.118 929.865 357.233 930.314 357.233ZM938.94 355.324V351.455H939.946V358H938.94V356.892H938.872C938.718 357.224 938.48 357.507 938.156 357.74C937.832 357.97 937.423 358.085 936.929 358.085C936.52 358.085 936.156 357.996 935.838 357.817C935.52 357.635 935.27 357.362 935.088 356.999C934.906 356.632 934.815 356.17 934.815 355.614V351.455H935.821V355.545C935.821 356.023 935.954 356.403 936.221 356.688C936.491 356.972 936.835 357.114 937.252 357.114C937.502 357.114 937.757 357.05 938.015 356.922C938.277 356.794 938.495 356.598 938.672 356.334C938.85 356.07 938.94 355.733 938.94 355.324ZM946.424 352.92L945.521 353.176C945.464 353.026 945.38 352.879 945.269 352.737C945.161 352.592 945.013 352.473 944.826 352.379C944.638 352.286 944.398 352.239 944.106 352.239C943.705 352.239 943.371 352.331 943.104 352.516C942.84 352.697 942.708 352.929 942.708 353.21C942.708 353.46 942.799 353.658 942.981 353.803C943.163 353.947 943.447 354.068 943.833 354.165L944.805 354.403C945.39 354.545 945.826 354.763 946.113 355.055C946.4 355.345 946.543 355.719 946.543 356.176C946.543 356.551 946.435 356.886 946.219 357.182C946.006 357.477 945.708 357.71 945.325 357.881C944.941 358.051 944.495 358.136 943.987 358.136C943.319 358.136 942.766 357.991 942.329 357.702C941.891 357.412 941.614 356.989 941.498 356.432L942.452 356.193C942.543 356.545 942.715 356.81 942.968 356.986C943.224 357.162 943.558 357.25 943.969 357.25C944.438 357.25 944.81 357.151 945.086 356.952C945.364 356.75 945.504 356.509 945.504 356.227C945.504 356 945.424 355.81 945.265 355.656C945.106 355.5 944.862 355.384 944.532 355.307L943.441 355.051C942.842 354.909 942.401 354.689 942.12 354.391C941.842 354.089 941.702 353.713 941.702 353.261C941.702 352.892 941.806 352.565 942.013 352.281C942.224 351.997 942.509 351.774 942.87 351.612C943.234 351.45 943.646 351.369 944.106 351.369C944.754 351.369 945.262 351.511 945.631 351.795C946.004 352.08 946.268 352.455 946.424 352.92ZM953.358 358.153C952.944 358.153 952.567 358.075 952.229 357.919C951.891 357.76 951.623 357.531 951.424 357.233C951.225 356.932 951.125 356.568 951.125 356.142C951.125 355.767 951.199 355.463 951.347 355.23C951.495 354.994 951.692 354.81 951.939 354.676C952.186 354.543 952.459 354.443 952.757 354.378C953.059 354.31 953.361 354.256 953.665 354.216C954.063 354.165 954.385 354.126 954.632 354.101C954.882 354.072 955.064 354.026 955.178 353.96C955.294 353.895 955.353 353.781 955.353 353.619V353.585C955.353 353.165 955.238 352.838 955.007 352.605C954.78 352.372 954.435 352.256 953.972 352.256C953.492 352.256 953.115 352.361 952.843 352.571C952.57 352.781 952.378 353.006 952.267 353.244L951.313 352.903C951.483 352.506 951.711 352.196 951.995 351.974C952.282 351.75 952.594 351.594 952.932 351.506C953.273 351.415 953.608 351.369 953.938 351.369C954.148 351.369 954.39 351.395 954.662 351.446C954.938 351.494 955.203 351.595 955.459 351.749C955.718 351.902 955.932 352.134 956.103 352.443C956.273 352.753 956.358 353.168 956.358 353.688V358H955.353V357.114H955.301C955.233 357.256 955.12 357.408 954.961 357.57C954.801 357.732 954.59 357.869 954.326 357.983C954.061 358.097 953.739 358.153 953.358 358.153ZM953.512 357.25C953.909 357.25 954.245 357.172 954.517 357.016C954.793 356.859 955 356.658 955.14 356.411C955.282 356.163 955.353 355.903 955.353 355.631V354.71C955.31 354.761 955.216 354.808 955.071 354.851C954.929 354.891 954.765 354.926 954.577 354.957C954.392 354.986 954.212 355.011 954.036 355.034C953.863 355.054 953.722 355.071 953.614 355.085C953.353 355.119 953.108 355.175 952.881 355.251C952.657 355.325 952.475 355.437 952.336 355.588C952.199 355.736 952.131 355.937 952.131 356.193C952.131 356.543 952.26 356.807 952.519 356.986C952.78 357.162 953.111 357.25 953.512 357.25ZM958.194 360.455V351.455H959.165V352.494H959.285C959.359 352.381 959.461 352.236 959.592 352.06C959.725 351.881 959.915 351.722 960.163 351.582C960.413 351.44 960.751 351.369 961.177 351.369C961.728 351.369 962.214 351.507 962.634 351.783C963.055 352.058 963.383 352.449 963.619 352.955C963.854 353.46 963.972 354.057 963.972 354.744C963.972 355.438 963.854 356.038 963.619 356.547C963.383 357.053 963.056 357.445 962.638 357.723C962.221 357.999 961.739 358.136 961.194 358.136C960.773 358.136 960.437 358.067 960.184 357.928C959.931 357.786 959.737 357.625 959.6 357.446C959.464 357.264 959.359 357.114 959.285 356.994H959.2V360.455H958.194ZM959.183 354.727C959.183 355.222 959.255 355.658 959.4 356.036C959.545 356.411 959.756 356.705 960.035 356.918C960.313 357.128 960.654 357.233 961.058 357.233C961.478 357.233 961.829 357.122 962.11 356.901C962.394 356.676 962.607 356.375 962.749 355.997C962.894 355.616 962.967 355.193 962.967 354.727C962.967 354.267 962.896 353.852 962.754 353.483C962.614 353.111 962.403 352.817 962.119 352.601C961.837 352.382 961.484 352.273 961.058 352.273C960.648 352.273 960.305 352.376 960.026 352.584C959.748 352.788 959.538 353.075 959.396 353.445C959.254 353.811 959.183 354.239 959.183 354.727ZM965.506 360.455V351.455H966.478V352.494H966.597C966.671 352.381 966.773 352.236 966.904 352.06C967.038 351.881 967.228 351.722 967.475 351.582C967.725 351.44 968.063 351.369 968.489 351.369C969.04 351.369 969.526 351.507 969.947 351.783C970.367 352.058 970.695 352.449 970.931 352.955C971.167 353.46 971.285 354.057 971.285 354.744C971.285 355.438 971.167 356.038 970.931 356.547C970.695 357.053 970.369 357.445 969.951 357.723C969.533 357.999 969.052 358.136 968.506 358.136C968.086 358.136 967.749 358.067 967.496 357.928C967.244 357.786 967.049 357.625 966.913 357.446C966.776 357.264 966.671 357.114 966.597 356.994H966.512V360.455H965.506ZM966.495 354.727C966.495 355.222 966.567 355.658 966.712 356.036C966.857 356.411 967.069 356.705 967.347 356.918C967.626 357.128 967.967 357.233 968.37 357.233C968.79 357.233 969.141 357.122 969.423 356.901C969.707 356.676 969.92 356.375 970.062 355.997C970.207 355.616 970.279 355.193 970.279 354.727C970.279 354.267 970.208 353.852 970.066 353.483C969.927 353.111 969.715 352.817 969.431 352.601C969.15 352.382 968.796 352.273 968.37 352.273C967.961 352.273 967.617 352.376 967.339 352.584C967.06 352.788 966.85 353.075 966.708 353.445C966.566 353.811 966.495 354.239 966.495 354.727ZM977.2 354.062V358H976.194V351.455H977.165V352.477H977.251C977.404 352.145 977.637 351.878 977.95 351.676C978.262 351.472 978.665 351.369 979.16 351.369C979.603 351.369 979.991 351.46 980.323 351.642C980.656 351.821 980.914 352.094 981.099 352.46C981.283 352.824 981.376 353.284 981.376 353.841V358H980.37V353.909C980.37 353.395 980.237 352.994 979.969 352.707C979.702 352.418 979.336 352.273 978.87 352.273C978.549 352.273 978.262 352.342 978.009 352.482C977.759 352.621 977.562 352.824 977.417 353.091C977.272 353.358 977.2 353.682 977.2 354.062ZM985.14 358.153C984.725 358.153 984.348 358.075 984.01 357.919C983.672 357.76 983.404 357.531 983.205 357.233C983.006 356.932 982.907 356.568 982.907 356.142C982.907 355.767 982.98 355.463 983.128 355.23C983.276 354.994 983.473 354.81 983.721 354.676C983.968 354.543 984.24 354.443 984.539 354.378C984.84 354.31 985.142 354.256 985.446 354.216C985.844 354.165 986.167 354.126 986.414 354.101C986.664 354.072 986.846 354.026 986.959 353.96C987.076 353.895 987.134 353.781 987.134 353.619V353.585C987.134 353.165 987.019 352.838 986.789 352.605C986.561 352.372 986.216 352.256 985.753 352.256C985.273 352.256 984.897 352.361 984.624 352.571C984.351 352.781 984.159 353.006 984.049 353.244L983.094 352.903C983.265 352.506 983.492 352.196 983.776 351.974C984.063 351.75 984.375 351.594 984.713 351.506C985.054 351.415 985.39 351.369 985.719 351.369C985.929 351.369 986.171 351.395 986.444 351.446C986.719 351.494 986.985 351.595 987.24 351.749C987.499 351.902 987.713 352.134 987.884 352.443C988.054 352.753 988.14 353.168 988.14 353.688V358H987.134V357.114H987.083C987.015 357.256 986.901 357.408 986.742 357.57C986.583 357.732 986.371 357.869 986.107 357.983C985.843 358.097 985.52 358.153 985.14 358.153ZM985.293 357.25C985.691 357.25 986.026 357.172 986.299 357.016C986.574 356.859 986.782 356.658 986.921 356.411C987.063 356.163 987.134 355.903 987.134 355.631V354.71C987.091 354.761 986.998 354.808 986.853 354.851C986.711 354.891 986.546 354.926 986.358 354.957C986.174 354.986 985.993 355.011 985.817 355.034C985.644 355.054 985.503 355.071 985.395 355.085C985.134 355.119 984.89 355.175 984.662 355.251C984.438 355.325 984.256 355.437 984.117 355.588C983.98 355.736 983.912 355.937 983.912 356.193C983.912 356.543 984.042 356.807 984.3 356.986C984.561 357.162 984.892 357.25 985.293 357.25ZM989.975 358V351.455H990.947V352.477H991.032C991.168 352.128 991.388 351.857 991.692 351.663C991.996 351.467 992.362 351.369 992.788 351.369C993.219 351.369 993.579 351.467 993.866 351.663C994.156 351.857 994.381 352.128 994.543 352.477H994.612C994.779 352.139 995.031 351.871 995.366 351.672C995.701 351.47 996.103 351.369 996.572 351.369C997.157 351.369 997.636 351.553 998.008 351.919C998.38 352.283 998.566 352.849 998.566 353.619V358H997.56V353.619C997.56 353.136 997.428 352.791 997.164 352.584C996.9 352.376 996.589 352.273 996.231 352.273C995.771 352.273 995.414 352.412 995.161 352.69C994.908 352.966 994.782 353.315 994.782 353.739V358H993.759V353.517C993.759 353.145 993.638 352.845 993.397 352.618C993.156 352.388 992.844 352.273 992.464 352.273C992.202 352.273 991.958 352.342 991.731 352.482C991.506 352.621 991.325 352.814 991.185 353.061C991.049 353.305 990.981 353.588 990.981 353.909V358H989.975ZM1003.15 358.136C1002.52 358.136 1001.97 357.997 1001.52 357.719C1001.06 357.438 1000.71 357.045 1000.46 356.543C1000.22 356.037 1000.1 355.449 1000.1 354.778C1000.1 354.108 1000.22 353.517 1000.46 353.006C1000.71 352.491 1001.06 352.091 1001.5 351.804C1001.94 351.514 1002.46 351.369 1003.05 351.369C1003.39 351.369 1003.72 351.426 1004.06 351.54C1004.39 351.653 1004.69 351.838 1004.96 352.094C1005.24 352.347 1005.45 352.682 1005.62 353.099C1005.78 353.517 1005.86 354.031 1005.86 354.642V355.068H1000.81V354.199H1004.84C1004.84 353.83 1004.76 353.5 1004.62 353.21C1004.47 352.92 1004.26 352.692 1003.99 352.524C1003.73 352.357 1003.41 352.273 1003.05 352.273C1002.65 352.273 1002.3 352.372 1002.01 352.571C1001.72 352.767 1001.49 353.023 1001.34 353.338C1001.18 353.653 1001.1 353.991 1001.1 354.352V354.932C1001.1 355.426 1001.19 355.845 1001.36 356.189C1001.53 356.53 1001.77 356.79 1002.08 356.969C1002.39 357.145 1002.74 357.233 1003.15 357.233C1003.41 357.233 1003.65 357.196 1003.87 357.122C1004.08 357.045 1004.27 356.932 1004.42 356.781C1004.58 356.628 1004.7 356.437 1004.79 356.21L1005.76 356.483C1005.65 356.812 1005.48 357.102 1005.24 357.352C1005 357.599 1004.7 357.793 1004.35 357.932C1003.99 358.068 1003.59 358.136 1003.15 358.136Z"
     fill="white"
     id="path1153" />
  <path
     d="M886.2 382.9V366.9L897.8 378.5H891L890.6 378.6L886.2 382.9Z"
     fill="white"
     id="path1155" />
  <path
     d="M895.3 383.6L891.7 385.1L887 374L890.7 372.5L895.3 383.6Z"
     fill="white"
     id="path1157" />
  <path
     d="M890.874 375.519L889.03 376.293L892.127 383.67L893.971 382.896L890.874 375.519Z"
     fill="black"
     id="path1159" />
  <path
     d="M887.2 369.3V380.5L890.2 377.6L890.6 377.5H895.4L887.2 369.3Z"
     fill="black"
     id="path1161" />
  <defs
     id="defs1283">
    <linearGradient
       id="paint0_linear_1548_31560"
       x1="704.301"
       y1="424"
       x2="704.301"
       y2="597.666"
       gradientUnits="userSpaceOnUse">
      <stop
         stop-color="#FF4D00"
         id="stop1163" />
      <stop
         offset="1"
         stop-color="#FF4D00"
         id="stop1165" />
    </linearGradient>
    <radialGradient
       id="paint1_radial_1548_31560"
       cx="0"
       cy="0"
       r="1"
       gradientUnits="userSpaceOnUse"
       gradientTransform="translate(659.802 438.333) rotate(70.8988) scale(135.987 138.884)">
      <stop
         stop-color="white"
         id="stop1168" />
      <stop
         offset="1"
         stop-color="white"
         stop-opacity="0"
         id="stop1170" />
    </radialGradient>
    <linearGradient
       id="paint2_linear_1548_31560"
       x1="43.4301"
       y1="0"
       x2="43.4301"
       y2="86.86"
       gradientUnits="userSpaceOnUse">
      <stop
         stop-color="white"
         id="stop1173" />
      <stop
         offset="1"
         stop-color="white"
         id="stop1175" />
    </linearGradient>
    <radialGradient
       id="paint3_radial_1548_31560"
       cx="0"
       cy="0"
       r="1"
       gradientUnits="userSpaceOnUse"
       gradientTransform="translate(62.1336 25.6776) rotate(121.931) scale(51.5466 51.5467)">
      <stop
         stop-color="#757575"
         id="stop1178" />
      <stop
         offset="1"
         stop-color="#A3A3A3"
         stop-opacity="0"
         id="stop1180" />
    </radialGradient>
    <linearGradient
       id="paint4_linear_1548_31560"
       x1="81.8394"
       y1="0"
       x2="81.8394"
       y2="163.68"
       gradientUnits="userSpaceOnUse">
      <stop
         stop-color="white"
         id="stop1183" />
      <stop
         offset="1"
         stop-color="white"
         id="stop1185" />
    </linearGradient>
    <radialGradient
       id="paint5_radial_1548_31560"
       cx="0"
       cy="0"
       r="1"
       gradientUnits="userSpaceOnUse"
       gradientTransform="translate(117.084 48.3872) rotate(121.93) scale(97.1348 97.1345)">
      <stop
         stop-color="#757575"
         id="stop1188" />
      <stop
         offset="1"
         stop-color="#A3A3A3"
         stop-opacity="0"
         id="stop1190" />
    </radialGradient>
    <linearGradient
       id="paint6_linear_1548_31560"
       x1="43.4301"
       y1="0"
       x2="43.4301"
       y2="86.86"
       gradientUnits="userSpaceOnUse">
      <stop
         stop-color="white"
         id="stop1193" />
      <stop
         offset="1"
         stop-color="white"
         id="stop1195" />
    </linearGradient>
    <radialGradient
       id="paint7_radial_1548_31560"
       cx="0"
       cy="0"
       r="1"
       gradientUnits="userSpaceOnUse"
       gradientTransform="translate(62.1336 25.6776) rotate(121.931) scale(51.5466 51.5467)">
      <stop
         stop-color="#757575"
         id="stop1198" />
      <stop
         offset="1"
         stop-color="#A3A3A3"
         stop-opacity="0"
         id="stop1200" />
    </radialGradient>
    <linearGradient
       id="paint8_linear_1548_31560"
       x1="127.105"
       y1="0"
       x2="127.105"
       y2="254.209"
       gradientUnits="userSpaceOnUse">
      <stop
         stop-color="white"
         id="stop1203" />
      <stop
         offset="1"
         stop-color="white"
         id="stop1205" />
    </linearGradient>
    <radialGradient
       id="paint9_radial_1548_31560"
       cx="0"
       cy="0"
       r="1"
       gradientUnits="userSpaceOnUse"
       gradientTransform="translate(181.844 75.1494) rotate(121.931) scale(150.859 150.859)">
      <stop
         stop-color="#757575"
         id="stop1208" />
      <stop
         offset="1"
         stop-color="#A3A3A3"
         stop-opacity="0"
         id="stop1210" />
    </radialGradient>
    <linearGradient
       id="paint10_linear_1548_31560"
       x1="173.5"
       y1="0"
       x2="173.5"
       y2="347"
       gradientUnits="userSpaceOnUse">
      <stop
         stop-color="white"
         id="stop1213" />
      <stop
         offset="1"
         stop-color="white"
         id="stop1215" />
    </linearGradient>
    <radialGradient
       id="paint11_radial_1548_31560"
       cx="0"
       cy="0"
       r="1"
       gradientUnits="userSpaceOnUse"
       gradientTransform="translate(248.219 102.58) rotate(121.931) scale(205.925 205.925)">
      <stop
         stop-color="#757575"
         id="stop1218" />
      <stop
         offset="1"
         stop-color="#A3A3A3"
         stop-opacity="0"
         id="stop1220" />
    </radialGradient>
    <linearGradient
       id="paint12_linear_1548_31560"
       x1="105.094"
       y1="0"
       x2="105.094"
       y2="210.19"
       gradientUnits="userSpaceOnUse">
      <stop
         stop-color="white"
         id="stop1223" />
      <stop
         offset="1"
         stop-color="white"
         id="stop1225" />
    </linearGradient>
    <radialGradient
       id="paint13_radial_1548_31560"
       cx="0"
       cy="0"
       r="1"
       gradientUnits="userSpaceOnUse"
       gradientTransform="translate(150.354 62.1365) rotate(121.931) scale(124.736 124.736)">
      <stop
         stop-color="#757575"
         id="stop1228" />
      <stop
         offset="1"
         stop-color="#A3A3A3"
         stop-opacity="0"
         id="stop1230" />
    </radialGradient>
    <linearGradient
       id="paint14_linear_1548_31560"
       x1="124.654"
       y1="0"
       x2="124.654"
       y2="249.31"
       gradientUnits="userSpaceOnUse">
      <stop
         stop-color="white"
         id="stop1233" />
      <stop
         offset="1"
         stop-color="white"
         id="stop1235" />
    </linearGradient>
    <radialGradient
       id="paint15_radial_1548_31560"
       cx="0"
       cy="0"
       r="1"
       gradientUnits="userSpaceOnUse"
       gradientTransform="translate(178.338 73.7012) rotate(121.931) scale(147.951 147.951)">
      <stop
         stop-color="#757575"
         id="stop1238" />
      <stop
         offset="1"
         stop-color="#A3A3A3"
         stop-opacity="0"
         id="stop1240" />
    </radialGradient>
    <linearGradient
       id="paint16_linear_1548_31560"
       x1="33.1528"
       y1="0"
       x2="33.1528"
       y2="66.31"
       gradientUnits="userSpaceOnUse">
      <stop
         stop-color="white"
         id="stop1243" />
      <stop
         offset="1"
         stop-color="white"
         id="stop1245" />
    </linearGradient>
    <radialGradient
       id="paint17_radial_1548_31560"
       cx="0"
       cy="0"
       r="1"
       gradientUnits="userSpaceOnUse"
       gradientTransform="translate(47.4303 19.6026) rotate(121.929) scale(39.3506 39.3494)">
      <stop
         stop-color="#757575"
         id="stop1248" />
      <stop
         offset="1"
         stop-color="#A3A3A3"
         stop-opacity="0"
         id="stop1250" />
    </radialGradient>
    <linearGradient
       id="paint18_linear_1548_31560"
       x1="78.2405"
       y1="0"
       x2="78.2405"
       y2="156.48"
       gradientUnits="userSpaceOnUse">
      <stop
         stop-color="white"
         id="stop1253" />
      <stop
         offset="1"
         stop-color="white"
         id="stop1255" />
    </linearGradient>
    <radialGradient
       id="paint19_radial_1548_31560"
       cx="0"
       cy="0"
       r="1"
       gradientUnits="userSpaceOnUse"
       gradientTransform="translate(111.935 46.2587) rotate(121.931) scale(92.8624 92.8627)">
      <stop
         stop-color="#757575"
         id="stop1258" />
      <stop
         offset="1"
         stop-color="#A3A3A3"
         stop-opacity="0"
         id="stop1260" />
    </radialGradient>
    <linearGradient
       id="paint20_linear_1548_31560"
       x1="88.1864"
       y1="0"
       x2="88.1864"
       y2="176.37"
       gradientUnits="userSpaceOnUse">
      <stop
         stop-color="white"
         id="stop1263" />
      <stop
         offset="1"
         stop-color="white"
         id="stop1265" />
    </linearGradient>
    <radialGradient
       id="paint21_radial_1548_31560"
       cx="0"
       cy="0"
       r="1"
       gradientUnits="userSpaceOnUse"
       gradientTransform="translate(126.164 52.1386) rotate(121.931) scale(104.666 104.667)">
      <stop
         stop-color="#757575"
         id="stop1268" />
      <stop
         offset="1"
         stop-color="#A3A3A3"
         stop-opacity="0"
         id="stop1270" />
    </radialGradient>
    <linearGradient
       id="paint22_linear_1548_31560"
       x1="27.8483"
       y1="0"
       x2="27.8483"
       y2="55.7"
       gradientUnits="userSpaceOnUse">
      <stop
         stop-color="white"
         id="stop1273" />
      <stop
         offset="1"
         stop-color="white"
         id="stop1275" />
    </linearGradient>
    <radialGradient
       id="paint23_radial_1548_31560"
       cx="0"
       cy="0"
       r="1"
       gradientUnits="userSpaceOnUse"
       gradientTransform="translate(39.8414 16.4661) rotate(121.929) scale(33.0543 33.0534)">
      <stop
         stop-color="#757575"
         id="stop1278" />
      <stop
         offset="1"
         stop-color="#A3A3A3"
         stop-opacity="0"
         id="stop1280" />
    </radialGradient>
  </defs>
</svg>
