<svg width="428" height="507" viewBox="0 0 428 507" fill="none" xmlns="http://www.w3.org/2000/svg">
<path d="M538 495.039V273.768C538 239.386 531.184 205.342 517.942 173.578C504.7 141.814 485.291 112.952 460.823 88.6407C436.354 64.3294 407.306 45.0447 375.337 31.8875C343.368 18.7304 309.103 11.9585 274.5 11.9585C239.897 11.9585 205.632 18.7304 173.663 31.8875C141.694 45.0447 112.646 64.3294 88.1773 88.6407C63.7091 112.952 44.2998 141.814 31.0577 173.578C17.8156 205.342 11 239.386 11 273.768V473.224C11 485.274 20.8311 495.042 32.9583 495.042C45.0856 495.042 54.9167 485.274 54.9167 473.224V273.983C54.9167 245.304 60.5964 216.906 71.6314 190.41C76.7117 178.212 82.8813 166.527 90.05 155.489M213.016 273.767C213.016 265.745 214.606 257.801 217.696 250.39C220.786 242.978 225.315 236.244 231.024 230.571C236.733 224.898 243.511 220.399 250.971 217.329C258.43 214.259 266.425 212.678 274.499 212.678C282.574 212.678 290.569 214.258 298.028 217.328C305.488 220.398 312.265 224.898 317.975 230.571C323.684 236.244 328.213 242.978 331.303 250.39C334.392 257.801 335.983 265.745 335.983 273.767M169.006 230.35C163.268 244.114 160.314 258.867 160.314 273.766V291.22M193.758 193.544C204.361 183.009 216.948 174.652 230.802 168.951C244.655 163.249 259.503 160.315 274.498 160.315C289.493 160.315 304.341 163.249 318.194 168.951C332.047 174.652 344.635 183.009 355.238 193.544M379.989 230.35C385.728 244.114 388.681 258.867 388.681 273.766V291.22M107.617 370.049V273.771C107.617 251.996 111.933 230.434 120.32 210.317C128.707 190.199 140.999 171.92 156.496 156.523C171.992 141.126 190.389 128.913 210.637 120.58C230.884 112.247 252.585 107.958 274.5 107.958C296.415 107.958 318.116 112.247 338.363 120.58C358.611 128.913 377.008 141.126 392.504 156.523C408.001 171.92 420.293 190.199 428.68 210.317C437.067 230.434 441.383 251.996 441.383 273.771V343.868C441.383 358.327 453.181 370.049 467.733 370.049C482.286 370.049 494.083 358.327 494.083 343.868V273.983C494.083 230.561 488.404 216.906 477.368 190.41C466.333 163.914 450.159 139.839 429.769 119.56C409.379 99.2811 385.172 83.1948 358.531 72.2199C331.89 61.2449 303.336 55.5961 274.5 55.5961C245.664 55.5961 217.11 61.2449 190.469 72.2199" stroke="rgb(255,99,31)" stroke-width="21.9583" stroke-linecap="round" stroke-linejoin="round"/>
</svg>
