<svg width="412" height="444" viewBox="0 0 412 444" fill="none" xmlns="http://www.w3.org/2000/svg">
<g filter="url(#filter0_d_1649_31607)">
<rect x="54" y="39" width="303.333" height="336" rx="4" fill="white" shape-rendering="crispEdges"/>
<path d="M81.0376 61.3636V73H79.674L73.3331 63.8636H73.2194V73H71.8103V61.3636H73.174L79.5376 70.5227H79.6512V61.3636H81.0376ZM87.1745 73.1818C86.3336 73.1818 85.6082 72.9962 84.9984 72.625C84.3923 72.25 83.9245 71.7273 83.5949 71.0568C83.2692 70.3826 83.1063 69.5985 83.1063 68.7045C83.1063 67.8106 83.2692 67.0227 83.5949 66.3409C83.9245 65.6553 84.3828 65.1212 84.9699 64.7386C85.5609 64.3523 86.2502 64.1591 87.0381 64.1591C87.4927 64.1591 87.9415 64.2348 88.3847 64.3864C88.8279 64.5379 89.2313 64.7841 89.5949 65.125C89.9586 65.4621 90.2484 65.9091 90.4643 66.4659C90.6802 67.0227 90.7881 67.7083 90.7881 68.5227V69.0909H84.0609V67.9318H89.4245C89.4245 67.4394 89.326 67 89.129 66.6136C88.9359 66.2273 88.6593 65.9223 88.2995 65.6989C87.9434 65.4754 87.523 65.3636 87.0381 65.3636C86.504 65.3636 86.0419 65.4962 85.6518 65.7614C85.2654 66.0227 84.968 66.3636 84.7597 66.7841C84.5514 67.2045 84.4472 67.6553 84.4472 68.1364V68.9091C84.4472 69.5682 84.5609 70.1269 84.7881 70.5852C85.0192 71.0398 85.3393 71.3864 85.7484 71.625C86.1574 71.8598 86.6328 71.9773 87.1745 71.9773C87.5268 71.9773 87.8449 71.928 88.129 71.8295C88.4169 71.7273 88.665 71.5758 88.8734 71.375C89.0817 71.1705 89.2427 70.9167 89.3563 70.6136L90.6518 70.9773C90.5154 71.4167 90.2862 71.803 89.9643 72.1364C89.6423 72.4659 89.2446 72.7235 88.7711 72.9091C88.2976 73.0909 87.7654 73.1818 87.1745 73.1818ZM94.6452 73L91.9861 64.2727H93.3952L95.2815 70.9545H95.3724L97.2361 64.2727H98.6679L100.509 70.9318H100.6L102.486 64.2727H103.895L101.236 73H99.9179L98.0088 66.2955H97.8724L95.9634 73H94.6452ZM112.416 73.2045C111.863 73.2045 111.361 73.1004 110.91 72.892C110.46 72.6799 110.102 72.375 109.837 71.9773C109.571 71.5758 109.439 71.0909 109.439 70.5227C109.439 70.0227 109.537 69.6174 109.734 69.3068C109.931 68.9924 110.194 68.7462 110.524 68.5682C110.854 68.3902 111.217 68.2576 111.615 68.1705C112.016 68.0795 112.42 68.0076 112.825 67.9545C113.355 67.8864 113.785 67.8352 114.115 67.8011C114.448 67.7633 114.691 67.7008 114.842 67.6136C114.998 67.5265 115.075 67.375 115.075 67.1591V67.1136C115.075 66.553 114.922 66.1174 114.615 65.8068C114.312 65.4962 113.852 65.3409 113.234 65.3409C112.594 65.3409 112.092 65.4811 111.729 65.7614C111.365 66.0417 111.109 66.3409 110.962 66.6591L109.689 66.2045C109.916 65.6742 110.219 65.2614 110.598 64.9659C110.98 64.6667 111.397 64.4583 111.848 64.3409C112.302 64.2197 112.749 64.1591 113.189 64.1591C113.469 64.1591 113.791 64.1932 114.155 64.2614C114.522 64.3258 114.876 64.4602 115.217 64.6648C115.562 64.8693 115.848 65.178 116.075 65.5909C116.302 66.0038 116.416 66.5568 116.416 67.25V73H115.075V71.8182H115.007C114.916 72.0076 114.765 72.2102 114.552 72.4261C114.34 72.642 114.058 72.8258 113.706 72.9773C113.354 73.1288 112.924 73.2045 112.416 73.2045ZM112.621 72C113.151 72 113.598 71.8958 113.962 71.6875C114.329 71.4792 114.605 71.2102 114.791 70.8807C114.98 70.5511 115.075 70.2045 115.075 69.8409V68.6136C115.018 68.6818 114.893 68.7443 114.7 68.8011C114.511 68.8542 114.291 68.9015 114.041 68.9432C113.795 68.9811 113.554 69.0152 113.319 69.0455C113.088 69.072 112.901 69.0947 112.757 69.1136C112.409 69.1591 112.083 69.233 111.78 69.3352C111.48 69.4337 111.238 69.5833 111.052 69.7841C110.871 69.9811 110.78 70.25 110.78 70.5909C110.78 71.0568 110.952 71.4091 111.297 71.6477C111.645 71.8826 112.087 72 112.621 72ZM118.704 76.2727V64.2727H119.999V65.6591H120.158C120.257 65.5076 120.393 65.3144 120.567 65.0795C120.745 64.8409 120.999 64.6288 121.329 64.4432C121.662 64.2538 122.113 64.1591 122.681 64.1591C123.416 64.1591 124.063 64.3428 124.624 64.7102C125.185 65.0777 125.622 65.5985 125.936 66.2727C126.251 66.947 126.408 67.7424 126.408 68.6591C126.408 69.5833 126.251 70.3845 125.936 71.0625C125.622 71.7367 125.186 72.2595 124.63 72.6307C124.073 72.9981 123.431 73.1818 122.704 73.1818C122.143 73.1818 121.694 73.089 121.357 72.9034C121.02 72.714 120.76 72.5 120.579 72.2614C120.397 72.0189 120.257 71.8182 120.158 71.6591H120.044V76.2727H118.704ZM120.022 68.6364C120.022 69.2955 120.118 69.8769 120.311 70.3807C120.505 70.8807 120.787 71.2727 121.158 71.5568C121.529 71.8371 121.984 71.9773 122.522 71.9773C123.082 71.9773 123.55 71.8295 123.925 71.5341C124.304 71.2348 124.588 70.8333 124.777 70.3295C124.971 69.822 125.067 69.2576 125.067 68.6364C125.067 68.0227 124.972 67.4697 124.783 66.9773C124.597 66.4811 124.315 66.089 123.936 65.8011C123.561 65.5095 123.09 65.3636 122.522 65.3636C121.976 65.3636 121.518 65.5019 121.147 65.7784C120.775 66.0511 120.495 66.4337 120.306 66.9261C120.116 67.4148 120.022 67.9848 120.022 68.6364ZM128.294 76.2727V64.2727H129.589V65.6591H129.748C129.847 65.5076 129.983 65.3144 130.157 65.0795C130.335 64.8409 130.589 64.6288 130.919 64.4432C131.252 64.2538 131.703 64.1591 132.271 64.1591C133.006 64.1591 133.653 64.3428 134.214 64.7102C134.775 65.0777 135.212 65.5985 135.526 66.2727C135.841 66.947 135.998 67.7424 135.998 68.6591C135.998 69.5833 135.841 70.3845 135.526 71.0625C135.212 71.7367 134.776 72.2595 134.22 72.6307C133.663 72.9981 133.021 73.1818 132.294 73.1818C131.733 73.1818 131.284 73.089 130.947 72.9034C130.61 72.714 130.35 72.5 130.169 72.2614C129.987 72.0189 129.847 71.8182 129.748 71.6591H129.634V76.2727H128.294ZM129.612 68.6364C129.612 69.2955 129.708 69.8769 129.901 70.3807C130.095 70.8807 130.377 71.2727 130.748 71.5568C131.119 71.8371 131.574 71.9773 132.112 71.9773C132.672 71.9773 133.14 71.8295 133.515 71.5341C133.894 71.2348 134.178 70.8333 134.367 70.3295C134.561 69.822 134.657 69.2576 134.657 68.6364C134.657 68.0227 134.562 67.4697 134.373 66.9773C134.187 66.4811 133.905 66.089 133.526 65.8011C133.151 65.5095 132.68 65.3636 132.112 65.3636C131.566 65.3636 131.108 65.5019 130.737 65.7784C130.365 66.0511 130.085 66.4337 129.896 66.9261C129.706 67.4148 129.612 67.9848 129.612 68.6364ZM139.224 61.3636V73H137.884V61.3636H139.224ZM141.52 73V64.2727H142.861V73H141.52ZM142.202 62.8182C141.941 62.8182 141.715 62.7292 141.526 62.5511C141.34 62.3731 141.248 62.1591 141.248 61.9091C141.248 61.6591 141.34 61.4451 141.526 61.267C141.715 61.089 141.941 61 142.202 61C142.464 61 142.687 61.089 142.873 61.267C143.062 61.4451 143.157 61.6591 143.157 61.9091C143.157 62.1591 143.062 62.3731 142.873 62.5511C142.687 62.7292 142.464 62.8182 142.202 62.8182ZM148.703 73.1818C147.885 73.1818 147.18 72.9886 146.589 72.6023C145.998 72.2159 145.544 71.6837 145.225 71.0057C144.907 70.3277 144.748 69.553 144.748 68.6818C144.748 67.7955 144.911 67.0133 145.237 66.3352C145.566 65.6534 146.025 65.1212 146.612 64.7386C147.203 64.3523 147.892 64.1591 148.68 64.1591C149.294 64.1591 149.847 64.2727 150.339 64.5C150.832 64.7273 151.235 65.0455 151.549 65.4545C151.864 65.8636 152.059 66.3409 152.135 66.8864H150.794C150.691 66.4886 150.464 66.1364 150.112 65.8295C149.763 65.5189 149.294 65.3636 148.703 65.3636C148.18 65.3636 147.722 65.5 147.328 65.7727C146.938 66.0417 146.633 66.4223 146.413 66.9148C146.197 67.4034 146.089 67.9773 146.089 68.6364C146.089 69.3106 146.195 69.8977 146.407 70.3977C146.623 70.8977 146.926 71.286 147.316 71.5625C147.71 71.839 148.172 71.9773 148.703 71.9773C149.051 71.9773 149.367 71.9167 149.652 71.7955C149.936 71.6742 150.176 71.5 150.373 71.2727C150.57 71.0455 150.71 70.7727 150.794 70.4545H152.135C152.059 70.9697 151.871 71.4337 151.572 71.8466C151.277 72.2557 150.885 72.5814 150.396 72.8239C149.911 73.0625 149.347 73.1818 148.703 73.1818ZM156.503 73.2045C155.95 73.2045 155.448 73.1004 154.997 72.892C154.547 72.6799 154.189 72.375 153.923 71.9773C153.658 71.5758 153.526 71.0909 153.526 70.5227C153.526 70.0227 153.624 69.6174 153.821 69.3068C154.018 68.9924 154.281 68.7462 154.611 68.5682C154.94 68.3902 155.304 68.2576 155.702 68.1705C156.103 68.0795 156.507 68.0076 156.912 67.9545C157.442 67.8864 157.872 67.8352 158.202 67.8011C158.535 67.7633 158.778 67.7008 158.929 67.6136C159.084 67.5265 159.162 67.375 159.162 67.1591V67.1136C159.162 66.553 159.009 66.1174 158.702 65.8068C158.399 65.4962 157.939 65.3409 157.321 65.3409C156.681 65.3409 156.179 65.4811 155.815 65.7614C155.452 66.0417 155.196 66.3409 155.048 66.6591L153.776 66.2045C154.003 65.6742 154.306 65.2614 154.685 64.9659C155.067 64.6667 155.484 64.4583 155.935 64.3409C156.389 64.2197 156.836 64.1591 157.276 64.1591C157.556 64.1591 157.878 64.1932 158.242 64.2614C158.609 64.3258 158.963 64.4602 159.304 64.6648C159.649 64.8693 159.935 65.178 160.162 65.5909C160.389 66.0038 160.503 66.5568 160.503 67.25V73H159.162V71.8182H159.094C159.003 72.0076 158.851 72.2102 158.639 72.4261C158.427 72.642 158.145 72.8258 157.793 72.9773C157.44 73.1288 157.011 73.2045 156.503 73.2045ZM156.708 72C157.238 72 157.685 71.8958 158.048 71.6875C158.416 71.4792 158.692 71.2102 158.878 70.8807C159.067 70.5511 159.162 70.2045 159.162 69.8409V68.6136C159.105 68.6818 158.98 68.7443 158.787 68.8011C158.598 68.8542 158.378 68.9015 158.128 68.9432C157.882 68.9811 157.641 69.0152 157.406 69.0455C157.175 69.072 156.988 69.0947 156.844 69.1136C156.495 69.1591 156.17 69.233 155.867 69.3352C155.567 69.4337 155.325 69.5833 155.139 69.7841C154.958 69.9811 154.867 70.25 154.867 70.5909C154.867 71.0568 155.039 71.4091 155.384 71.6477C155.732 71.8826 156.173 72 156.708 72ZM166.586 64.2727V65.4091H162.063V64.2727H166.586ZM163.381 62.1818H164.722V70.5C164.722 70.8788 164.777 71.1629 164.887 71.3523C165.001 71.5379 165.145 71.6629 165.319 71.7273C165.497 71.7879 165.684 71.8182 165.881 71.8182C166.029 71.8182 166.15 71.8106 166.245 71.7955C166.34 71.7765 166.415 71.7614 166.472 71.75L166.745 72.9545C166.654 72.9886 166.527 73.0227 166.364 73.0568C166.201 73.0947 165.995 73.1136 165.745 73.1136C165.366 73.1136 164.995 73.0322 164.631 72.8693C164.271 72.7064 163.972 72.4583 163.734 72.125C163.499 71.7917 163.381 71.3712 163.381 70.8636V62.1818ZM168.443 73V64.2727H169.784V73H168.443ZM169.125 62.8182C168.863 62.8182 168.638 62.7292 168.449 62.5511C168.263 62.3731 168.17 62.1591 168.17 61.9091C168.17 61.6591 168.263 61.4451 168.449 61.267C168.638 61.089 168.863 61 169.125 61C169.386 61 169.61 61.089 169.795 61.267C169.985 61.4451 170.079 61.6591 170.079 61.9091C170.079 62.1591 169.985 62.3731 169.795 62.5511C169.61 62.7292 169.386 62.8182 169.125 62.8182ZM175.625 73.1818C174.837 73.1818 174.146 72.9943 173.551 72.6193C172.96 72.2443 172.498 71.7197 172.165 71.0455C171.835 70.3712 171.671 69.5833 171.671 68.6818C171.671 67.7727 171.835 66.9792 172.165 66.3011C172.498 65.6231 172.96 65.0966 173.551 64.7216C174.146 64.3466 174.837 64.1591 175.625 64.1591C176.413 64.1591 177.102 64.3466 177.693 64.7216C178.288 65.0966 178.75 65.6231 179.08 66.3011C179.413 66.9792 179.58 67.7727 179.58 68.6818C179.58 69.5833 179.413 70.3712 179.08 71.0455C178.75 71.7197 178.288 72.2443 177.693 72.6193C177.102 72.9943 176.413 73.1818 175.625 73.1818ZM175.625 71.9773C176.224 71.9773 176.716 71.8239 177.102 71.517C177.489 71.2102 177.775 70.8068 177.96 70.3068C178.146 69.8068 178.239 69.2652 178.239 68.6818C178.239 68.0985 178.146 67.5549 177.96 67.0511C177.775 66.5473 177.489 66.1402 177.102 65.8295C176.716 65.5189 176.224 65.3636 175.625 65.3636C175.027 65.3636 174.534 65.5189 174.148 65.8295C173.762 66.1402 173.476 66.5473 173.29 67.0511C173.104 67.5549 173.012 68.0985 173.012 68.6818C173.012 69.2652 173.104 69.8068 173.29 70.3068C173.476 70.8068 173.762 71.2102 174.148 71.517C174.534 71.8239 175.027 71.9773 175.625 71.9773ZM182.808 67.75V73H181.467V64.2727H182.762V65.6364H182.876C183.08 65.1932 183.391 64.8371 183.808 64.5682C184.224 64.2955 184.762 64.1591 185.421 64.1591C186.012 64.1591 186.529 64.2803 186.972 64.5227C187.416 64.7614 187.76 65.125 188.006 65.6136C188.253 66.0985 188.376 66.7121 188.376 67.4545V73H187.035V67.5455C187.035 66.8598 186.857 66.3258 186.501 65.9432C186.145 65.5568 185.656 65.3636 185.035 65.3636C184.607 65.3636 184.224 65.4564 183.887 65.642C183.554 65.8277 183.291 66.0985 183.097 66.4545C182.904 66.8106 182.808 67.2424 182.808 67.75Z" fill="black"/>
<path d="M337.333 63L329.333 71" stroke="#666666" stroke-width="1.5" stroke-linecap="round" stroke-linejoin="round"/>
<path d="M329.333 63L337.333 71" stroke="#666666" stroke-width="1.5" stroke-linecap="round" stroke-linejoin="round"/>
<line x1="70" y1="94.5" x2="341.333" y2="94.5" stroke="black" stroke-opacity="0.1"/>
<path d="M77.7727 120.273C77.7045 119.697 77.428 119.25 76.9432 118.932C76.4583 118.614 75.8636 118.455 75.1591 118.455C74.6439 118.455 74.1932 118.538 73.8068 118.705C73.4242 118.871 73.125 119.1 72.9091 119.392C72.697 119.684 72.5909 120.015 72.5909 120.386C72.5909 120.697 72.6648 120.964 72.8125 121.188C72.964 121.407 73.1572 121.591 73.392 121.739C73.6269 121.883 73.8731 122.002 74.1307 122.097C74.3883 122.187 74.625 122.261 74.8409 122.318L76.0227 122.636C76.3258 122.716 76.6629 122.826 77.0341 122.966C77.4091 123.106 77.767 123.297 78.108 123.54C78.4527 123.778 78.7367 124.085 78.9602 124.46C79.1837 124.835 79.2955 125.295 79.2955 125.841C79.2955 126.47 79.1307 127.038 78.8011 127.545C78.4754 128.053 77.9981 128.456 77.3693 128.756C76.7443 129.055 75.9848 129.205 75.0909 129.205C74.2576 129.205 73.536 129.07 72.9261 128.801C72.3201 128.532 71.8428 128.157 71.4943 127.676C71.1496 127.195 70.9545 126.636 70.9091 126H72.3636C72.4015 126.439 72.5492 126.803 72.8068 127.091C73.0682 127.375 73.3977 127.587 73.7955 127.727C74.197 127.864 74.6288 127.932 75.0909 127.932C75.6288 127.932 76.1117 127.845 76.5398 127.67C76.9678 127.492 77.3068 127.246 77.5568 126.932C77.8068 126.614 77.9318 126.242 77.9318 125.818C77.9318 125.432 77.8239 125.117 77.608 124.875C77.392 124.633 77.108 124.436 76.7557 124.284C76.4034 124.133 76.0227 124 75.6136 123.886L74.1818 123.477C73.2727 123.216 72.553 122.843 72.0227 122.358C71.4924 121.873 71.2273 121.239 71.2273 120.455C71.2273 119.803 71.4034 119.235 71.7557 118.75C72.1117 118.261 72.589 117.883 73.1875 117.614C73.7898 117.341 74.4621 117.205 75.2045 117.205C75.9545 117.205 76.6212 117.339 77.2045 117.608C77.7879 117.873 78.25 118.237 78.5909 118.699C78.9356 119.161 79.1174 119.686 79.1364 120.273H77.7727ZM86.7704 125.432V120.273H88.1113V129H86.7704V127.523H86.6795C86.4749 127.966 86.1568 128.343 85.7249 128.653C85.2931 128.96 84.7477 129.114 84.0886 129.114C83.5431 129.114 83.0583 128.994 82.634 128.756C82.2098 128.513 81.8765 128.15 81.634 127.665C81.3916 127.176 81.2704 126.561 81.2704 125.818V120.273H82.6113V125.727C82.6113 126.364 82.7893 126.871 83.1454 127.25C83.5052 127.629 83.9636 127.818 84.5204 127.818C84.8537 127.818 85.1927 127.733 85.5374 127.562C85.8859 127.392 86.1776 127.131 86.4124 126.778C86.6511 126.426 86.7704 125.977 86.7704 125.432ZM90.5891 129V117.364H91.93V121.659H92.0436C92.1421 121.508 92.2785 121.314 92.4527 121.08C92.6308 120.841 92.8845 120.629 93.2141 120.443C93.5474 120.254 93.9982 120.159 94.5664 120.159C95.3012 120.159 95.9489 120.343 96.5095 120.71C97.0702 121.078 97.5077 121.598 97.822 122.273C98.1364 122.947 98.2936 123.742 98.2936 124.659C98.2936 125.583 98.1364 126.384 97.822 127.062C97.5077 127.737 97.072 128.259 96.5152 128.631C95.9584 128.998 95.3164 129.182 94.5891 129.182C94.0285 129.182 93.5796 129.089 93.2425 128.903C92.9054 128.714 92.6459 128.5 92.4641 128.261C92.2823 128.019 92.1421 127.818 92.0436 127.659H91.8845V129H90.5891ZM91.9073 124.636C91.9073 125.295 92.0039 125.877 92.197 126.381C92.3902 126.881 92.6724 127.273 93.0436 127.557C93.4148 127.837 93.8694 127.977 94.4073 127.977C94.9679 127.977 95.4357 127.83 95.8107 127.534C96.1895 127.235 96.4736 126.833 96.663 126.33C96.8561 125.822 96.9527 125.258 96.9527 124.636C96.9527 124.023 96.858 123.47 96.6686 122.977C96.483 122.481 96.2008 122.089 95.822 121.801C95.447 121.509 94.9755 121.364 94.4073 121.364C93.8618 121.364 93.4035 121.502 93.0323 121.778C92.6611 122.051 92.3808 122.434 92.1914 122.926C92.002 123.415 91.9073 123.985 91.9073 124.636ZM108.298 129H104.707V117.364H108.457C109.585 117.364 110.551 117.597 111.354 118.062C112.157 118.525 112.773 119.189 113.201 120.057C113.629 120.92 113.843 121.955 113.843 123.159C113.843 124.371 113.627 125.415 113.195 126.29C112.763 127.161 112.135 127.831 111.309 128.301C110.483 128.767 109.479 129 108.298 129ZM106.116 127.75H108.207C109.169 127.75 109.966 127.564 110.599 127.193C111.231 126.822 111.703 126.294 112.013 125.608C112.324 124.922 112.479 124.106 112.479 123.159C112.479 122.22 112.326 121.411 112.019 120.733C111.712 120.051 111.254 119.528 110.644 119.165C110.034 118.797 109.275 118.614 108.366 118.614H106.116V127.75ZM119.41 129.182C118.622 129.182 117.931 128.994 117.336 128.619C116.745 128.244 116.283 127.72 115.95 127.045C115.62 126.371 115.456 125.583 115.456 124.682C115.456 123.773 115.62 122.979 115.95 122.301C116.283 121.623 116.745 121.097 117.336 120.722C117.931 120.347 118.622 120.159 119.41 120.159C120.198 120.159 120.888 120.347 121.478 120.722C122.073 121.097 122.535 121.623 122.865 122.301C123.198 122.979 123.365 123.773 123.365 124.682C123.365 125.583 123.198 126.371 122.865 127.045C122.535 127.72 122.073 128.244 121.478 128.619C120.888 128.994 120.198 129.182 119.41 129.182ZM119.41 127.977C120.009 127.977 120.501 127.824 120.888 127.517C121.274 127.21 121.56 126.807 121.745 126.307C121.931 125.807 122.024 125.265 122.024 124.682C122.024 124.098 121.931 123.555 121.745 123.051C121.56 122.547 121.274 122.14 120.888 121.83C120.501 121.519 120.009 121.364 119.41 121.364C118.812 121.364 118.319 121.519 117.933 121.83C117.547 122.14 117.261 122.547 117.075 123.051C116.889 123.555 116.797 124.098 116.797 124.682C116.797 125.265 116.889 125.807 117.075 126.307C117.261 126.807 117.547 127.21 117.933 127.517C118.319 127.824 118.812 127.977 119.41 127.977ZM125.252 129V120.273H126.547V121.636H126.661C126.843 121.17 127.136 120.809 127.541 120.551C127.947 120.29 128.433 120.159 129.002 120.159C129.577 120.159 130.057 120.29 130.439 120.551C130.826 120.809 131.127 121.17 131.343 121.636H131.433C131.657 121.186 131.992 120.828 132.439 120.562C132.886 120.294 133.422 120.159 134.047 120.159C134.827 120.159 135.466 120.403 135.962 120.892C136.458 121.377 136.706 122.133 136.706 123.159V129H135.365V123.159C135.365 122.515 135.189 122.055 134.837 121.778C134.485 121.502 134.07 121.364 133.593 121.364C132.979 121.364 132.504 121.549 132.166 121.92C131.829 122.288 131.661 122.754 131.661 123.318V129H130.297V123.023C130.297 122.527 130.136 122.127 129.814 121.824C129.492 121.517 129.077 121.364 128.57 121.364C128.221 121.364 127.896 121.456 127.593 121.642C127.293 121.828 127.051 122.085 126.865 122.415C126.683 122.741 126.593 123.117 126.593 123.545V129H125.252ZM141.566 129.205C141.013 129.205 140.511 129.1 140.06 128.892C139.61 128.68 139.252 128.375 138.987 127.977C138.721 127.576 138.589 127.091 138.589 126.523C138.589 126.023 138.687 125.617 138.884 125.307C139.081 124.992 139.344 124.746 139.674 124.568C140.004 124.39 140.367 124.258 140.765 124.17C141.166 124.08 141.57 124.008 141.975 123.955C142.505 123.886 142.935 123.835 143.265 123.801C143.598 123.763 143.841 123.701 143.992 123.614C144.148 123.527 144.225 123.375 144.225 123.159V123.114C144.225 122.553 144.072 122.117 143.765 121.807C143.462 121.496 143.002 121.341 142.384 121.341C141.744 121.341 141.242 121.481 140.879 121.761C140.515 122.042 140.259 122.341 140.112 122.659L138.839 122.205C139.066 121.674 139.369 121.261 139.748 120.966C140.13 120.667 140.547 120.458 140.998 120.341C141.452 120.22 141.899 120.159 142.339 120.159C142.619 120.159 142.941 120.193 143.305 120.261C143.672 120.326 144.026 120.46 144.367 120.665C144.712 120.869 144.998 121.178 145.225 121.591C145.452 122.004 145.566 122.557 145.566 123.25V129H144.225V127.818H144.157C144.066 128.008 143.915 128.21 143.702 128.426C143.49 128.642 143.208 128.826 142.856 128.977C142.504 129.129 142.074 129.205 141.566 129.205ZM141.771 128C142.301 128 142.748 127.896 143.112 127.688C143.479 127.479 143.755 127.21 143.941 126.881C144.13 126.551 144.225 126.205 144.225 125.841V124.614C144.168 124.682 144.043 124.744 143.85 124.801C143.661 124.854 143.441 124.902 143.191 124.943C142.945 124.981 142.704 125.015 142.469 125.045C142.238 125.072 142.051 125.095 141.907 125.114C141.559 125.159 141.233 125.233 140.93 125.335C140.63 125.434 140.388 125.583 140.202 125.784C140.021 125.981 139.93 126.25 139.93 126.591C139.93 127.057 140.102 127.409 140.447 127.648C140.795 127.883 141.237 128 141.771 128ZM147.854 129V120.273H149.194V129H147.854ZM148.535 118.818C148.274 118.818 148.049 118.729 147.859 118.551C147.674 118.373 147.581 118.159 147.581 117.909C147.581 117.659 147.674 117.445 147.859 117.267C148.049 117.089 148.274 117 148.535 117C148.797 117 149.02 117.089 149.206 117.267C149.395 117.445 149.49 117.659 149.49 117.909C149.49 118.159 149.395 118.373 149.206 118.551C149.02 118.729 148.797 118.818 148.535 118.818ZM152.831 123.75V129H151.49V120.273H152.786V121.636H152.899C153.104 121.193 153.415 120.837 153.831 120.568C154.248 120.295 154.786 120.159 155.445 120.159C156.036 120.159 156.553 120.28 156.996 120.523C157.439 120.761 157.784 121.125 158.03 121.614C158.276 122.098 158.399 122.712 158.399 123.455V129H157.059V123.545C157.059 122.86 156.881 122.326 156.524 121.943C156.168 121.557 155.68 121.364 155.059 121.364C154.631 121.364 154.248 121.456 153.911 121.642C153.578 121.828 153.314 122.098 153.121 122.455C152.928 122.811 152.831 123.242 152.831 123.75Z" fill="#666666"/>
<g clip-path="url(#clip0_1649_31607)">
<rect x="70" y="139" width="271.333" height="56" rx="8" fill="#F2EFED"/>
<path d="M87.0739 175.364V164.864H88.2074V166.077H88.3466C88.4328 165.944 88.5521 165.775 88.7045 165.57C88.8603 165.361 89.0824 165.175 89.3707 165.013C89.6624 164.847 90.0568 164.764 90.554 164.764C91.197 164.764 91.7637 164.925 92.2543 165.246C92.7448 165.568 93.1276 166.024 93.4027 166.614C93.6778 167.204 93.8153 167.9 93.8153 168.702C93.8153 169.51 93.6778 170.211 93.4027 170.805C93.1276 171.395 92.7464 171.852 92.2592 172.177C91.772 172.498 91.2102 172.659 90.5739 172.659C90.0833 172.659 89.6906 172.578 89.3956 172.415C89.1006 172.25 88.8736 172.062 88.7145 171.854C88.5554 171.642 88.4328 171.466 88.3466 171.327H88.2472V175.364H87.0739ZM88.2273 168.682C88.2273 169.259 88.3118 169.767 88.4808 170.208C88.6499 170.646 88.8968 170.989 89.2216 171.237C89.5464 171.482 89.9441 171.605 90.4148 171.605C90.9053 171.605 91.3146 171.476 91.6428 171.217C91.9742 170.955 92.2228 170.604 92.3885 170.163C92.5575 169.719 92.642 169.225 92.642 168.682C92.642 168.145 92.5592 167.661 92.3935 167.23C92.2311 166.796 91.9841 166.453 91.6527 166.201C91.3246 165.946 90.9119 165.818 90.4148 165.818C89.9375 165.818 89.5365 165.939 89.2116 166.181C88.8868 166.42 88.6416 166.754 88.4759 167.185C88.3101 167.613 88.2273 168.112 88.2273 168.682ZM97.7123 172.679C97.2284 172.679 96.7892 172.588 96.3948 172.406C96.0004 172.22 95.6872 171.953 95.4552 171.605C95.2232 171.254 95.1072 170.83 95.1072 170.332C95.1072 169.895 95.1933 169.54 95.3657 169.268C95.538 168.993 95.7684 168.778 96.0567 168.622C96.3451 168.466 96.6633 168.35 97.0113 168.274C97.3626 168.195 97.7156 168.132 98.0702 168.085C98.5342 168.026 98.9104 167.981 99.1988 167.951C99.4904 167.918 99.7026 167.863 99.8351 167.787C99.971 167.711 100.039 167.578 100.039 167.389V167.349C100.039 166.859 99.9047 166.478 99.6363 166.206C99.3711 165.934 98.9684 165.798 98.4282 165.798C97.868 165.798 97.4289 165.921 97.1107 166.166C96.7925 166.411 96.5688 166.673 96.4395 166.952L95.3259 166.554C95.5248 166.09 95.7899 165.729 96.1214 165.47C96.4561 165.208 96.8207 165.026 97.2151 164.923C97.6128 164.817 98.0039 164.764 98.3884 164.764C98.6337 164.764 98.9154 164.794 99.2336 164.854C99.5551 164.91 99.865 165.028 100.163 165.207C100.465 165.386 100.715 165.656 100.914 166.017C101.113 166.378 101.212 166.862 101.212 167.469V172.5H100.039V171.466H99.9793C99.8998 171.632 99.7672 171.809 99.5816 171.998C99.396 172.187 99.1491 172.348 98.8408 172.48C98.5326 172.613 98.1564 172.679 97.7123 172.679ZM97.8912 171.625C98.3553 171.625 98.7464 171.534 99.0645 171.352C99.386 171.169 99.628 170.934 99.7904 170.646C99.9561 170.357 100.039 170.054 100.039 169.736V168.662C99.9893 168.722 99.8799 168.776 99.7109 168.826C99.5451 168.872 99.3529 168.914 99.1341 168.95C98.9187 168.983 98.7082 169.013 98.5028 169.04C98.3006 169.063 98.1365 169.083 98.0106 169.099C97.7056 169.139 97.4206 169.204 97.1555 169.293C96.8936 169.379 96.6815 169.51 96.5191 169.686C96.36 169.858 96.2805 170.094 96.2805 170.392C96.2805 170.8 96.4313 171.108 96.7329 171.317C97.0378 171.522 97.4239 171.625 97.8912 171.625ZM103.214 172.5V164.864H104.347V166.017H104.427C104.566 165.639 104.818 165.333 105.183 165.097C105.547 164.862 105.958 164.744 106.415 164.744C106.502 164.744 106.609 164.746 106.739 164.749C106.868 164.753 106.966 164.758 107.032 164.764V165.957C106.992 165.947 106.901 165.933 106.759 165.913C106.619 165.889 106.472 165.878 106.316 165.878C105.945 165.878 105.613 165.956 105.322 166.112C105.033 166.264 104.805 166.476 104.636 166.748C104.47 167.016 104.387 167.323 104.387 167.668V172.5H103.214ZM112.082 164.864V165.858H108.125V164.864H112.082ZM109.278 163.034H110.452V170.312C110.452 170.644 110.5 170.893 110.596 171.058C110.695 171.221 110.821 171.33 110.974 171.386C111.129 171.439 111.293 171.466 111.466 171.466C111.595 171.466 111.701 171.459 111.784 171.446C111.867 171.429 111.933 171.416 111.983 171.406L112.222 172.46C112.142 172.49 112.031 172.52 111.888 172.55C111.746 172.583 111.565 172.599 111.347 172.599C111.015 172.599 110.69 172.528 110.372 172.386C110.057 172.243 109.795 172.026 109.587 171.734C109.381 171.443 109.278 171.075 109.278 170.631V163.034ZM113.707 172.5V164.864H114.881V172.5H113.707ZM114.304 163.591C114.075 163.591 113.878 163.513 113.712 163.357C113.55 163.201 113.469 163.014 113.469 162.795C113.469 162.577 113.55 162.389 113.712 162.234C113.878 162.078 114.075 162 114.304 162C114.533 162 114.728 162.078 114.89 162.234C115.056 162.389 115.139 162.577 115.139 162.795C115.139 163.014 115.056 163.201 114.89 163.357C114.728 163.513 114.533 163.591 114.304 163.591ZM119.992 172.659C119.276 172.659 118.659 172.49 118.142 172.152C117.625 171.814 117.228 171.348 116.949 170.755C116.671 170.162 116.532 169.484 116.532 168.722C116.532 167.946 116.674 167.262 116.959 166.668C117.247 166.072 117.648 165.606 118.162 165.271C118.679 164.933 119.282 164.764 119.972 164.764C120.509 164.764 120.993 164.864 121.424 165.062C121.854 165.261 122.207 165.54 122.483 165.898C122.758 166.256 122.928 166.673 122.995 167.151H121.821C121.732 166.803 121.533 166.494 121.225 166.226C120.92 165.954 120.509 165.818 119.992 165.818C119.534 165.818 119.133 165.937 118.789 166.176C118.447 166.411 118.18 166.745 117.988 167.175C117.799 167.603 117.705 168.105 117.705 168.682C117.705 169.272 117.798 169.786 117.983 170.223C118.172 170.661 118.437 171 118.779 171.242C119.123 171.484 119.528 171.605 119.992 171.605C120.297 171.605 120.573 171.552 120.822 171.446C121.071 171.34 121.281 171.188 121.453 170.989C121.626 170.79 121.748 170.551 121.821 170.273H122.995C122.928 170.723 122.764 171.129 122.502 171.491C122.244 171.849 121.901 172.134 121.473 172.346C121.049 172.555 120.555 172.659 119.992 172.659ZM124.57 172.5V164.864H125.743V172.5H124.57ZM125.166 163.591C124.938 163.591 124.74 163.513 124.575 163.357C124.412 163.201 124.331 163.014 124.331 162.795C124.331 162.577 124.412 162.389 124.575 162.234C124.74 162.078 124.938 162 125.166 162C125.395 162 125.591 162.078 125.753 162.234C125.919 162.389 126.002 162.577 126.002 162.795C126.002 163.014 125.919 163.201 125.753 163.357C125.591 163.513 125.395 163.591 125.166 163.591ZM127.752 175.364V164.864H128.886V166.077H129.025C129.111 165.944 129.23 165.775 129.383 165.57C129.539 165.361 129.761 165.175 130.049 165.013C130.341 164.847 130.735 164.764 131.232 164.764C131.875 164.764 132.442 164.925 132.932 165.246C133.423 165.568 133.806 166.024 134.081 166.614C134.356 167.204 134.494 167.9 134.494 168.702C134.494 169.51 134.356 170.211 134.081 170.805C133.806 171.395 133.425 171.852 132.937 172.177C132.45 172.498 131.888 172.659 131.252 172.659C130.762 172.659 130.369 172.578 130.074 172.415C129.779 172.25 129.552 172.062 129.393 171.854C129.234 171.642 129.111 171.466 129.025 171.327H128.925V175.364H127.752ZM128.905 168.682C128.905 169.259 128.99 169.767 129.159 170.208C129.328 170.646 129.575 170.989 129.9 171.237C130.225 171.482 130.622 171.605 131.093 171.605C131.584 171.605 131.993 171.476 132.321 171.217C132.652 170.955 132.901 170.604 133.067 170.163C133.236 169.719 133.32 169.225 133.32 168.682C133.32 168.145 133.237 167.661 133.072 167.23C132.909 166.796 132.662 166.453 132.331 166.201C132.003 165.946 131.59 165.818 131.093 165.818C130.616 165.818 130.215 165.939 129.89 166.181C129.565 166.42 129.32 166.754 129.154 167.185C128.988 167.613 128.905 168.112 128.905 168.682ZM138.39 172.679C137.907 172.679 137.467 172.588 137.073 172.406C136.679 172.22 136.365 171.953 136.133 171.605C135.901 171.254 135.785 170.83 135.785 170.332C135.785 169.895 135.872 169.54 136.044 169.268C136.216 168.993 136.447 168.778 136.735 168.622C137.023 168.466 137.341 168.35 137.689 168.274C138.041 168.195 138.394 168.132 138.748 168.085C139.212 168.026 139.589 167.981 139.877 167.951C140.169 167.918 140.381 167.863 140.513 167.787C140.649 167.711 140.717 167.578 140.717 167.389V167.349C140.717 166.859 140.583 166.478 140.314 166.206C140.049 165.934 139.647 165.798 139.106 165.798C138.546 165.798 138.107 165.921 137.789 166.166C137.471 166.411 137.247 166.673 137.118 166.952L136.004 166.554C136.203 166.09 136.468 165.729 136.8 165.47C137.134 165.208 137.499 165.026 137.893 164.923C138.291 164.817 138.682 164.764 139.067 164.764C139.312 164.764 139.594 164.794 139.912 164.854C140.233 164.91 140.543 165.028 140.841 165.207C141.143 165.386 141.393 165.656 141.592 166.017C141.791 166.378 141.89 166.862 141.89 167.469V172.5H140.717V171.466H140.658C140.578 171.632 140.445 171.809 140.26 171.998C140.074 172.187 139.827 172.348 139.519 172.48C139.211 172.613 138.835 172.679 138.39 172.679ZM138.569 171.625C139.033 171.625 139.425 171.534 139.743 171.352C140.064 171.169 140.306 170.934 140.469 170.646C140.634 170.357 140.717 170.054 140.717 169.736V168.662C140.667 168.722 140.558 168.776 140.389 168.826C140.223 168.872 140.031 168.914 139.812 168.95C139.597 168.983 139.386 169.013 139.181 169.04C138.979 169.063 138.815 169.083 138.689 169.099C138.384 169.139 138.099 169.204 137.834 169.293C137.572 169.379 137.36 169.51 137.197 169.686C137.038 169.858 136.959 170.094 136.959 170.392C136.959 170.8 137.109 171.108 137.411 171.317C137.716 171.522 138.102 171.625 138.569 171.625ZM147.213 164.864V165.858H143.256V164.864H147.213ZM144.409 163.034H145.582V170.312C145.582 170.644 145.63 170.893 145.727 171.058C145.826 171.221 145.952 171.33 146.104 171.386C146.26 171.439 146.424 171.466 146.597 171.466C146.726 171.466 146.832 171.459 146.915 171.446C146.998 171.429 147.064 171.416 147.114 171.406L147.352 172.46C147.273 172.49 147.162 172.52 147.019 172.55C146.877 172.583 146.696 172.599 146.477 172.599C146.146 172.599 145.821 172.528 145.503 172.386C145.188 172.243 144.926 172.026 144.717 171.734C144.512 171.443 144.409 171.075 144.409 170.631V163.034ZM151.958 172.659C151.222 172.659 150.587 172.497 150.053 172.172C149.523 171.844 149.114 171.386 148.825 170.8C148.54 170.21 148.398 169.524 148.398 168.741C148.398 167.959 148.54 167.27 148.825 166.673C149.114 166.073 149.515 165.606 150.029 165.271C150.546 164.933 151.149 164.764 151.838 164.764C152.236 164.764 152.629 164.83 153.017 164.963C153.404 165.096 153.757 165.311 154.075 165.609C154.394 165.904 154.647 166.295 154.836 166.783C155.025 167.27 155.12 167.87 155.12 168.582V169.08H149.233V168.065H153.926C153.926 167.634 153.84 167.25 153.668 166.912C153.499 166.574 153.257 166.307 152.942 166.112C152.63 165.916 152.263 165.818 151.838 165.818C151.371 165.818 150.967 165.934 150.625 166.166C150.287 166.395 150.027 166.693 149.845 167.061C149.662 167.429 149.571 167.823 149.571 168.244V168.92C149.571 169.497 149.671 169.986 149.87 170.387C150.072 170.785 150.352 171.088 150.71 171.297C151.068 171.502 151.484 171.605 151.958 171.605C152.266 171.605 152.544 171.562 152.793 171.476C153.045 171.386 153.262 171.254 153.444 171.078C153.626 170.899 153.767 170.677 153.867 170.412L155 170.73C154.881 171.115 154.68 171.453 154.399 171.744C154.117 172.033 153.769 172.258 153.355 172.42C152.94 172.58 152.475 172.659 151.958 172.659ZM157.619 172.58C157.374 172.58 157.164 172.492 156.988 172.316C156.812 172.14 156.725 171.93 156.725 171.685C156.725 171.439 156.812 171.229 156.988 171.053C157.164 170.878 157.374 170.79 157.619 170.79C157.865 170.79 158.075 170.878 158.251 171.053C158.427 171.229 158.514 171.439 158.514 171.685C158.514 171.847 158.473 171.996 158.39 172.132C158.31 172.268 158.203 172.377 158.067 172.46C157.934 172.54 157.785 172.58 157.619 172.58ZM161.653 167.906V172.5H160.48V164.864H161.613V166.057H161.713C161.892 165.669 162.164 165.357 162.528 165.122C162.893 164.884 163.363 164.764 163.94 164.764C164.457 164.764 164.909 164.87 165.297 165.082C165.685 165.291 165.987 165.609 166.202 166.037C166.418 166.461 166.525 166.998 166.525 167.648V172.5H165.352V167.727C165.352 167.127 165.196 166.66 164.885 166.325C164.573 165.987 164.146 165.818 163.602 165.818C163.227 165.818 162.893 165.899 162.598 166.062C162.306 166.224 162.076 166.461 161.907 166.773C161.738 167.084 161.653 167.462 161.653 167.906ZM170.776 172.679C170.293 172.679 169.853 172.588 169.459 172.406C169.065 172.22 168.751 171.953 168.519 171.605C168.287 171.254 168.171 170.83 168.171 170.332C168.171 169.895 168.257 169.54 168.43 169.268C168.602 168.993 168.833 168.778 169.121 168.622C169.409 168.466 169.727 168.35 170.075 168.274C170.427 168.195 170.78 168.132 171.134 168.085C171.598 168.026 171.975 167.981 172.263 167.951C172.555 167.918 172.767 167.863 172.899 167.787C173.035 167.711 173.103 167.578 173.103 167.389V167.349C173.103 166.859 172.969 166.478 172.7 166.206C172.435 165.934 172.033 165.798 171.492 165.798C170.932 165.798 170.493 165.921 170.175 166.166C169.857 166.411 169.633 166.673 169.504 166.952L168.39 166.554C168.589 166.09 168.854 165.729 169.186 165.47C169.52 165.208 169.885 165.026 170.279 164.923C170.677 164.817 171.068 164.764 171.453 164.764C171.698 164.764 171.98 164.794 172.298 164.854C172.619 164.91 172.929 165.028 173.227 165.207C173.529 165.386 173.779 165.656 173.978 166.017C174.177 166.378 174.276 166.862 174.276 167.469V172.5H173.103V171.466H173.043C172.964 171.632 172.831 171.809 172.646 171.998C172.46 172.187 172.213 172.348 171.905 172.48C171.597 172.613 171.221 172.679 170.776 172.679ZM170.955 171.625C171.419 171.625 171.811 171.534 172.129 171.352C172.45 171.169 172.692 170.934 172.855 170.646C173.02 170.357 173.103 170.054 173.103 169.736V168.662C173.053 168.722 172.944 168.776 172.775 168.826C172.609 168.872 172.417 168.914 172.198 168.95C171.983 168.983 171.772 169.013 171.567 169.04C171.365 169.063 171.201 169.083 171.075 169.099C170.77 169.139 170.485 169.204 170.22 169.293C169.958 169.379 169.746 169.51 169.583 169.686C169.424 169.858 169.345 170.094 169.345 170.392C169.345 170.8 169.495 171.108 169.797 171.317C170.102 171.522 170.488 171.625 170.955 171.625ZM176.278 172.5V164.864H177.411V166.057H177.511C177.67 165.649 177.927 165.333 178.281 165.107C178.636 164.879 179.062 164.764 179.559 164.764C180.063 164.764 180.482 164.879 180.817 165.107C181.155 165.333 181.419 165.649 181.607 166.057H181.687C181.883 165.662 182.176 165.349 182.567 165.117C182.958 164.882 183.427 164.764 183.974 164.764C184.657 164.764 185.215 164.978 185.649 165.406C186.084 165.83 186.301 166.491 186.301 167.389V172.5H185.127V167.389C185.127 166.826 184.973 166.423 184.665 166.181C184.357 165.939 183.994 165.818 183.576 165.818C183.039 165.818 182.623 165.981 182.328 166.305C182.033 166.627 181.886 167.035 181.886 167.528V172.5H180.693V167.27C180.693 166.836 180.552 166.486 180.27 166.221C179.988 165.952 179.625 165.818 179.181 165.818C178.876 165.818 178.591 165.899 178.326 166.062C178.064 166.224 177.852 166.45 177.69 166.738C177.531 167.023 177.451 167.353 177.451 167.727V172.5H176.278ZM191.508 172.659C190.772 172.659 190.137 172.497 189.603 172.172C189.073 171.844 188.664 171.386 188.375 170.8C188.09 170.21 187.948 169.524 187.948 168.741C187.948 167.959 188.09 167.27 188.375 166.673C188.664 166.073 189.065 165.606 189.579 165.271C190.096 164.933 190.699 164.764 191.388 164.764C191.786 164.764 192.179 164.83 192.567 164.963C192.954 165.096 193.307 165.311 193.625 165.609C193.944 165.904 194.197 166.295 194.386 166.783C194.575 167.27 194.67 167.87 194.67 168.582V169.08H188.783V168.065H193.476C193.476 167.634 193.39 167.25 193.218 166.912C193.049 166.574 192.807 166.307 192.492 166.112C192.18 165.916 191.813 165.818 191.388 165.818C190.921 165.818 190.517 165.934 190.175 166.166C189.837 166.395 189.577 166.693 189.395 167.061C189.212 167.429 189.121 167.823 189.121 168.244V168.92C189.121 169.497 189.221 169.986 189.42 170.387C189.622 170.785 189.902 171.088 190.26 171.297C190.618 171.502 191.034 171.605 191.508 171.605C191.816 171.605 192.094 171.562 192.343 171.476C192.595 171.386 192.812 171.254 192.994 171.078C193.176 170.899 193.317 170.677 193.417 170.412L194.55 170.73C194.431 171.115 194.23 171.453 193.949 171.744C193.667 172.033 193.319 172.258 192.905 172.42C192.49 172.58 192.025 172.659 191.508 172.659ZM197.169 172.58C196.924 172.58 196.714 172.492 196.538 172.316C196.362 172.14 196.275 171.93 196.275 171.685C196.275 171.439 196.362 171.229 196.538 171.053C196.714 170.878 196.924 170.79 197.169 170.79C197.415 170.79 197.625 170.878 197.801 171.053C197.977 171.229 198.064 171.439 198.064 171.685C198.064 171.847 198.023 171.996 197.94 172.132C197.86 172.268 197.753 172.377 197.617 172.46C197.484 172.54 197.335 172.58 197.169 172.58ZM202.277 172.679C201.793 172.679 201.354 172.588 200.959 172.406C200.565 172.22 200.252 171.953 200.02 171.605C199.788 171.254 199.672 170.83 199.672 170.332C199.672 169.895 199.758 169.54 199.93 169.268C200.103 168.993 200.333 168.778 200.621 168.622C200.91 168.466 201.228 168.35 201.576 168.274C201.927 168.195 202.28 168.132 202.635 168.085C203.099 168.026 203.475 167.981 203.763 167.951C204.055 167.918 204.267 167.863 204.4 167.787C204.536 167.711 204.604 167.578 204.604 167.389V167.349C204.604 166.859 204.469 166.478 204.201 166.206C203.936 165.934 203.533 165.798 202.993 165.798C202.433 165.798 201.994 165.921 201.675 166.166C201.357 166.411 201.133 166.673 201.004 166.952L199.891 166.554C200.089 166.09 200.355 165.729 200.686 165.47C201.021 165.208 201.385 165.026 201.78 164.923C202.178 164.817 202.569 164.764 202.953 164.764C203.198 164.764 203.48 164.794 203.798 164.854C204.12 164.91 204.43 165.028 204.728 165.207C205.03 165.386 205.28 165.656 205.479 166.017C205.678 166.378 205.777 166.862 205.777 167.469V172.5H204.604V171.466H204.544C204.464 171.632 204.332 171.809 204.146 171.998C203.961 172.187 203.714 172.348 203.406 172.48C203.097 172.613 202.721 172.679 202.277 172.679ZM202.456 171.625C202.92 171.625 203.311 171.534 203.629 171.352C203.951 171.169 204.193 170.934 204.355 170.646C204.521 170.357 204.604 170.054 204.604 169.736V168.662C204.554 168.722 204.445 168.776 204.276 168.826C204.11 168.872 203.918 168.914 203.699 168.95C203.483 168.983 203.273 169.013 203.067 169.04C202.865 169.063 202.701 169.083 202.575 169.099C202.27 169.139 201.985 169.204 201.72 169.293C201.458 169.379 201.246 169.51 201.084 169.686C200.925 169.858 200.845 170.094 200.845 170.392C200.845 170.8 200.996 171.108 201.298 171.317C201.602 171.522 201.989 171.625 202.456 171.625ZM207.778 172.5V164.864H208.912V166.017H208.992C209.131 165.639 209.383 165.333 209.747 165.097C210.112 164.862 210.523 164.744 210.98 164.744C211.066 164.744 211.174 164.746 211.303 164.749C211.433 164.753 211.53 164.758 211.597 164.764V165.957C211.557 165.947 211.466 165.933 211.323 165.913C211.184 165.889 211.037 165.878 210.881 165.878C210.51 165.878 210.178 165.956 209.886 166.112C209.598 166.264 209.369 166.476 209.2 166.748C209.035 167.016 208.952 167.323 208.952 167.668V172.5H207.778ZM215.717 172.659C215.001 172.659 214.385 172.49 213.868 172.152C213.351 171.814 212.953 171.348 212.675 170.755C212.396 170.162 212.257 169.484 212.257 168.722C212.257 167.946 212.4 167.262 212.685 166.668C212.973 166.072 213.374 165.606 213.888 165.271C214.405 164.933 215.008 164.764 215.697 164.764C216.234 164.764 216.718 164.864 217.149 165.062C217.58 165.261 217.933 165.54 218.208 165.898C218.483 166.256 218.654 166.673 218.72 167.151H217.547C217.457 166.803 217.258 166.494 216.95 166.226C216.645 165.954 216.234 165.818 215.717 165.818C215.26 165.818 214.859 165.937 214.514 166.176C214.173 166.411 213.906 166.745 213.714 167.175C213.525 167.603 213.43 168.105 213.43 168.682C213.43 169.272 213.523 169.786 213.709 170.223C213.898 170.661 214.163 171 214.504 171.242C214.849 171.484 215.253 171.605 215.717 171.605C216.022 171.605 216.299 171.552 216.548 171.446C216.796 171.34 217.007 171.188 217.179 170.989C217.351 170.79 217.474 170.551 217.547 170.273H218.72C218.654 170.723 218.49 171.129 218.228 171.491C217.969 171.849 217.626 172.134 217.199 172.346C216.775 172.555 216.281 172.659 215.717 172.659ZM221.469 167.906V172.5H220.295V162.318H221.469V166.057H221.568C221.747 165.662 222.016 165.349 222.373 165.117C222.735 164.882 223.215 164.764 223.815 164.764C224.336 164.764 224.791 164.869 225.182 165.077C225.574 165.283 225.877 165.599 226.092 166.027C226.311 166.451 226.42 166.991 226.42 167.648V172.5H225.247V167.727C225.247 167.121 225.09 166.652 224.775 166.32C224.463 165.986 224.031 165.818 223.477 165.818C223.093 165.818 222.748 165.899 222.443 166.062C222.141 166.224 221.903 166.461 221.727 166.773C221.555 167.084 221.469 167.462 221.469 167.906Z" fill="#666666"/>
</g>
<path d="M71.8864 229H70.4091L74.6818 217.364H76.1364L80.4091 229H78.9318L75.4545 219.205H75.3636L71.8864 229ZM72.4318 224.455H78.3864V225.705H72.4318V224.455ZM81.8798 232.273V220.273H83.1752V221.659H83.3343C83.4328 221.508 83.5692 221.314 83.7434 221.08C83.9214 220.841 84.1752 220.629 84.5048 220.443C84.8381 220.254 85.2889 220.159 85.857 220.159C86.5919 220.159 87.2396 220.343 87.8002 220.71C88.3608 221.078 88.7983 221.598 89.1127 222.273C89.4271 222.947 89.5843 223.742 89.5843 224.659C89.5843 225.583 89.4271 226.384 89.1127 227.062C88.7983 227.737 88.3627 228.259 87.8059 228.631C87.2491 228.998 86.607 229.182 85.8798 229.182C85.3192 229.182 84.8703 229.089 84.5332 228.903C84.1961 228.714 83.9366 228.5 83.7548 228.261C83.573 228.019 83.4328 227.818 83.3343 227.659H83.2207V232.273H81.8798ZM83.198 224.636C83.198 225.295 83.2945 225.877 83.4877 226.381C83.6809 226.881 83.9631 227.273 84.3343 227.557C84.7055 227.837 85.1601 227.977 85.698 227.977C86.2586 227.977 86.7264 227.83 87.1014 227.534C87.4802 227.235 87.7642 226.833 87.9536 226.33C88.1468 225.822 88.2434 225.258 88.2434 224.636C88.2434 224.023 88.1487 223.47 87.9593 222.977C87.7737 222.481 87.4915 222.089 87.1127 221.801C86.7377 221.509 86.2661 221.364 85.698 221.364C85.1525 221.364 84.6942 221.502 84.323 221.778C83.9517 222.051 83.6714 222.434 83.482 222.926C83.2927 223.415 83.198 223.985 83.198 224.636ZM92.8107 217.364V229H91.4698V217.364H92.8107ZM95.1066 229V220.273H96.4476V229H95.1066ZM95.7885 218.818C95.5271 218.818 95.3017 218.729 95.1123 218.551C94.9267 218.373 94.8339 218.159 94.8339 217.909C94.8339 217.659 94.9267 217.445 95.1123 217.267C95.3017 217.089 95.5271 217 95.7885 217C96.0498 217 96.2733 217.089 96.4589 217.267C96.6483 217.445 96.743 217.659 96.743 217.909C96.743 218.159 96.6483 218.373 96.4589 218.551C96.2733 218.729 96.0498 218.818 95.7885 218.818ZM102.289 229.182C101.471 229.182 100.766 228.989 100.175 228.602C99.5844 228.216 99.1299 227.684 98.8117 227.006C98.4935 226.328 98.3344 225.553 98.3344 224.682C98.3344 223.795 98.4973 223.013 98.8231 222.335C99.1526 221.653 99.6109 221.121 100.198 220.739C100.789 220.352 101.478 220.159 102.266 220.159C102.88 220.159 103.433 220.273 103.925 220.5C104.418 220.727 104.821 221.045 105.136 221.455C105.45 221.864 105.645 222.341 105.721 222.886H104.38C104.278 222.489 104.05 222.136 103.698 221.83C103.35 221.519 102.88 221.364 102.289 221.364C101.766 221.364 101.308 221.5 100.914 221.773C100.524 222.042 100.219 222.422 99.9992 222.915C99.7833 223.403 99.6753 223.977 99.6753 224.636C99.6753 225.311 99.7814 225.898 99.9935 226.398C100.209 226.898 100.512 227.286 100.903 227.562C101.297 227.839 101.759 227.977 102.289 227.977C102.637 227.977 102.954 227.917 103.238 227.795C103.522 227.674 103.762 227.5 103.959 227.273C104.156 227.045 104.297 226.773 104.38 226.455H105.721C105.645 226.97 105.458 227.434 105.158 227.847C104.863 228.256 104.471 228.581 103.982 228.824C103.497 229.062 102.933 229.182 102.289 229.182ZM110.089 229.205C109.536 229.205 109.034 229.1 108.584 228.892C108.133 228.68 107.775 228.375 107.51 227.977C107.245 227.576 107.112 227.091 107.112 226.523C107.112 226.023 107.21 225.617 107.407 225.307C107.604 224.992 107.868 224.746 108.197 224.568C108.527 224.39 108.89 224.258 109.288 224.17C109.69 224.08 110.093 224.008 110.498 223.955C111.029 223.886 111.459 223.835 111.788 223.801C112.121 223.763 112.364 223.701 112.515 223.614C112.671 223.527 112.748 223.375 112.748 223.159V223.114C112.748 222.553 112.595 222.117 112.288 221.807C111.985 221.496 111.525 221.341 110.907 221.341C110.267 221.341 109.765 221.481 109.402 221.761C109.038 222.042 108.782 222.341 108.635 222.659L107.362 222.205C107.589 221.674 107.892 221.261 108.271 220.966C108.654 220.667 109.07 220.458 109.521 220.341C109.976 220.22 110.423 220.159 110.862 220.159C111.142 220.159 111.464 220.193 111.828 220.261C112.195 220.326 112.549 220.46 112.89 220.665C113.235 220.869 113.521 221.178 113.748 221.591C113.976 222.004 114.089 222.557 114.089 223.25V229H112.748V227.818H112.68C112.589 228.008 112.438 228.21 112.226 228.426C112.013 228.642 111.731 228.826 111.379 228.977C111.027 229.129 110.597 229.205 110.089 229.205ZM110.294 228C110.824 228 111.271 227.896 111.635 227.688C112.002 227.479 112.279 227.21 112.464 226.881C112.654 226.551 112.748 226.205 112.748 225.841V224.614C112.691 224.682 112.566 224.744 112.373 224.801C112.184 224.854 111.964 224.902 111.714 224.943C111.468 224.981 111.227 225.015 110.993 225.045C110.762 225.072 110.574 225.095 110.43 225.114C110.082 225.159 109.756 225.233 109.453 225.335C109.154 225.434 108.911 225.583 108.726 225.784C108.544 225.981 108.453 226.25 108.453 226.591C108.453 227.057 108.625 227.409 108.97 227.648C109.318 227.883 109.76 228 110.294 228ZM120.172 220.273V221.409H115.649V220.273H120.172ZM116.968 218.182H118.308V226.5C118.308 226.879 118.363 227.163 118.473 227.352C118.587 227.538 118.731 227.663 118.905 227.727C119.083 227.788 119.271 227.818 119.468 227.818C119.615 227.818 119.736 227.811 119.831 227.795C119.926 227.777 120.002 227.761 120.058 227.75L120.331 228.955C120.24 228.989 120.113 229.023 119.951 229.057C119.788 229.095 119.581 229.114 119.331 229.114C118.952 229.114 118.581 229.032 118.218 228.869C117.858 228.706 117.558 228.458 117.32 228.125C117.085 227.792 116.968 227.371 116.968 226.864V218.182ZM122.029 229V220.273H123.37V229H122.029ZM122.711 218.818C122.45 218.818 122.224 218.729 122.035 218.551C121.849 218.373 121.756 218.159 121.756 217.909C121.756 217.659 121.849 217.445 122.035 217.267C122.224 217.089 122.45 217 122.711 217C122.972 217 123.196 217.089 123.381 217.267C123.571 217.445 123.666 217.659 123.666 217.909C123.666 218.159 123.571 218.373 123.381 218.551C123.196 218.729 122.972 218.818 122.711 218.818ZM129.211 229.182C128.424 229.182 127.732 228.994 127.138 228.619C126.547 228.244 126.085 227.72 125.751 227.045C125.422 226.371 125.257 225.583 125.257 224.682C125.257 223.773 125.422 222.979 125.751 222.301C126.085 221.623 126.547 221.097 127.138 220.722C127.732 220.347 128.424 220.159 129.211 220.159C129.999 220.159 130.689 220.347 131.28 220.722C131.874 221.097 132.336 221.623 132.666 222.301C132.999 222.979 133.166 223.773 133.166 224.682C133.166 225.583 132.999 226.371 132.666 227.045C132.336 227.72 131.874 228.244 131.28 228.619C130.689 228.994 129.999 229.182 129.211 229.182ZM129.211 227.977C129.81 227.977 130.302 227.824 130.689 227.517C131.075 227.21 131.361 226.807 131.547 226.307C131.732 225.807 131.825 225.265 131.825 224.682C131.825 224.098 131.732 223.555 131.547 223.051C131.361 222.547 131.075 222.14 130.689 221.83C130.302 221.519 129.81 221.364 129.211 221.364C128.613 221.364 128.121 221.519 127.734 221.83C127.348 222.14 127.062 222.547 126.876 223.051C126.691 223.555 126.598 224.098 126.598 224.682C126.598 225.265 126.691 225.807 126.876 226.307C127.062 226.807 127.348 227.21 127.734 227.517C128.121 227.824 128.613 227.977 129.211 227.977ZM136.394 223.75V229H135.053V220.273H136.348V221.636H136.462C136.667 221.193 136.977 220.837 137.394 220.568C137.81 220.295 138.348 220.159 139.007 220.159C139.598 220.159 140.115 220.28 140.559 220.523C141.002 220.761 141.346 221.125 141.593 221.614C141.839 222.098 141.962 222.712 141.962 223.455V229H140.621V223.545C140.621 222.86 140.443 222.326 140.087 221.943C139.731 221.557 139.242 221.364 138.621 221.364C138.193 221.364 137.81 221.456 137.473 221.642C137.14 221.828 136.877 222.098 136.684 222.455C136.49 222.811 136.394 223.242 136.394 223.75ZM152.365 229H148.774V217.364H152.524C153.653 217.364 154.619 217.597 155.422 218.062C156.225 218.525 156.84 219.189 157.268 220.057C157.696 220.92 157.91 221.955 157.91 223.159C157.91 224.371 157.695 225.415 157.263 226.29C156.831 227.161 156.202 227.831 155.376 228.301C154.551 228.767 153.547 229 152.365 229ZM150.183 227.75H152.274C153.236 227.75 154.034 227.564 154.666 227.193C155.299 226.822 155.77 226.294 156.081 225.608C156.392 224.922 156.547 224.106 156.547 223.159C156.547 222.22 156.393 221.411 156.087 220.733C155.78 220.051 155.321 219.528 154.712 219.165C154.102 218.797 153.342 218.614 152.433 218.614H150.183V227.75ZM163.478 229.182C162.69 229.182 161.999 228.994 161.404 228.619C160.813 228.244 160.351 227.72 160.018 227.045C159.688 226.371 159.523 225.583 159.523 224.682C159.523 223.773 159.688 222.979 160.018 222.301C160.351 221.623 160.813 221.097 161.404 220.722C161.999 220.347 162.69 220.159 163.478 220.159C164.266 220.159 164.955 220.347 165.546 220.722C166.141 221.097 166.603 221.623 166.932 222.301C167.266 222.979 167.432 223.773 167.432 224.682C167.432 225.583 167.266 226.371 166.932 227.045C166.603 227.72 166.141 228.244 165.546 228.619C164.955 228.994 164.266 229.182 163.478 229.182ZM163.478 227.977C164.076 227.977 164.569 227.824 164.955 227.517C165.341 227.21 165.627 226.807 165.813 226.307C165.999 225.807 166.091 225.265 166.091 224.682C166.091 224.098 165.999 223.555 165.813 223.051C165.627 222.547 165.341 222.14 164.955 221.83C164.569 221.519 164.076 221.364 163.478 221.364C162.879 221.364 162.387 221.519 162 221.83C161.614 222.14 161.328 222.547 161.143 223.051C160.957 223.555 160.864 224.098 160.864 224.682C160.864 225.265 160.957 225.807 161.143 226.307C161.328 226.807 161.614 227.21 162 227.517C162.387 227.824 162.879 227.977 163.478 227.977ZM169.319 229V220.273H170.615V221.636H170.728C170.91 221.17 171.204 220.809 171.609 220.551C172.014 220.29 172.501 220.159 173.069 220.159C173.645 220.159 174.124 220.29 174.507 220.551C174.893 220.809 175.194 221.17 175.41 221.636H175.501C175.724 221.186 176.06 220.828 176.507 220.562C176.954 220.294 177.49 220.159 178.115 220.159C178.895 220.159 179.533 220.403 180.029 220.892C180.526 221.377 180.774 222.133 180.774 223.159V229H179.433V223.159C179.433 222.515 179.257 222.055 178.904 221.778C178.552 221.502 178.137 221.364 177.66 221.364C177.046 221.364 176.571 221.549 176.234 221.92C175.897 222.288 175.728 222.754 175.728 223.318V229H174.365V223.023C174.365 222.527 174.204 222.127 173.882 221.824C173.56 221.517 173.145 221.364 172.637 221.364C172.289 221.364 171.963 221.456 171.66 221.642C171.361 221.828 171.118 222.085 170.933 222.415C170.751 222.741 170.66 223.117 170.66 223.545V229H169.319ZM185.634 229.205C185.081 229.205 184.579 229.1 184.128 228.892C183.677 228.68 183.319 228.375 183.054 227.977C182.789 227.576 182.656 227.091 182.656 226.523C182.656 226.023 182.755 225.617 182.952 225.307C183.149 224.992 183.412 224.746 183.742 224.568C184.071 224.39 184.435 224.258 184.832 224.17C185.234 224.08 185.637 224.008 186.043 223.955C186.573 223.886 187.003 223.835 187.332 223.801C187.666 223.763 187.908 223.701 188.06 223.614C188.215 223.527 188.293 223.375 188.293 223.159V223.114C188.293 222.553 188.139 222.117 187.832 221.807C187.529 221.496 187.069 221.341 186.452 221.341C185.812 221.341 185.31 221.481 184.946 221.761C184.582 222.042 184.327 222.341 184.179 222.659L182.906 222.205C183.134 221.674 183.437 221.261 183.815 220.966C184.198 220.667 184.615 220.458 185.065 220.341C185.52 220.22 185.967 220.159 186.406 220.159C186.687 220.159 187.009 220.193 187.372 220.261C187.74 220.326 188.094 220.46 188.435 220.665C188.779 220.869 189.065 221.178 189.293 221.591C189.52 222.004 189.634 222.557 189.634 223.25V229H188.293V227.818H188.224C188.134 228.008 187.982 228.21 187.77 228.426C187.558 228.642 187.276 228.826 186.923 228.977C186.571 229.129 186.141 229.205 185.634 229.205ZM185.838 228C186.368 228 186.815 227.896 187.179 227.688C187.546 227.479 187.823 227.21 188.009 226.881C188.198 226.551 188.293 226.205 188.293 225.841V224.614C188.236 224.682 188.111 224.744 187.918 224.801C187.728 224.854 187.509 224.902 187.259 224.943C187.012 224.981 186.772 225.015 186.537 225.045C186.306 225.072 186.118 225.095 185.974 225.114C185.626 225.159 185.3 225.233 184.997 225.335C184.698 225.434 184.456 225.583 184.27 225.784C184.088 225.981 183.997 226.25 183.997 226.591C183.997 227.057 184.17 227.409 184.514 227.648C184.863 227.883 185.304 228 185.838 228ZM191.921 229V220.273H193.262V229H191.921ZM192.603 218.818C192.341 218.818 192.116 218.729 191.927 218.551C191.741 218.373 191.648 218.159 191.648 217.909C191.648 217.659 191.741 217.445 191.927 217.267C192.116 217.089 192.341 217 192.603 217C192.864 217 193.088 217.089 193.273 217.267C193.463 217.445 193.557 217.659 193.557 217.909C193.557 218.159 193.463 218.373 193.273 218.551C193.088 218.729 192.864 218.818 192.603 218.818ZM196.899 223.75V229H195.558V220.273H196.853V221.636H196.967C197.172 221.193 197.482 220.837 197.899 220.568C198.315 220.295 198.853 220.159 199.512 220.159C200.103 220.159 200.62 220.28 201.064 220.523C201.507 220.761 201.851 221.125 202.098 221.614C202.344 222.098 202.467 222.712 202.467 223.455V229H201.126V223.545C201.126 222.86 200.948 222.326 200.592 221.943C200.236 221.557 199.747 221.364 199.126 221.364C198.698 221.364 198.315 221.456 197.978 221.642C197.645 221.828 197.382 222.098 197.189 222.455C196.995 222.811 196.899 223.242 196.899 223.75Z" fill="#666666"/>
<g clip-path="url(#clip1_1649_31607)">
<rect x="70" y="239" width="271.333" height="56" rx="8" fill="#F2EFED"/>
<path d="M87.0739 275.364V264.864H88.2074V266.077H88.3466C88.4328 265.944 88.5521 265.775 88.7045 265.57C88.8603 265.361 89.0824 265.175 89.3707 265.013C89.6624 264.847 90.0568 264.764 90.554 264.764C91.197 264.764 91.7637 264.925 92.2543 265.246C92.7448 265.568 93.1276 266.024 93.4027 266.614C93.6778 267.204 93.8153 267.9 93.8153 268.702C93.8153 269.51 93.6778 270.211 93.4027 270.805C93.1276 271.395 92.7464 271.852 92.2592 272.177C91.772 272.498 91.2102 272.659 90.5739 272.659C90.0833 272.659 89.6906 272.578 89.3956 272.415C89.1006 272.25 88.8736 272.062 88.7145 271.854C88.5554 271.642 88.4328 271.466 88.3466 271.327H88.2472V275.364H87.0739ZM88.2273 268.682C88.2273 269.259 88.3118 269.767 88.4808 270.208C88.6499 270.646 88.8968 270.989 89.2216 271.237C89.5464 271.482 89.9441 271.605 90.4148 271.605C90.9053 271.605 91.3146 271.476 91.6428 271.217C91.9742 270.955 92.2228 270.604 92.3885 270.163C92.5575 269.719 92.642 269.225 92.642 268.682C92.642 268.145 92.5592 267.661 92.3935 267.23C92.2311 266.796 91.9841 266.453 91.6527 266.201C91.3246 265.946 90.9119 265.818 90.4148 265.818C89.9375 265.818 89.5365 265.939 89.2116 266.181C88.8868 266.42 88.6416 266.754 88.4759 267.185C88.3101 267.613 88.2273 268.112 88.2273 268.682ZM97.7123 272.679C97.2284 272.679 96.7892 272.588 96.3948 272.406C96.0004 272.22 95.6872 271.953 95.4552 271.605C95.2232 271.254 95.1072 270.83 95.1072 270.332C95.1072 269.895 95.1933 269.54 95.3657 269.268C95.538 268.993 95.7684 268.778 96.0567 268.622C96.3451 268.466 96.6633 268.35 97.0113 268.274C97.3626 268.195 97.7156 268.132 98.0702 268.085C98.5342 268.026 98.9104 267.981 99.1988 267.951C99.4904 267.918 99.7026 267.863 99.8351 267.787C99.971 267.711 100.039 267.578 100.039 267.389V267.349C100.039 266.859 99.9047 266.478 99.6363 266.206C99.3711 265.934 98.9684 265.798 98.4282 265.798C97.868 265.798 97.4289 265.921 97.1107 266.166C96.7925 266.411 96.5688 266.673 96.4395 266.952L95.3259 266.554C95.5248 266.09 95.7899 265.729 96.1214 265.47C96.4561 265.208 96.8207 265.026 97.2151 264.923C97.6128 264.817 98.0039 264.764 98.3884 264.764C98.6337 264.764 98.9154 264.794 99.2336 264.854C99.5551 264.91 99.865 265.028 100.163 265.207C100.465 265.386 100.715 265.656 100.914 266.017C101.113 266.378 101.212 266.862 101.212 267.469V272.5H100.039V271.466H99.9793C99.8998 271.632 99.7672 271.809 99.5816 271.998C99.396 272.187 99.1491 272.348 98.8408 272.48C98.5326 272.613 98.1564 272.679 97.7123 272.679ZM97.8912 271.625C98.3553 271.625 98.7464 271.534 99.0645 271.352C99.386 271.169 99.628 270.934 99.7904 270.646C99.9561 270.357 100.039 270.054 100.039 269.736V268.662C99.9893 268.722 99.8799 268.776 99.7109 268.826C99.5451 268.872 99.3529 268.914 99.1341 268.95C98.9187 268.983 98.7082 269.013 98.5028 269.04C98.3006 269.063 98.1365 269.083 98.0106 269.099C97.7056 269.139 97.4206 269.204 97.1555 269.293C96.8936 269.379 96.6815 269.51 96.5191 269.686C96.36 269.858 96.2805 270.094 96.2805 270.392C96.2805 270.8 96.4313 271.108 96.7329 271.317C97.0378 271.522 97.4239 271.625 97.8912 271.625ZM103.214 272.5V264.864H104.347V266.017H104.427C104.566 265.639 104.818 265.333 105.183 265.097C105.547 264.862 105.958 264.744 106.415 264.744C106.502 264.744 106.609 264.746 106.739 264.749C106.868 264.753 106.966 264.758 107.032 264.764V265.957C106.992 265.947 106.901 265.933 106.759 265.913C106.619 265.889 106.472 265.878 106.316 265.878C105.945 265.878 105.613 265.956 105.322 266.112C105.033 266.264 104.805 266.476 104.636 266.748C104.47 267.016 104.387 267.323 104.387 267.668V272.5H103.214ZM112.082 264.864V265.858H108.125V264.864H112.082ZM109.278 263.034H110.452V270.312C110.452 270.644 110.5 270.893 110.596 271.058C110.695 271.221 110.821 271.33 110.974 271.386C111.129 271.439 111.293 271.466 111.466 271.466C111.595 271.466 111.701 271.459 111.784 271.446C111.867 271.429 111.933 271.416 111.983 271.406L112.222 272.46C112.142 272.49 112.031 272.52 111.888 272.55C111.746 272.583 111.565 272.599 111.347 272.599C111.015 272.599 110.69 272.528 110.372 272.386C110.057 272.243 109.795 272.026 109.587 271.734C109.381 271.443 109.278 271.075 109.278 270.631V263.034ZM113.707 272.5V264.864H114.881V272.5H113.707ZM114.304 263.591C114.075 263.591 113.878 263.513 113.712 263.357C113.55 263.201 113.469 263.014 113.469 262.795C113.469 262.577 113.55 262.389 113.712 262.234C113.878 262.078 114.075 262 114.304 262C114.533 262 114.728 262.078 114.89 262.234C115.056 262.389 115.139 262.577 115.139 262.795C115.139 263.014 115.056 263.201 114.89 263.357C114.728 263.513 114.533 263.591 114.304 263.591ZM119.992 272.659C119.276 272.659 118.659 272.49 118.142 272.152C117.625 271.814 117.228 271.348 116.949 270.755C116.671 270.162 116.532 269.484 116.532 268.722C116.532 267.946 116.674 267.262 116.959 266.668C117.247 266.072 117.648 265.606 118.162 265.271C118.679 264.933 119.282 264.764 119.972 264.764C120.509 264.764 120.993 264.864 121.424 265.062C121.854 265.261 122.207 265.54 122.483 265.898C122.758 266.256 122.928 266.673 122.995 267.151H121.821C121.732 266.803 121.533 266.494 121.225 266.226C120.92 265.954 120.509 265.818 119.992 265.818C119.534 265.818 119.133 265.937 118.789 266.176C118.447 266.411 118.18 266.745 117.988 267.175C117.799 267.603 117.705 268.105 117.705 268.682C117.705 269.272 117.798 269.786 117.983 270.223C118.172 270.661 118.437 271 118.779 271.242C119.123 271.484 119.528 271.605 119.992 271.605C120.297 271.605 120.573 271.552 120.822 271.446C121.071 271.34 121.281 271.188 121.453 270.989C121.626 270.79 121.748 270.551 121.821 270.273H122.995C122.928 270.723 122.764 271.129 122.502 271.491C122.244 271.849 121.901 272.134 121.473 272.346C121.049 272.555 120.555 272.659 119.992 272.659ZM124.57 272.5V264.864H125.743V272.5H124.57ZM125.166 263.591C124.938 263.591 124.74 263.513 124.575 263.357C124.412 263.201 124.331 263.014 124.331 262.795C124.331 262.577 124.412 262.389 124.575 262.234C124.74 262.078 124.938 262 125.166 262C125.395 262 125.591 262.078 125.753 262.234C125.919 262.389 126.002 262.577 126.002 262.795C126.002 263.014 125.919 263.201 125.753 263.357C125.591 263.513 125.395 263.591 125.166 263.591ZM127.752 275.364V264.864H128.886V266.077H129.025C129.111 265.944 129.23 265.775 129.383 265.57C129.539 265.361 129.761 265.175 130.049 265.013C130.341 264.847 130.735 264.764 131.232 264.764C131.875 264.764 132.442 264.925 132.932 265.246C133.423 265.568 133.806 266.024 134.081 266.614C134.356 267.204 134.494 267.9 134.494 268.702C134.494 269.51 134.356 270.211 134.081 270.805C133.806 271.395 133.425 271.852 132.937 272.177C132.45 272.498 131.888 272.659 131.252 272.659C130.762 272.659 130.369 272.578 130.074 272.415C129.779 272.25 129.552 272.062 129.393 271.854C129.234 271.642 129.111 271.466 129.025 271.327H128.925V275.364H127.752ZM128.905 268.682C128.905 269.259 128.99 269.767 129.159 270.208C129.328 270.646 129.575 270.989 129.9 271.237C130.225 271.482 130.622 271.605 131.093 271.605C131.584 271.605 131.993 271.476 132.321 271.217C132.652 270.955 132.901 270.604 133.067 270.163C133.236 269.719 133.32 269.225 133.32 268.682C133.32 268.145 133.237 267.661 133.072 267.23C132.909 266.796 132.662 266.453 132.331 266.201C132.003 265.946 131.59 265.818 131.093 265.818C130.616 265.818 130.215 265.939 129.89 266.181C129.565 266.42 129.32 266.754 129.154 267.185C128.988 267.613 128.905 268.112 128.905 268.682ZM138.39 272.679C137.907 272.679 137.467 272.588 137.073 272.406C136.679 272.22 136.365 271.953 136.133 271.605C135.901 271.254 135.785 270.83 135.785 270.332C135.785 269.895 135.872 269.54 136.044 269.268C136.216 268.993 136.447 268.778 136.735 268.622C137.023 268.466 137.341 268.35 137.689 268.274C138.041 268.195 138.394 268.132 138.748 268.085C139.212 268.026 139.589 267.981 139.877 267.951C140.169 267.918 140.381 267.863 140.513 267.787C140.649 267.711 140.717 267.578 140.717 267.389V267.349C140.717 266.859 140.583 266.478 140.314 266.206C140.049 265.934 139.647 265.798 139.106 265.798C138.546 265.798 138.107 265.921 137.789 266.166C137.471 266.411 137.247 266.673 137.118 266.952L136.004 266.554C136.203 266.09 136.468 265.729 136.8 265.47C137.134 265.208 137.499 265.026 137.893 264.923C138.291 264.817 138.682 264.764 139.067 264.764C139.312 264.764 139.594 264.794 139.912 264.854C140.233 264.91 140.543 265.028 140.841 265.207C141.143 265.386 141.393 265.656 141.592 266.017C141.791 266.378 141.89 266.862 141.89 267.469V272.5H140.717V271.466H140.658C140.578 271.632 140.445 271.809 140.26 271.998C140.074 272.187 139.827 272.348 139.519 272.48C139.211 272.613 138.835 272.679 138.39 272.679ZM138.569 271.625C139.033 271.625 139.425 271.534 139.743 271.352C140.064 271.169 140.306 270.934 140.469 270.646C140.634 270.357 140.717 270.054 140.717 269.736V268.662C140.667 268.722 140.558 268.776 140.389 268.826C140.223 268.872 140.031 268.914 139.812 268.95C139.597 268.983 139.386 269.013 139.181 269.04C138.979 269.063 138.815 269.083 138.689 269.099C138.384 269.139 138.099 269.204 137.834 269.293C137.572 269.379 137.36 269.51 137.197 269.686C137.038 269.858 136.959 270.094 136.959 270.392C136.959 270.8 137.109 271.108 137.411 271.317C137.716 271.522 138.102 271.625 138.569 271.625ZM147.213 264.864V265.858H143.256V264.864H147.213ZM144.409 263.034H145.582V270.312C145.582 270.644 145.63 270.893 145.727 271.058C145.826 271.221 145.952 271.33 146.104 271.386C146.26 271.439 146.424 271.466 146.597 271.466C146.726 271.466 146.832 271.459 146.915 271.446C146.998 271.429 147.064 271.416 147.114 271.406L147.352 272.46C147.273 272.49 147.162 272.52 147.019 272.55C146.877 272.583 146.696 272.599 146.477 272.599C146.146 272.599 145.821 272.528 145.503 272.386C145.188 272.243 144.926 272.026 144.717 271.734C144.512 271.443 144.409 271.075 144.409 270.631V263.034ZM151.958 272.659C151.222 272.659 150.587 272.497 150.053 272.172C149.523 271.844 149.114 271.386 148.825 270.8C148.54 270.21 148.398 269.524 148.398 268.741C148.398 267.959 148.54 267.27 148.825 266.673C149.114 266.073 149.515 265.606 150.029 265.271C150.546 264.933 151.149 264.764 151.838 264.764C152.236 264.764 152.629 264.83 153.017 264.963C153.404 265.096 153.757 265.311 154.075 265.609C154.394 265.904 154.647 266.295 154.836 266.783C155.025 267.27 155.12 267.87 155.12 268.582V269.08H149.233V268.065H153.926C153.926 267.634 153.84 267.25 153.668 266.912C153.499 266.574 153.257 266.307 152.942 266.112C152.63 265.916 152.263 265.818 151.838 265.818C151.371 265.818 150.967 265.934 150.625 266.166C150.287 266.395 150.027 266.693 149.845 267.061C149.662 267.429 149.571 267.823 149.571 268.244V268.92C149.571 269.497 149.671 269.986 149.87 270.387C150.072 270.785 150.352 271.088 150.71 271.297C151.068 271.502 151.484 271.605 151.958 271.605C152.266 271.605 152.544 271.562 152.793 271.476C153.045 271.386 153.262 271.254 153.444 271.078C153.626 270.899 153.767 270.677 153.867 270.412L155 270.73C154.881 271.115 154.68 271.453 154.399 271.744C154.117 272.033 153.769 272.258 153.355 272.42C152.94 272.58 152.475 272.659 151.958 272.659ZM157.619 272.58C157.374 272.58 157.164 272.492 156.988 272.316C156.812 272.14 156.725 271.93 156.725 271.685C156.725 271.439 156.812 271.229 156.988 271.053C157.164 270.878 157.374 270.79 157.619 270.79C157.865 270.79 158.075 270.878 158.251 271.053C158.427 271.229 158.514 271.439 158.514 271.685C158.514 271.847 158.473 271.996 158.39 272.132C158.31 272.268 158.203 272.377 158.067 272.46C157.934 272.54 157.785 272.58 157.619 272.58ZM162.21 272.5L159.883 264.864H161.116L162.767 270.71H162.846L164.477 264.864H165.73L167.341 270.69H167.42L169.071 264.864H170.304L167.977 272.5H166.824L165.153 266.634H165.034L163.363 272.5H162.21ZM174.657 272.659C173.921 272.659 173.286 272.497 172.753 272.172C172.222 271.844 171.813 271.386 171.525 270.8C171.24 270.21 171.097 269.524 171.097 268.741C171.097 267.959 171.24 267.27 171.525 266.673C171.813 266.073 172.214 265.606 172.728 265.271C173.245 264.933 173.848 264.764 174.537 264.764C174.935 264.764 175.328 264.83 175.716 264.963C176.103 265.096 176.456 265.311 176.775 265.609C177.093 265.904 177.346 266.295 177.535 266.783C177.724 267.27 177.819 267.87 177.819 268.582V269.08H171.932V268.065H176.625C176.625 267.634 176.539 267.25 176.367 266.912C176.198 266.574 175.956 266.307 175.641 266.112C175.33 265.916 174.962 265.818 174.537 265.818C174.07 265.818 173.666 265.934 173.324 266.166C172.986 266.395 172.726 266.693 172.544 267.061C172.362 267.429 172.27 267.823 172.27 268.244V268.92C172.27 269.497 172.37 269.986 172.569 270.387C172.771 270.785 173.051 271.088 173.409 271.297C173.767 271.502 174.183 271.605 174.657 271.605C174.965 271.605 175.243 271.562 175.492 271.476C175.744 271.386 175.961 271.254 176.143 271.078C176.326 270.899 176.466 270.677 176.566 270.412L177.699 270.73C177.58 271.115 177.38 271.453 177.098 271.744C176.816 272.033 176.468 272.258 176.054 272.42C175.639 272.58 175.174 272.659 174.657 272.659ZM179.623 272.5V262.318H180.796V266.077H180.895C180.981 265.944 181.101 265.775 181.253 265.57C181.409 265.361 181.631 265.175 181.919 265.013C182.211 264.847 182.606 264.764 183.103 264.764C183.746 264.764 184.312 264.925 184.803 265.246C185.293 265.568 185.676 266.024 185.951 266.614C186.226 267.204 186.364 267.9 186.364 268.702C186.364 269.51 186.226 270.211 185.951 270.805C185.676 271.395 185.295 271.852 184.808 272.177C184.321 272.498 183.759 272.659 183.123 272.659C182.632 272.659 182.239 272.578 181.944 272.415C181.649 272.25 181.422 272.062 181.263 271.854C181.104 271.642 180.981 271.466 180.895 271.327H180.756V272.5H179.623ZM180.776 268.682C180.776 269.259 180.86 269.767 181.03 270.208C181.199 270.646 181.445 270.989 181.77 271.237C182.095 271.482 182.493 271.605 182.963 271.605C183.454 271.605 183.863 271.476 184.191 271.217C184.523 270.955 184.771 270.604 184.937 270.163C185.106 269.719 185.191 269.225 185.191 268.682C185.191 268.145 185.108 267.661 184.942 267.23C184.78 266.796 184.533 266.453 184.201 266.201C183.873 265.946 183.461 265.818 182.963 265.818C182.486 265.818 182.085 265.939 181.76 266.181C181.436 266.42 181.19 266.754 181.025 267.185C180.859 267.613 180.776 268.112 180.776 268.682ZM193.428 266.574L192.374 266.872C192.308 266.696 192.21 266.526 192.081 266.36C191.955 266.191 191.782 266.052 191.564 265.942C191.345 265.833 191.065 265.778 190.723 265.778C190.256 265.778 189.867 265.886 189.555 266.102C189.247 266.314 189.093 266.584 189.093 266.912C189.093 267.204 189.199 267.434 189.411 267.603C189.623 267.772 189.954 267.913 190.405 268.026L191.539 268.304C192.221 268.47 192.73 268.723 193.065 269.065C193.4 269.403 193.567 269.839 193.567 270.372C193.567 270.81 193.441 271.201 193.189 271.545C192.941 271.89 192.593 272.162 192.145 272.361C191.698 272.56 191.177 272.659 190.584 272.659C189.805 272.659 189.161 272.49 188.65 272.152C188.14 271.814 187.817 271.32 187.681 270.67L188.794 270.392C188.9 270.803 189.101 271.111 189.396 271.317C189.694 271.522 190.084 271.625 190.564 271.625C191.111 271.625 191.545 271.509 191.867 271.277C192.192 271.042 192.354 270.76 192.354 270.432C192.354 270.167 192.261 269.945 192.076 269.766C191.89 269.583 191.605 269.447 191.22 269.358L189.948 269.06C189.248 268.894 188.735 268.637 188.407 268.289C188.082 267.938 187.919 267.499 187.919 266.972C187.919 266.541 188.04 266.16 188.282 265.828C188.528 265.497 188.861 265.237 189.282 265.048C189.706 264.859 190.186 264.764 190.723 264.764C191.479 264.764 192.072 264.93 192.503 265.261C192.937 265.593 193.246 266.03 193.428 266.574ZM195.193 272.5V264.864H196.367V272.5H195.193ZM195.79 263.591C195.561 263.591 195.364 263.513 195.198 263.357C195.036 263.201 194.955 263.014 194.955 262.795C194.955 262.577 195.036 262.389 195.198 262.234C195.364 262.078 195.561 262 195.79 262C196.019 262 196.214 262.078 196.376 262.234C196.542 262.389 196.625 262.577 196.625 262.795C196.625 263.014 196.542 263.201 196.376 263.357C196.214 263.513 196.019 263.591 195.79 263.591ZM201.697 264.864V265.858H197.739V264.864H201.697ZM198.893 263.034H200.066V270.312C200.066 270.644 200.114 270.893 200.21 271.058C200.309 271.221 200.435 271.33 200.588 271.386C200.744 271.439 200.908 271.466 201.08 271.466C201.209 271.466 201.315 271.459 201.398 271.446C201.481 271.429 201.547 271.416 201.597 271.406L201.836 272.46C201.756 272.49 201.645 272.52 201.503 272.55C201.36 272.583 201.179 272.599 200.961 272.599C200.629 272.599 200.304 272.528 199.986 272.386C199.671 272.243 199.41 272.026 199.201 271.734C198.995 271.443 198.893 271.075 198.893 270.631V263.034ZM206.441 272.659C205.705 272.659 205.071 272.497 204.537 272.172C204.007 271.844 203.597 271.386 203.309 270.8C203.024 270.21 202.881 269.524 202.881 268.741C202.881 267.959 203.024 267.27 203.309 266.673C203.597 266.073 203.998 265.606 204.512 265.271C205.029 264.933 205.632 264.764 206.322 264.764C206.72 264.764 207.112 264.83 207.5 264.963C207.888 265.096 208.241 265.311 208.559 265.609C208.877 265.904 209.131 266.295 209.32 266.783C209.509 267.27 209.603 267.87 209.603 268.582V269.08H203.717V268.065H208.41C208.41 267.634 208.324 267.25 208.151 266.912C207.982 266.574 207.74 266.307 207.425 266.112C207.114 265.916 206.746 265.818 206.322 265.818C205.854 265.818 205.45 265.934 205.109 266.166C204.771 266.395 204.51 266.693 204.328 267.061C204.146 267.429 204.055 267.823 204.055 268.244V268.92C204.055 269.497 204.154 269.986 204.353 270.387C204.555 270.785 204.835 271.088 205.193 271.297C205.551 271.502 205.967 271.605 206.441 271.605C206.749 271.605 207.028 271.562 207.276 271.476C207.528 271.386 207.745 271.254 207.928 271.078C208.11 270.899 208.251 270.677 208.35 270.412L209.484 270.73C209.364 271.115 209.164 271.453 208.882 271.744C208.6 272.033 208.252 272.258 207.838 272.42C207.424 272.58 206.958 272.659 206.441 272.659ZM212.103 272.58C211.858 272.58 211.647 272.492 211.472 272.316C211.296 272.14 211.208 271.93 211.208 271.685C211.208 271.439 211.296 271.229 211.472 271.053C211.647 270.878 211.858 270.79 212.103 270.79C212.348 270.79 212.559 270.878 212.734 271.053C212.91 271.229 212.998 271.439 212.998 271.685C212.998 271.847 212.956 271.996 212.874 272.132C212.794 272.268 212.686 272.377 212.55 272.46C212.418 272.54 212.269 272.58 212.103 272.58ZM218.066 272.659C217.35 272.659 216.733 272.49 216.216 272.152C215.699 271.814 215.301 271.348 215.023 270.755C214.745 270.162 214.605 269.484 214.605 268.722C214.605 267.946 214.748 267.262 215.033 266.668C215.321 266.072 215.722 265.606 216.236 265.271C216.753 264.933 217.356 264.764 218.046 264.764C218.583 264.764 219.067 264.864 219.497 265.062C219.928 265.261 220.281 265.54 220.556 265.898C220.831 266.256 221.002 266.673 221.068 267.151H219.895C219.806 266.803 219.607 266.494 219.299 266.226C218.994 265.954 218.583 265.818 218.066 265.818C217.608 265.818 217.207 265.937 216.862 266.176C216.521 266.411 216.254 266.745 216.062 267.175C215.873 267.603 215.779 268.105 215.779 268.682C215.779 269.272 215.871 269.786 216.057 270.223C216.246 270.661 216.511 271 216.853 271.242C217.197 271.484 217.602 271.605 218.066 271.605C218.371 271.605 218.647 271.552 218.896 271.446C219.144 271.34 219.355 271.188 219.527 270.989C219.7 270.79 219.822 270.551 219.895 270.273H221.068C221.002 270.723 220.838 271.129 220.576 271.491C220.318 271.849 219.975 272.134 219.547 272.346C219.123 272.555 218.629 272.659 218.066 272.659ZM225.746 272.659C225.057 272.659 224.452 272.495 223.931 272.167C223.414 271.839 223.01 271.38 222.718 270.79C222.43 270.2 222.286 269.51 222.286 268.722C222.286 267.926 222.43 267.232 222.718 266.638C223.01 266.045 223.414 265.585 223.931 265.256C224.452 264.928 225.057 264.764 225.746 264.764C226.435 264.764 227.039 264.928 227.556 265.256C228.076 265.585 228.48 266.045 228.769 266.638C229.06 267.232 229.206 267.926 229.206 268.722C229.206 269.51 229.06 270.2 228.769 270.79C228.48 271.38 228.076 271.839 227.556 272.167C227.039 272.495 226.435 272.659 225.746 272.659ZM225.746 271.605C226.27 271.605 226.7 271.471 227.039 271.202C227.377 270.934 227.627 270.581 227.789 270.143C227.952 269.706 228.033 269.232 228.033 268.722C228.033 268.211 227.952 267.736 227.789 267.295C227.627 266.854 227.377 266.498 227.039 266.226C226.7 265.954 226.27 265.818 225.746 265.818C225.222 265.818 224.791 265.954 224.453 266.226C224.115 266.498 223.865 266.854 223.703 267.295C223.54 267.736 223.459 268.211 223.459 268.722C223.459 269.232 223.54 269.706 223.703 270.143C223.865 270.581 224.115 270.934 224.453 271.202C224.791 271.471 225.222 271.605 225.746 271.605ZM230.857 272.5V264.864H231.991V266.057H232.09C232.249 265.649 232.506 265.333 232.861 265.107C233.215 264.879 233.641 264.764 234.138 264.764C234.642 264.764 235.061 264.879 235.396 265.107C235.734 265.333 235.998 265.649 236.187 266.057H236.266C236.462 265.662 236.755 265.349 237.146 265.117C237.537 264.882 238.006 264.764 238.553 264.764C239.236 264.764 239.794 264.978 240.229 265.406C240.663 265.83 240.88 266.491 240.88 267.389V272.5H239.707V267.389C239.707 266.826 239.552 266.423 239.244 266.181C238.936 265.939 238.573 265.818 238.155 265.818C237.619 265.818 237.203 265.981 236.908 266.305C236.613 266.627 236.465 267.035 236.465 267.528V272.5H235.272V267.27C235.272 266.836 235.131 266.486 234.849 266.221C234.568 265.952 234.205 265.818 233.761 265.818C233.456 265.818 233.171 265.899 232.905 266.062C232.644 266.224 232.431 266.45 232.269 266.738C232.11 267.023 232.03 267.353 232.03 267.727V272.5H230.857Z" fill="#666666"/>
</g>
<rect x="70" y="311" width="271.333" height="48" rx="8" fill="#FF4D00"/>
<path d="M191.576 333H190.167C190.083 332.595 189.937 332.239 189.729 331.932C189.525 331.625 189.275 331.367 188.979 331.159C188.687 330.947 188.364 330.788 188.008 330.682C187.651 330.576 187.28 330.523 186.894 330.523C186.189 330.523 185.551 330.701 184.979 331.057C184.411 331.413 183.958 331.938 183.621 332.631C183.288 333.324 183.121 334.174 183.121 335.182C183.121 336.189 183.288 337.04 183.621 337.733C183.958 338.426 184.411 338.951 184.979 339.307C185.551 339.663 186.189 339.841 186.894 339.841C187.28 339.841 187.651 339.788 188.008 339.682C188.364 339.576 188.687 339.419 188.979 339.21C189.275 338.998 189.525 338.739 189.729 338.432C189.937 338.121 190.083 337.765 190.167 337.364H191.576C191.47 337.958 191.276 338.491 190.996 338.96C190.716 339.43 190.367 339.83 189.951 340.159C189.534 340.485 189.066 340.733 188.547 340.903C188.032 341.074 187.481 341.159 186.894 341.159C185.901 341.159 185.019 340.917 184.246 340.432C183.473 339.947 182.865 339.258 182.422 338.364C181.979 337.47 181.758 336.409 181.758 335.182C181.758 333.955 181.979 332.894 182.422 332C182.865 331.106 183.473 330.417 184.246 329.932C185.019 329.447 185.901 329.205 186.894 329.205C187.481 329.205 188.032 329.29 188.547 329.46C189.066 329.631 189.534 329.881 189.951 330.21C190.367 330.536 190.716 330.934 190.996 331.403C191.276 331.869 191.47 332.402 191.576 333ZM193.511 341V332.273H194.806V333.591H194.897C195.056 333.159 195.344 332.809 195.761 332.54C196.178 332.271 196.647 332.136 197.17 332.136C197.268 332.136 197.392 332.138 197.539 332.142C197.687 332.146 197.799 332.152 197.875 332.159V333.523C197.829 333.511 197.725 333.494 197.562 333.472C197.403 333.445 197.234 333.432 197.056 333.432C196.632 333.432 196.253 333.521 195.92 333.699C195.59 333.873 195.329 334.116 195.136 334.426C194.947 334.733 194.852 335.083 194.852 335.477V341H193.511ZM202.697 341.182C201.857 341.182 201.131 340.996 200.521 340.625C199.915 340.25 199.447 339.727 199.118 339.057C198.792 338.383 198.629 337.598 198.629 336.705C198.629 335.811 198.792 335.023 199.118 334.341C199.447 333.655 199.906 333.121 200.493 332.739C201.084 332.352 201.773 332.159 202.561 332.159C203.016 332.159 203.465 332.235 203.908 332.386C204.351 332.538 204.754 332.784 205.118 333.125C205.482 333.462 205.771 333.909 205.987 334.466C206.203 335.023 206.311 335.708 206.311 336.523V337.091H199.584V335.932H204.947C204.947 335.439 204.849 335 204.652 334.614C204.459 334.227 204.182 333.922 203.822 333.699C203.466 333.475 203.046 333.364 202.561 333.364C202.027 333.364 201.565 333.496 201.175 333.761C200.788 334.023 200.491 334.364 200.283 334.784C200.074 335.205 199.97 335.655 199.97 336.136V336.909C199.97 337.568 200.084 338.127 200.311 338.585C200.542 339.04 200.862 339.386 201.271 339.625C201.68 339.86 202.156 339.977 202.697 339.977C203.05 339.977 203.368 339.928 203.652 339.83C203.94 339.727 204.188 339.576 204.396 339.375C204.605 339.17 204.766 338.917 204.879 338.614L206.175 338.977C206.038 339.417 205.809 339.803 205.487 340.136C205.165 340.466 204.768 340.723 204.294 340.909C203.821 341.091 203.288 341.182 202.697 341.182ZM210.759 341.205C210.206 341.205 209.704 341.1 209.253 340.892C208.803 340.68 208.445 340.375 208.18 339.977C207.914 339.576 207.782 339.091 207.782 338.523C207.782 338.023 207.88 337.617 208.077 337.307C208.274 336.992 208.537 336.746 208.867 336.568C209.197 336.39 209.56 336.258 209.958 336.17C210.359 336.08 210.763 336.008 211.168 335.955C211.698 335.886 212.128 335.835 212.458 335.801C212.791 335.763 213.034 335.701 213.185 335.614C213.341 335.527 213.418 335.375 213.418 335.159V335.114C213.418 334.553 213.265 334.117 212.958 333.807C212.655 333.496 212.195 333.341 211.577 333.341C210.937 333.341 210.435 333.481 210.072 333.761C209.708 334.042 209.452 334.341 209.305 334.659L208.032 334.205C208.259 333.674 208.562 333.261 208.941 332.966C209.323 332.667 209.74 332.458 210.191 332.341C210.645 332.22 211.092 332.159 211.532 332.159C211.812 332.159 212.134 332.193 212.498 332.261C212.865 332.326 213.219 332.46 213.56 332.665C213.905 332.869 214.191 333.178 214.418 333.591C214.645 334.004 214.759 334.557 214.759 335.25V341H213.418V339.818H213.35C213.259 340.008 213.108 340.21 212.895 340.426C212.683 340.642 212.401 340.826 212.049 340.977C211.697 341.129 211.267 341.205 210.759 341.205ZM210.964 340C211.494 340 211.941 339.896 212.305 339.688C212.672 339.479 212.948 339.21 213.134 338.881C213.323 338.551 213.418 338.205 213.418 337.841V336.614C213.361 336.682 213.236 336.744 213.043 336.801C212.854 336.854 212.634 336.902 212.384 336.943C212.138 336.981 211.897 337.015 211.662 337.045C211.431 337.072 211.244 337.095 211.1 337.114C210.752 337.159 210.426 337.233 210.123 337.335C209.823 337.434 209.581 337.583 209.395 337.784C209.214 337.981 209.123 338.25 209.123 338.591C209.123 339.057 209.295 339.409 209.64 339.648C209.988 339.883 210.43 340 210.964 340ZM220.842 332.273V333.409H216.319V332.273H220.842ZM217.637 330.182H218.978V338.5C218.978 338.879 219.033 339.163 219.143 339.352C219.257 339.538 219.401 339.663 219.575 339.727C219.753 339.788 219.94 339.818 220.137 339.818C220.285 339.818 220.406 339.811 220.501 339.795C220.596 339.777 220.672 339.761 220.728 339.75L221.001 340.955C220.91 340.989 220.783 341.023 220.62 341.057C220.458 341.095 220.251 341.114 220.001 341.114C219.622 341.114 219.251 341.032 218.887 340.869C218.528 340.706 218.228 340.458 217.99 340.125C217.755 339.792 217.637 339.371 217.637 338.864V330.182ZM226.264 341.182C225.423 341.182 224.698 340.996 224.088 340.625C223.482 340.25 223.014 339.727 222.685 339.057C222.359 338.383 222.196 337.598 222.196 336.705C222.196 335.811 222.359 335.023 222.685 334.341C223.014 333.655 223.473 333.121 224.06 332.739C224.651 332.352 225.34 332.159 226.128 332.159C226.583 332.159 227.031 332.235 227.475 332.386C227.918 332.538 228.321 332.784 228.685 333.125C229.048 333.462 229.338 333.909 229.554 334.466C229.77 335.023 229.878 335.708 229.878 336.523V337.091H223.151V335.932H228.514C228.514 335.439 228.416 335 228.219 334.614C228.026 334.227 227.749 333.922 227.389 333.699C227.033 333.475 226.613 333.364 226.128 333.364C225.594 333.364 225.132 333.496 224.742 333.761C224.355 334.023 224.058 334.364 223.85 334.784C223.641 335.205 223.537 335.655 223.537 336.136V336.909C223.537 337.568 223.651 338.127 223.878 338.585C224.109 339.04 224.429 339.386 224.838 339.625C225.247 339.86 225.723 339.977 226.264 339.977C226.617 339.977 226.935 339.928 227.219 339.83C227.507 339.727 227.755 339.576 227.963 339.375C228.172 339.17 228.333 338.917 228.446 338.614L229.742 338.977C229.605 339.417 229.376 339.803 229.054 340.136C228.732 340.466 228.334 340.723 227.861 340.909C227.387 341.091 226.855 341.182 226.264 341.182Z" fill="white"/>
</g>
<defs>
<filter id="filter0_d_1649_31607" x="0" y="0" width="411.333" height="444" filterUnits="userSpaceOnUse" color-interpolation-filters="sRGB">
<feFlood flood-opacity="0" result="BackgroundImageFix"/>
<feColorMatrix in="SourceAlpha" type="matrix" values="0 0 0 0 0 0 0 0 0 0 0 0 0 0 0 0 0 0 127 0" result="hardAlpha"/>
<feOffset dy="15"/>
<feGaussianBlur stdDeviation="27"/>
<feComposite in2="hardAlpha" operator="out"/>
<feColorMatrix type="matrix" values="0 0 0 0 0 0 0 0 0 0 0 0 0 0 0 0 0 0 0.06 0"/>
<feBlend mode="normal" in2="BackgroundImageFix" result="effect1_dropShadow_1649_31607"/>
<feBlend mode="normal" in="SourceGraphic" in2="effect1_dropShadow_1649_31607" result="shape"/>
</filter>
<clipPath id="clip0_1649_31607">
<rect x="70" y="139" width="271.333" height="56" rx="8" fill="white"/>
</clipPath>
<clipPath id="clip1_1649_31607">
<rect x="70" y="239" width="271.333" height="56" rx="8" fill="white"/>
</clipPath>
</defs>
</svg>
