<svg width="25" height="24" viewBox="0 0 25 24" fill="none" xmlns="http://www.w3.org/2000/svg">
<path d="M18.334 21C19.9908 21 21.334 19.6569 21.334 18C21.334 16.3431 19.9908 15 18.334 15C16.6771 15 15.334 16.3431 15.334 18C15.334 19.6569 16.6771 21 18.334 21Z" stroke="#666666" stroke-width="2" stroke-linecap="round" stroke-linejoin="round"/>
<path d="M6.33398 9C7.99084 9 9.33398 7.65685 9.33398 6C9.33398 4.34315 7.99084 3 6.33398 3C4.67713 3 3.33398 4.34315 3.33398 6C3.33398 7.65685 4.67713 9 6.33398 9Z" stroke="#666666" stroke-width="2" stroke-linecap="round" stroke-linejoin="round"/>
<path d="M6.33398 21V9C6.33398 11.3869 7.2822 13.6761 8.97002 15.364C10.6579 17.0518 12.947 18 15.334 18" stroke="#666666" stroke-width="2" stroke-linecap="round" stroke-linejoin="round"/>
</svg>
