<svg width="18" height="18" viewBox="0 0 18 18" fill="none" xmlns="http://www.w3.org/2000/svg">
<path d="M-1.10016e-07 15.4831L18 15.4831L18 18L0 18L-1.10016e-07 15.4831Z" fill="white"/>
<path d="M18 8.02306L18 13.4234L-2.00052e-07 13.4234L-4.43583e-07 7.85201C-5.15028e-07 6.21753 0.360351 4.81384 1.08105 3.64092C1.7959 2.46801 2.82422 1.56931 4.16602 0.944847C5.50195 0.314949 7.10449 -3.10547e-07 8.97363 -3.9225e-07C10.8486 -4.74209e-07 12.46 0.317663 13.8076 0.952993C15.1553 1.58289 16.1924 2.49516 16.9189 3.68979C17.6396 4.88443 18 6.32885 18 8.02306ZM15.627 10.9065L15.627 8.16153C15.627 6.89087 15.3691 5.8347 14.8535 4.99303C14.332 4.15136 13.5791 3.52146 12.5947 3.10334C11.6045 2.68521 10.3975 2.47615 8.97363 2.47615C7.56152 2.47615 6.36328 2.68521 5.37891 3.10334C4.39453 3.51603 3.64746 4.13235 3.13769 4.9523C2.62793 5.77226 2.37305 6.79041 2.37305 8.00677L2.37305 10.9065L15.627 10.9065Z" fill="white"/>
</svg>
