<svg width="15" height="16" viewBox="0 0 15 16" fill="none" xmlns="http://www.w3.org/2000/svg">
<path d="M5.86589 13.0025C2.53255 14.0013 2.53255 11.338 1.19922 11.0051M10.5326 15V12.4233C10.5576 12.1058 10.5146 11.7866 10.4066 11.487C10.2985 11.1874 10.1278 10.9142 9.90589 10.6855C11.9992 10.4525 14.1992 9.66015 14.1992 6.02478C14.199 5.09519 13.841 4.20124 13.1992 3.52797C13.5031 2.71468 13.4816 1.81572 13.1392 1.01784C13.1392 1.01784 12.3526 0.784803 10.5326 2.00325C9.00456 1.58966 7.39388 1.58966 5.86589 2.00325C4.04589 0.784803 3.25922 1.01784 3.25922 1.01784C2.9168 1.81572 2.89531 2.71468 3.19922 3.52797C2.55264 4.20624 2.19423 5.10826 2.19922 6.04476C2.19922 9.65349 4.39922 10.4458 6.49255 10.7055C6.27322 10.9318 6.10406 11.2018 5.99609 11.4977C5.88812 11.7937 5.84376 12.1091 5.86589 12.4233V15" stroke="black" stroke-width="1.5" stroke-linecap="round" stroke-linejoin="round"/>
</svg>
