<svg width="100" height="90" viewBox="0 0 100 90" fill="none" xmlns="http://www.w3.org/2000/svg">
<path fill-rule="evenodd" clip-rule="evenodd" d="M50.0004 0.700176C22.4972 0.700176 0 23.2025 0 50.7023V70.298C7.82807 59.6385 16.7616 50.8147 26.6856 43.6608V35.1733C26.6951 34.2234 26.753 33.3003 26.8585 32.3997C29.4099 34.436 31.9017 36.5034 34.3192 38.6046C37.4662 36.6918 40.6987 34.9269 44.0168 33.3072C38.9493 30.8292 33.6814 28.6875 28.2232 26.8664C32.0867 16.9008 41.0643 11.9354 50.0315 11.9457C58.9979 11.9553 67.9548 16.9389 71.775 26.8681C41.3634 37.0099 16.8774 57.1086 0 90H31.1636C34.136 76.4822 40.9061 64.7768 50.0004 54.1777C59.0939 64.7751 65.864 76.4822 68.8364 90H100C89.6187 69.7699 76.3593 54.3791 60.6142 43.1681C64.5667 39.4706 68.769 35.8924 73.1458 32.3954C73.253 33.3409 73.3014 34.2234 73.3135 35.1715V43.6634C83.2367 50.8182 92.1711 59.6445 100 70.3049V50.7023C100 23.1982 77.5011 0.700176 50.0004 0.700176Z" fill="black"/>
</svg>
