<svg version="1.1" id="Layer_1" xmlns="http://www.w3.org/2000/svg" xmlns:xlink="http://www.w3.org/1999/xlink" x="0px" y="0px"
	 width="100%" viewBox="0 0 400 400" enable-background="new 0 0 400 400" xml:space="preserve">
<path fill="#FFFEFE" opacity="1.000000" stroke="none" 
	d="
M225.000000,401.000000 
	C150.023285,401.000000 75.546555,401.000000 1.034916,401.000000 
	C1.034916,267.731598 1.034916,134.463211 1.034916,1.097406 
	C134.226669,1.097406 267.453430,1.097406 400.840088,1.097406 
	C400.840088,134.333176 400.840088,267.666565 400.840088,401.000000 
	C342.463287,401.000000 283.981628,401.000000 225.000000,401.000000 
M127.169930,342.936279 
	C132.384293,345.103088 137.598648,347.269867 143.319092,349.938995 
	C150.532639,351.940613 157.746201,353.942200 165.683533,356.267670 
	C169.747818,356.868225 173.812103,357.468750 178.593918,358.482269 
	C183.391129,358.783325 188.188324,359.084351 193.804153,359.811615 
	C196.533463,359.704132 199.262787,359.596680 202.786728,359.838257 
	C207.523300,359.531433 212.259888,359.224640 217.850082,359.099518 
	C225.935181,357.502716 234.020279,355.905914 242.940613,354.237793 
	C245.678680,353.667114 248.494171,353.338135 251.143234,352.489563 
	C291.913910,339.430634 322.171448,313.551117 342.104675,275.985077 
	C348.092590,264.700287 351.473480,252.032181 356.335999,239.219604 
	C357.557129,231.812866 358.778259,224.406128 360.248322,216.101425 
	C360.455261,211.067383 360.662231,206.033340 361.024963,200.121353 
	C360.942749,197.746414 360.860504,195.371460 360.936188,192.123932 
	C360.535034,188.083664 360.133881,184.043381 359.846619,179.197144 
	C358.862213,174.131821 357.877808,169.066498 356.947784,163.213821 
	C354.551666,155.812271 352.155548,148.410706 349.665771,140.308990 
	C345.899841,133.152802 342.133911,125.996605 338.153015,118.162910 
	C332.456177,110.432961 326.759338,102.703003 320.811066,94.349724 
	C313.272125,87.535278 305.733215,80.720833 297.843964,73.321465 
	C289.232605,68.205933 280.621277,63.090393 271.561279,57.439590 
	C261.707062,53.999146 251.852875,50.558701 241.255753,46.860126 
	C233.504211,45.602791 225.752686,44.345455 217.208664,42.876690 
	C213.153580,42.878841 209.098511,42.880993 204.542694,42.191864 
	C197.695297,42.491158 190.847916,42.790455 183.137711,42.980125 
	C175.424835,44.370193 167.711960,45.760262 159.228104,47.056408 
	C143.757690,51.233624 129.200073,57.504665 115.656097,66.088257 
	C80.063904,88.645042 55.735859,119.533768 45.104458,161.488708 
	C44.124393,167.992767 43.144329,174.496811 41.971073,181.843597 
	C41.701649,189.561111 41.432220,197.278641 41.029858,205.895187 
	C41.382645,210.262100 41.735428,214.629013 41.963482,219.851440 
	C43.369534,227.231003 44.775585,234.610580 46.148430,242.756256 
	C49.904140,252.561386 53.659851,262.366516 57.610302,272.895233 
	C63.035309,281.328644 68.460312,289.762085 74.088593,298.838318 
	C79.857910,304.969391 85.627228,311.100494 91.720795,317.862610 
	C96.946190,322.017151 102.171585,326.171692 107.791725,330.913910 
	C114.135033,334.720062 120.478348,338.526245 127.169930,342.936279 
z"/>
<path fill="#F89520" opacity="1.000000" stroke="none" 
	d="
M184.000519,43.089745 
	C190.847916,42.790455 197.695297,42.491158 204.750519,42.894077 
	C200.485031,48.385246 196.032852,53.194145 191.533264,57.958271 
	C185.490662,64.356102 179.598495,70.910751 173.309097,77.057724 
	C160.055618,90.011086 146.470779,102.625900 133.244171,115.606125 
	C124.069435,124.609947 115.365128,134.091370 106.267693,143.176208 
	C97.514801,151.916962 88.418137,160.313644 79.672272,169.061203 
	C70.772766,177.962418 62.283661,187.278351 53.271671,196.060532 
	C49.712631,199.528824 45.226685,202.045929 41.162792,204.996155 
	C41.432220,197.278641 41.701649,189.561111 42.445148,181.421432 
	C47.066059,178.781433 51.309708,176.725266 55.339516,174.312012 
	C63.661827,169.328171 66.291687,159.331711 74.923462,153.731216 
	C85.069870,147.147964 92.784988,136.794098 101.452621,127.975319 
	C103.139275,126.259262 104.138046,123.863739 105.835915,122.162727 
	C110.662239,117.327461 115.727379,112.731720 120.620674,107.961838 
	C125.891708,102.823769 131.077011,97.597710 136.294846,92.405136 
	C139.286331,89.428131 142.332230,86.502205 145.235992,83.441673 
	C148.059341,80.465897 150.545471,77.150238 153.514511,74.337204 
	C158.236221,69.863571 163.291183,65.743874 168.097031,61.356010 
	C170.885437,58.810131 173.628769,56.176201 176.090698,53.321701 
	C178.902191,50.061890 181.378540,46.513008 184.000519,43.089745 
z"/>
<path fill="#BF304A" opacity="1.000000" stroke="none" 
	d="
M356.048706,239.997787 
	C351.473480,252.032181 348.092590,264.700287 342.104675,275.985077 
	C322.171448,313.551117 291.913910,339.430634 251.143234,352.489563 
	C248.494171,353.338135 245.678680,353.667114 242.497452,353.880981 
	C242.506042,352.126343 242.557312,350.338531 243.475891,349.395233 
	C248.625946,344.106415 254.004333,339.040771 259.269043,333.862579 
	C269.790375,323.514099 280.373657,313.226562 290.770386,302.754059 
	C299.661285,293.798340 308.218384,284.510834 317.126160,275.572418 
	C324.610504,268.062408 332.276276,260.723297 340.074219,253.539185 
	C345.203796,248.813431 350.710754,244.497330 356.048706,239.997787 
z"/>
<path fill="#F99C1E" opacity="1.000000" stroke="none" 
	d="
M45.567139,160.888870 
	C55.735859,119.533768 80.063904,88.645042 115.656097,66.088257 
	C129.200073,57.504665 143.757690,51.233624 159.571869,47.446953 
	C157.388550,51.017868 155.090240,54.418430 152.285736,57.331726 
	C146.827469,63.001724 141.007217,68.321518 135.483109,73.930374 
	C130.033630,79.463463 124.887962,85.298080 119.388466,90.779137 
	C110.784210,99.354538 101.897896,107.647346 93.311897,116.240547 
	C85.758011,123.800766 78.444206,131.601166 71.039574,139.310089 
	C66.606232,143.925629 62.494083,148.904480 57.688717,153.089890 
	C54.103634,156.212448 49.639702,158.325989 45.567139,160.888870 
z"/>
<path fill="#C33147" opacity="1.000000" stroke="none" 
	d="
M356.192352,239.608704 
	C350.710754,244.497330 345.203796,248.813431 340.074219,253.539185 
	C332.276276,260.723297 324.610504,268.062408 317.126160,275.572418 
	C308.218384,284.510834 299.661285,293.798340 290.770386,302.754059 
	C280.373657,313.226562 269.790375,323.514099 259.269043,333.862579 
	C254.004333,339.040771 248.625946,344.106415 243.475891,349.395233 
	C242.557312,350.338531 242.506042,352.126343 242.079834,353.916656 
	C234.020279,355.905914 225.935181,357.502716 217.463318,358.661652 
	C217.518127,357.337921 217.768463,356.262512 218.430176,355.594818 
	C227.495895,346.446899 236.586136,337.322693 245.735092,328.257996 
	C257.364655,316.735535 269.108704,305.328247 280.704468,293.772064 
	C303.895325,270.660400 326.975891,247.437851 350.225128,224.385269 
	C353.098938,221.535767 356.722992,219.442886 359.999390,216.999390 
	C358.778259,224.406128 357.557129,231.812866 356.192352,239.608704 
z"/>
<path fill="#F8981F" opacity="1.000000" stroke="none" 
	d="
M45.335800,161.188782 
	C49.639702,158.325989 54.103634,156.212448 57.688717,153.089890 
	C62.494083,148.904480 66.606232,143.925629 71.039574,139.310089 
	C78.444206,131.601166 85.758011,123.800766 93.311897,116.240547 
	C101.897896,107.647346 110.784210,99.354538 119.388466,90.779137 
	C124.887962,85.298080 130.033630,79.463463 135.483109,73.930374 
	C141.007217,68.321518 146.827469,63.001724 152.285736,57.331726 
	C155.090240,54.418430 157.388550,51.017868 159.957352,47.493916 
	C167.711960,45.760262 175.424835,44.370193 183.569122,43.034935 
	C181.378540,46.513008 178.902191,50.061890 176.090698,53.321701 
	C173.628769,56.176201 170.885437,58.810131 168.097031,61.356010 
	C163.291183,65.743874 158.236221,69.863571 153.514511,74.337204 
	C150.545471,77.150238 148.059341,80.465897 145.235992,83.441673 
	C142.332230,86.502205 139.286331,89.428131 136.294846,92.405136 
	C131.077011,97.597710 125.891708,102.823769 120.620674,107.961838 
	C115.727379,112.731720 110.662239,117.327461 105.835915,122.162727 
	C104.138046,123.863739 103.139275,126.259262 101.452621,127.975319 
	C92.784988,136.794098 85.069870,147.147964 74.923462,153.731216 
	C66.291687,159.331711 63.661827,169.328171 55.339516,174.312012 
	C51.309708,176.725266 47.066059,178.781433 42.541744,181.000061 
	C43.144329,174.496811 44.124393,167.992767 45.335800,161.188782 
z"/>
<path fill="#F89222" opacity="1.000000" stroke="none" 
	d="
M41.096325,205.445679 
	C45.226685,202.045929 49.712631,199.528824 53.271671,196.060532 
	C62.283661,187.278351 70.772766,177.962418 79.672272,169.061203 
	C88.418137,160.313644 97.514801,151.916962 106.267693,143.176208 
	C115.365128,134.091370 124.069435,124.609947 133.244171,115.606125 
	C146.470779,102.625900 160.055618,90.011086 173.309097,77.057724 
	C179.598495,70.910751 185.490662,64.356102 191.533264,57.958271 
	C196.032852,53.194145 200.485031,48.385246 205.000885,43.239716 
	C209.098511,42.880993 213.153580,42.878841 217.647263,43.339622 
	C219.270828,46.249020 218.854996,47.748405 216.348633,49.503307 
	C213.249008,51.673615 210.870117,54.870396 208.165787,57.609833 
	C207.261459,58.525909 206.369431,59.466938 205.377106,60.281178 
	C200.102753,64.609024 194.483124,68.573517 189.590698,73.293655 
	C184.441757,78.261292 180.150162,84.105255 175.171417,89.264732 
	C169.018478,95.641022 162.496414,101.660172 156.275772,107.973495 
	C155.605942,108.653313 155.878754,110.261925 155.457275,111.695435 
	C138.378082,120.893471 125.688980,134.020248 116.052025,150.121277 
	C112.044327,147.959427 110.936813,151.657425 109.269173,153.398575 
	C100.981705,162.051346 93.832420,171.703613 84.397697,179.379837 
	C78.208717,184.415314 73.367958,191.076324 67.670235,196.755356 
	C61.009106,203.394653 54.129719,209.819748 47.207687,216.188507 
	C45.817242,217.467804 43.810692,218.077499 42.088215,218.995926 
	C41.735428,214.629013 41.382645,210.262100 41.096325,205.445679 
z"/>
<path fill="#C53245" opacity="1.000000" stroke="none" 
	d="
M360.123840,216.550415 
	C356.722992,219.442886 353.098938,221.535767 350.225128,224.385269 
	C326.975891,247.437851 303.895325,270.660400 280.704468,293.772064 
	C269.108704,305.328247 257.364655,316.735535 245.735092,328.257996 
	C236.586136,337.322693 227.495895,346.446899 218.430176,355.594818 
	C217.768463,356.262512 217.518127,357.337921 217.036499,358.570801 
	C212.259888,359.224640 207.523300,359.531433 202.395905,359.323547 
	C206.208618,353.850098 210.148041,348.633514 214.678009,343.993469 
	C221.348816,337.160614 228.560715,330.858978 235.317719,324.106506 
	C241.465424,317.962921 247.159241,311.364105 253.328201,305.243164 
	C264.194977,294.460968 275.340424,283.960052 286.241272,273.211670 
	C298.220825,261.399689 310.056580,249.441910 321.953857,237.546524 
	C333.128143,226.374008 344.259644,215.158051 355.526215,204.079453 
	C356.944977,202.684357 359.070892,202.008438 360.869171,200.999298 
	C360.662231,206.033340 360.455261,211.067383 360.123840,216.550415 
z"/>
<path fill="#D13D42" opacity="1.000000" stroke="none" 
	d="
M192.985535,359.385376 
	C188.188324,359.084351 183.391129,358.783325 178.603821,358.249603 
	C179.444794,357.580627 180.447159,357.315277 181.080002,356.681122 
	C186.442032,351.308167 191.698929,345.830292 197.058884,340.455170 
	C211.846954,325.625275 226.701462,310.861328 241.422226,295.965088 
	C242.688004,294.684235 243.157684,292.616669 244.233063,290.667542 
	C263.582764,281.301727 277.059387,266.582428 287.018494,247.985596 
	C289.296509,246.799957 291.485779,245.912994 293.031189,244.377853 
	C313.535583,224.009537 333.927582,203.528122 354.434082,183.161911 
	C355.849670,181.755981 357.950500,181.039963 359.732697,180.003113 
	C360.133881,184.043381 360.535034,188.083664 360.499634,192.569458 
	C355.901398,196.375519 351.412079,199.406586 347.639191,203.158188 
	C336.190979,214.541824 325.137360,226.321945 313.707550,237.724640 
	C302.493835,248.911789 290.867065,259.685455 279.673859,270.892578 
	C263.338562,287.248108 247.316849,303.916718 230.992889,320.283722 
	C219.478088,331.828857 207.652191,343.063263 196.057007,354.529266 
	C194.730042,355.841431 193.995026,357.752197 192.985535,359.385376 
z"/>
<path fill="#F68827" opacity="1.000000" stroke="none" 
	d="
M57.415562,272.171631 
	C53.659851,262.366516 49.904140,252.561386 46.498623,242.332626 
	C48.898170,239.811920 50.862843,237.623291 53.012791,235.634995 
	C59.412720,229.716309 66.090874,224.083908 72.281540,217.956924 
	C81.525002,208.808563 90.372192,199.260605 99.566132,190.060684 
	C101.340096,188.285583 103.933067,187.328934 106.184998,186.463333 
	C106.803314,199.621811 107.384872,212.311661 107.603271,225.005310 
	C106.335098,225.344391 105.181557,225.431290 104.561691,226.051559 
	C91.717010,238.904633 78.970276,251.855713 66.106590,264.689606 
	C63.407734,267.382202 60.322662,269.687744 57.415562,272.171631 
z"/>
<path fill="#F68827" opacity="1.000000" stroke="none" 
	d="
M241.998672,47.118256 
	C251.852875,50.558701 261.707062,53.999146 271.749756,58.053505 
	C271.746704,59.120060 271.670837,59.690582 271.346954,60.008312 
	C259.552948,71.578560 247.642807,83.032654 235.989029,94.741966 
	C233.158493,97.586014 231.161499,101.259659 228.383652,104.476822 
	C215.654312,103.324036 203.322556,102.246269 191.021454,100.804787 
	C191.701416,99.320312 192.137863,97.980423 193.032028,97.111687 
	C206.385895,84.137718 219.889557,71.316460 233.138016,58.236469 
	C236.486572,54.930481 239.065872,50.845348 241.998672,47.118256 
z"/>
<path fill="#F57F2B" opacity="1.000000" stroke="none" 
	d="
M57.512932,272.533447 
	C60.322662,269.687744 63.407734,267.382202 66.106590,264.689606 
	C78.970276,251.855713 91.717010,238.904633 104.561691,226.051559 
	C105.181557,225.431290 106.335098,225.344391 107.811203,225.331360 
	C111.848297,235.105637 115.314323,244.557632 118.440491,254.054047 
	C116.347816,255.307785 114.365082,256.288177 112.887810,257.771851 
	C109.293083,261.382141 106.078369,265.373779 102.448975,268.946014 
	C94.095871,277.167694 85.548798,285.192169 77.179893,293.398102 
	C75.820602,294.730927 74.970688,296.583282 73.885323,298.195496 
	C68.460312,289.762085 63.035309,281.328644 57.512932,272.533447 
z"/>
<path fill="#F26232" opacity="1.000000" stroke="none" 
	d="
M321.062500,94.973053 
	C326.759338,102.703003 332.456177,110.432961 337.927856,118.644623 
	C326.314575,130.404678 315.055511,141.818161 303.463165,152.882523 
	C299.782684,156.395370 295.214478,158.978104 290.853088,161.690094 
	C285.969513,152.974899 281.285309,144.556091 276.943024,136.009811 
	C280.690674,132.587570 284.132935,129.329529 287.494751,125.990540 
	C294.970093,118.565987 302.282623,110.972168 309.912476,103.711044 
	C313.317322,100.470726 317.327209,97.866150 321.062500,94.973053 
z"/>
<path fill="#F3702F" opacity="1.000000" stroke="none" 
	d="
M320.936768,94.661385 
	C317.327209,97.866150 313.317322,100.470726 309.912476,103.711044 
	C302.282623,110.972168 294.970093,118.565987 287.494751,125.990540 
	C284.132935,129.329529 280.690674,132.587570 276.660095,135.856979 
	C269.333649,129.576141 262.632080,123.320679 255.981262,116.717361 
	C260.178253,111.922760 264.193817,107.344894 268.497162,103.055809 
	C278.321350,93.264214 288.286438,83.614029 298.194275,73.906395 
	C305.733215,80.720833 313.272125,87.535278 320.936768,94.661385 
z"/>
<path fill="#F57F2B" opacity="1.000000" stroke="none" 
	d="
M298.019104,73.613930 
	C288.286438,83.614029 278.321350,93.264214 268.497162,103.055809 
	C264.193817,107.344894 260.178253,111.922760 255.645767,116.644157 
	C246.433411,112.796478 237.607330,108.674164 228.781250,104.551849 
	C231.161499,101.259659 233.158493,97.586014 235.989029,94.741966 
	C247.642807,83.032654 259.552948,71.578560 271.346954,60.008312 
	C271.670837,59.690582 271.746704,59.120060 271.974060,58.321136 
	C280.621277,63.090393 289.232605,68.205933 298.019104,73.613930 
z"/>
<path fill="#E44C3A" opacity="1.000000" stroke="none" 
	d="
M349.759430,141.009140 
	C352.155548,148.410706 354.551666,155.812271 356.583588,163.646210 
	C354.821381,165.210556 353.309692,166.228500 352.042572,167.491745 
	C335.254486,184.228180 318.535187,201.033829 301.688446,217.710815 
	C299.883240,219.497803 297.385590,220.585266 295.186462,221.594330 
	C295.777069,210.792496 296.390442,200.393555 297.348175,189.961884 
	C303.417236,184.700653 309.329102,179.660690 314.826599,174.203369 
	C325.398468,163.708801 335.710175,152.952438 346.220062,142.394562 
	C347.038177,141.572723 348.563049,141.454422 349.759430,141.009140 
z"/>
<path fill="#F78F23" opacity="1.000000" stroke="none" 
	d="
M106.148224,185.994720 
	C103.933067,187.328934 101.340096,188.285583 99.566132,190.060684 
	C90.372192,199.260605 81.525002,208.808563 72.281540,217.956924 
	C66.090874,224.083908 59.412720,229.716309 53.012791,235.634995 
	C50.862843,237.623291 48.898170,239.811920 46.515228,241.949570 
	C44.775585,234.610580 43.369534,227.231003 42.025848,219.423676 
	C43.810692,218.077499 45.817242,217.467804 47.207687,216.188507 
	C54.129719,209.819748 61.009106,203.394653 67.670235,196.755356 
	C73.367958,191.076324 78.208717,184.415314 84.397697,179.379837 
	C93.832420,171.703613 100.981705,162.051346 109.269173,153.398575 
	C110.936813,151.657425 112.044327,147.959427 116.003281,150.463821 
	C112.812904,162.741776 109.480560,174.368256 106.148224,185.994720 
z"/>
<path fill="#F3702F" opacity="1.000000" stroke="none" 
	d="
M73.986954,298.516907 
	C74.970688,296.583282 75.820602,294.730927 77.179893,293.398102 
	C85.548798,285.192169 94.095871,277.167694 102.448975,268.946014 
	C106.078369,265.373779 109.293083,261.382141 112.887810,257.771851 
	C114.365082,256.288177 116.347816,255.307785 118.652130,254.332565 
	C124.269623,261.109558 129.335632,267.652466 134.251266,274.554626 
	C120.444504,288.703552 106.791901,302.496979 93.114876,316.266174 
	C92.669495,316.714539 91.974945,316.915375 91.396545,317.231628 
	C85.627228,311.100494 79.857910,304.969391 73.986954,298.516907 
z"/>
<path fill="#EB5737" opacity="1.000000" stroke="none" 
	d="
M349.712585,140.659058 
	C348.563049,141.454422 347.038177,141.572723 346.220062,142.394562 
	C335.710175,152.952438 325.398468,163.708801 314.826599,174.203369 
	C309.329102,179.660690 303.417236,184.700653 297.223999,189.567596 
	C294.854431,180.132858 292.953461,171.059677 291.052490,161.986496 
	C295.214478,158.978104 299.782684,156.395370 303.463165,152.882523 
	C315.055511,141.818161 326.314575,130.404678 338.035339,118.983376 
	C342.133911,125.996605 345.899841,133.152802 349.712585,140.659058 
z"/>
<path fill="#F78F23" opacity="1.000000" stroke="none" 
	d="
M241.627213,46.989189 
	C239.065872,50.845348 236.486572,54.930481 233.138016,58.236469 
	C219.889557,71.316460 206.385895,84.137718 193.032028,97.111687 
	C192.137863,97.980423 191.701416,99.320312 190.659943,100.966019 
	C178.162125,102.765541 166.739639,106.412971 155.714279,111.439690 
	C155.878754,110.261925 155.605942,108.653313 156.275772,107.973495 
	C162.496414,101.660172 169.018478,95.641022 175.171417,89.264732 
	C180.150162,84.105255 184.441757,78.261292 189.590698,73.293655 
	C194.483124,68.573517 200.102753,64.609024 205.377106,60.281178 
	C206.369431,59.466938 207.261459,58.525909 208.165787,57.609833 
	C210.870117,54.870396 213.249008,51.673615 216.348633,49.503307 
	C218.854996,47.748405 219.270828,46.249020 218.043503,43.445335 
	C225.752686,44.345455 233.504211,45.602791 241.627213,46.989189 
z"/>
<path fill="#E44C3A" opacity="1.000000" stroke="none" 
	d="
M164.959747,355.943817 
	C157.746201,353.942200 150.532639,351.940613 143.136688,349.313416 
	C144.129318,347.131592 145.142456,345.414398 146.504486,344.044006 
	C159.964172,330.501648 173.499146,317.034119 186.953445,303.486481 
	C188.181335,302.250061 188.997360,300.604645 190.446960,299.098907 
	C199.793350,298.911591 208.697433,298.774506 217.685791,298.996887 
	C216.248734,301.668762 215.043655,304.290649 213.143448,306.232208 
	C208.497711,310.979004 203.432953,315.312683 198.712631,319.990082 
	C187.866898,330.737213 177.102249,341.566772 166.389252,352.446106 
	C165.571793,353.276245 165.420639,354.762543 164.959747,355.943817 
z"/>
<path fill="#CB3743" opacity="1.000000" stroke="none" 
	d="
M193.394852,359.598511 
	C193.995026,357.752197 194.730042,355.841431 196.057007,354.529266 
	C207.652191,343.063263 219.478088,331.828857 230.992889,320.283722 
	C247.316849,303.916718 263.338562,287.248108 279.673859,270.892578 
	C290.867065,259.685455 302.493835,248.911789 313.707550,237.724640 
	C325.137360,226.321945 336.190979,214.541824 347.639191,203.158188 
	C351.412079,199.406586 355.901398,196.375519 360.420715,193.005753 
	C360.860504,195.371460 360.942749,197.746414 360.947083,200.560333 
	C359.070892,202.008438 356.944977,202.684357 355.526215,204.079453 
	C344.259644,215.158051 333.128143,226.374008 321.953857,237.546524 
	C310.056580,249.441910 298.220825,261.399689 286.241272,273.211670 
	C275.340424,283.960052 264.194977,294.460968 253.328201,305.243164 
	C247.159241,311.364105 241.465424,317.962921 235.317719,324.106506 
	C228.560715,330.858978 221.348816,337.160614 214.678009,343.993469 
	C210.148041,348.633514 206.208618,353.850098 201.998596,359.149017 
	C199.262787,359.596680 196.533463,359.704132 193.394852,359.598511 
z"/>
<path fill="#F05C33" opacity="1.000000" stroke="none" 
	d="
M126.821655,342.332428 
	C120.478348,338.526245 114.135033,334.720062 107.945770,330.460388 
	C121.649673,316.579224 135.213425,303.165466 148.712097,289.686554 
	C149.459091,288.940674 149.666458,287.654297 150.471161,286.733032 
	C157.587250,289.753876 164.357132,292.661194 171.076935,295.939758 
	C170.869797,296.780975 170.848801,297.385925 170.535934,297.701294 
	C160.034653,308.285797 149.471771,318.809357 138.997269,329.420135 
	C134.842361,333.629120 130.874603,338.022827 126.821655,342.332428 
z"/>
<path fill="#F26531" opacity="1.000000" stroke="none" 
	d="
M150.125000,286.619507 
	C149.666458,287.654297 149.459091,288.940674 148.712097,289.686554 
	C135.213425,303.165466 121.649673,316.579224 107.748398,330.166565 
	C102.171585,326.171692 96.946190,322.017151 91.558670,317.547119 
	C91.974945,316.915375 92.669495,316.714539 93.114876,316.266174 
	C106.791901,302.496979 120.444504,288.703552 134.540222,274.754852 
	C140.028030,278.603699 145.076508,282.611603 150.125000,286.619507 
z"/>
<path fill="#DA433E" opacity="1.000000" stroke="none" 
	d="
M295.209167,221.997223 
	C297.385590,220.585266 299.883240,219.497803 301.688446,217.710815 
	C318.535187,201.033829 335.254486,184.228180 352.042572,167.491745 
	C353.309692,166.228500 354.821381,165.210556 356.556396,164.039886 
	C357.877808,169.066498 358.862213,174.131821 359.789673,179.600128 
	C357.950500,181.039963 355.849670,181.755981 354.434082,183.161911 
	C333.927582,203.528122 313.535583,224.009537 293.031189,244.377853 
	C291.485779,245.912994 289.296509,246.799957 287.123199,247.619354 
	C289.629639,238.832748 292.419403,230.414993 295.209167,221.997223 
z"/>
<path fill="#DA433E" opacity="1.000000" stroke="none" 
	d="
M165.321655,356.105743 
	C165.420639,354.762543 165.571793,353.276245 166.389252,352.446106 
	C177.102249,341.566772 187.866898,330.737213 198.712631,319.990082 
	C203.432953,315.312683 208.497711,310.979004 213.143448,306.232208 
	C215.043655,304.290649 216.248734,301.668762 217.728561,299.014954 
	C217.687057,298.673553 217.737854,298.749573 217.973114,298.775574 
	C218.539001,298.740540 218.790604,298.565826 219.363007,298.164185 
	C227.840942,295.672180 235.919052,293.293365 243.997177,290.914551 
	C243.157684,292.616669 242.688004,294.684235 241.422226,295.965088 
	C226.701462,310.861328 211.846954,325.625275 197.058884,340.455170 
	C191.698929,345.830292 186.442032,351.308167 181.080002,356.681122 
	C180.447159,357.315277 179.444794,357.580627 178.245056,358.043121 
	C173.812103,357.468750 169.747818,356.868225 165.321655,356.105743 
z"/>
<path fill="#EB5737" opacity="1.000000" stroke="none" 
	d="
M126.995789,342.634338 
	C130.874603,338.022827 134.842361,333.629120 138.997269,329.420135 
	C149.471771,318.809357 160.034653,308.285797 170.535934,297.701294 
	C170.848801,297.385925 170.869797,296.780975 171.478668,296.005127 
	C177.955185,296.849213 183.979904,297.999176 190.004639,299.149139 
	C188.997360,300.604645 188.181335,302.250061 186.953445,303.486481 
	C173.499146,317.034119 159.964172,330.501648 146.504486,344.044006 
	C145.142456,345.414398 144.129318,347.131592 142.883636,349.062256 
	C137.598648,347.269867 132.384293,345.103088 126.995789,342.634338 
z"/>
<path fill="#FCFBFA" opacity="1.000000" stroke="none" 
	d="
M190.446960,299.098907 
	C183.979904,297.999176 177.955185,296.849213 171.528748,295.633850 
	C164.357132,292.661194 157.587250,289.753876 150.471176,286.733032 
	C145.076508,282.611603 140.028030,278.603699 134.690582,274.395569 
	C129.335632,267.652466 124.269623,261.109558 118.991989,254.288147 
	C115.314323,244.557632 111.848297,235.105637 108.174347,225.327576 
	C107.384872,212.311661 106.803314,199.621811 106.184998,186.463333 
	C109.480560,174.368256 112.812904,162.741776 116.193985,150.772766 
	C125.688980,134.020248 138.378082,120.893471 155.457275,111.695435 
	C166.739639,106.412971 178.162125,102.765541 190.629303,101.329727 
	C203.322556,102.246269 215.654312,103.324036 228.383652,104.476822 
	C237.607330,108.674164 246.433411,112.796478 255.594986,116.992004 
	C262.632080,123.320679 269.333649,129.576141 276.318176,135.984451 
	C281.285309,144.556091 285.969513,152.974899 290.853088,161.690094 
	C292.953461,171.059677 294.854431,180.132858 296.879578,189.600311 
	C296.390442,200.393555 295.777069,210.792496 295.186462,221.594345 
	C292.419403,230.414993 289.629639,238.832748 286.735168,247.616730 
	C277.059387,266.582428 263.582764,281.301727 244.233063,290.667542 
	C235.919052,293.293365 227.840942,295.672180 219.120209,298.125610 
	C218.094604,298.199646 217.848022,298.382782 217.737854,298.749573 
	C217.737854,298.749573 217.687057,298.673553 217.644287,298.655487 
	C208.697433,298.774506 199.793350,298.911591 190.446960,299.098907 
M130.808228,231.818542 
	C133.416443,236.253510 136.024658,240.688461 138.752838,245.826324 
	C143.421631,250.584839 148.090408,255.343353 153.091721,260.714508 
	C159.052902,264.144104 165.014084,267.573700 171.566696,271.450134 
	C177.371948,272.939423 183.177216,274.428741 189.792725,276.162201 
	C196.851639,276.127960 203.910553,276.093750 211.826889,276.191620 
	C225.097244,274.888855 237.030197,270.055939 247.444565,261.861084 
	C264.262756,248.627213 274.723663,231.638565 277.076691,209.169876 
	C276.403564,200.110764 275.730438,191.051651 275.096802,181.212585 
	C273.447906,176.766159 272.250153,172.077805 270.030060,167.937653 
	C267.538483,163.291153 264.122925,159.140121 261.119873,154.074631 
	C255.889252,148.986649 250.658630,143.898651 244.996902,138.248245 
	C238.349579,135.111450 231.702255,131.974640 224.495010,128.351898 
	C217.329742,127.291626 210.164474,126.231346 202.084869,125.037102 
	C195.481705,125.718369 188.728149,125.735657 182.300476,127.191612 
	C147.676239,135.034454 122.448975,168.084763 124.683754,202.917587 
	C125.754066,209.679810 126.824379,216.442032 127.876923,223.929810 
	C128.824600,226.315079 129.772278,228.700333 130.808228,231.818542 
z"/>
<path fill="#E44C3A" opacity="1.000000" stroke="none" 
	d="
M217.973114,298.775574 
	C217.848022,298.382782 218.094604,298.199646 218.720398,298.238770 
	C218.790604,298.565826 218.539001,298.740540 217.973114,298.775574 
z"/>
<path fill="#EB5737" opacity="1.000000" stroke="none" 
	d="
M275.057343,181.992538 
	C275.730438,191.051651 276.403564,200.110764 276.593933,209.589050 
	C274.506378,211.073303 272.656433,211.897644 271.336365,213.242233 
	C262.309845,222.436478 253.523010,231.868500 244.408676,240.973404 
	C234.531677,250.840118 224.325424,260.376831 214.412186,270.208160 
	C212.858429,271.749023 212.097153,274.089020 210.969452,276.059509 
	C203.910553,276.093750 196.851639,276.127960 189.398682,275.680786 
	C190.050781,273.585297 190.861496,271.740204 192.181595,270.394958 
	C200.211334,262.212067 208.404724,254.189346 216.397217,245.970917 
	C217.289948,245.052963 217.261734,243.239380 217.911102,241.587616 
	C231.629379,235.545349 238.678360,224.665176 242.576538,210.996643 
	C243.818680,210.616959 244.929321,210.467422 245.556549,209.836945 
	C254.127899,201.221283 262.599823,192.506439 271.198914,183.918884 
	C272.163879,182.955200 273.756042,182.619476 275.057343,181.992538 
z"/>
<path fill="#F68729" opacity="1.000000" stroke="none" 
	d="
M124.812836,201.999100 
	C122.448975,168.084763 147.676239,135.034454 182.300476,127.191612 
	C188.728149,125.735657 195.481705,125.718369 202.497833,125.439102 
	C199.878204,128.814163 196.797287,131.739777 193.822525,134.769608 
	C186.307953,142.423264 178.927399,150.210297 171.333160,157.783478 
	C161.990753,167.100021 152.418076,176.185715 143.080353,185.506866 
	C138.428833,190.150116 134.173203,195.189774 129.526321,199.838013 
	C128.380768,200.983871 126.406265,201.300995 124.812836,201.999100 
z"/>
<path fill="#F6812B" opacity="1.000000" stroke="none" 
	d="
M124.748291,202.458344 
	C126.406265,201.300995 128.380768,200.983871 129.526321,199.838013 
	C134.173203,195.189774 138.428833,190.150116 143.080353,185.506866 
	C152.418076,176.185715 161.990753,167.100021 171.333160,157.783478 
	C178.927399,150.210297 186.307953,142.423264 193.822525,134.769608 
	C196.797287,131.739777 199.878204,128.814163 202.954987,125.506088 
	C210.164474,126.231346 217.329742,127.291626 224.732056,128.950836 
	C223.870407,130.975571 222.904190,132.531784 221.650635,133.805099 
	C215.456070,140.097336 209.145905,146.276062 202.975449,152.591461 
	C201.755020,153.840530 200.968643,155.513687 199.572174,157.083450 
	C184.962280,158.167923 173.012466,163.808868 165.271851,175.888412 
	C162.045273,180.923599 161.111511,187.428040 158.960693,192.988953 
	C157.818695,193.016113 156.566925,193.031708 155.927200,193.665283 
	C148.675537,200.847351 141.463120,208.071304 134.365280,215.405121 
	C132.022949,217.825333 130.041275,220.594589 127.894691,223.204254 
	C126.824379,216.442032 125.754066,209.679810 124.748291,202.458344 
z"/>
<path fill="#E5503B" opacity="1.000000" stroke="none" 
	d="
M211.398163,276.125549 
	C212.097153,274.089020 212.858429,271.749023 214.412186,270.208160 
	C224.325424,260.376831 234.531677,250.840118 244.408676,240.973404 
	C253.523010,231.868500 262.309845,222.436478 271.336365,213.242233 
	C272.656433,211.897644 274.506378,211.073303 276.463989,209.999191 
	C274.723663,231.638565 264.262756,248.627213 247.444565,261.861084 
	C237.030197,270.055939 225.097244,274.888855 211.398163,276.125549 
z"/>
<path fill="#F26232" opacity="1.000000" stroke="none" 
	d="
M275.077087,181.602570 
	C273.756042,182.619476 272.163879,182.955200 271.198914,183.918884 
	C262.599823,192.506439 254.127899,201.221283 245.556549,209.836945 
	C244.929321,210.467422 243.818680,210.616959 242.539825,210.579041 
	C244.364792,198.521606 242.593460,187.477615 237.472778,176.953049 
	C245.575485,169.535187 253.342422,162.154358 261.109344,154.773529 
	C264.122925,159.140121 267.538483,163.291153 270.030060,167.937653 
	C272.250153,172.077805 273.447906,176.766159 275.077087,181.602570 
z"/>
<path fill="#F3702F" opacity="1.000000" stroke="none" 
	d="
M261.114624,154.424088 
	C253.342422,162.154358 245.575485,169.535187 237.224091,176.718811 
	C232.086746,172.018021 227.533875,167.514450 222.990433,162.644958 
	C223.227844,161.499084 223.214615,160.474594 223.720139,159.975983 
	C230.914948,152.879166 238.179962,145.853516 245.428009,138.810669 
	C250.658630,143.898651 255.889252,148.986649 261.114624,154.424088 
z"/>
<path fill="#F4782E" opacity="1.000000" stroke="none" 
	d="
M245.212463,138.529465 
	C238.179962,145.853516 230.914948,152.879166 223.720139,159.975983 
	C223.214615,160.474594 223.227844,161.499084 222.636047,162.614243 
	C215.589355,158.168091 207.664032,158.034988 199.982101,156.991272 
	C200.968643,155.513687 201.755020,153.840530 202.975449,152.591461 
	C209.145905,146.276062 215.456070,140.097336 221.650635,133.805099 
	C222.904190,132.531784 223.870407,130.975571 225.012009,129.193802 
	C231.702255,131.974640 238.349579,135.111450 245.212463,138.529465 
z"/>
<path fill="#F3702F" opacity="1.000000" stroke="none" 
	d="
M152.759201,260.101868 
	C148.090408,255.343353 143.421631,250.584839 139.064362,245.420380 
	C147.381393,237.430496 155.386871,229.846558 163.620850,222.542038 
	C168.288406,228.190018 172.727478,233.558578 176.810822,238.973694 
	C170.648758,244.321381 164.865311,249.647934 159.023590,254.909805 
	C157.010132,256.723389 154.851501,258.375824 152.759201,260.101868 
z"/>
<path fill="#F26531" opacity="1.000000" stroke="none" 
	d="
M152.925461,260.408203 
	C154.851501,258.375824 157.010132,256.723389 159.023590,254.909805 
	C164.865311,249.647934 170.648758,244.321381 177.183563,238.954391 
	C183.609467,240.699051 189.306870,242.509567 194.996643,244.668930 
	C194.892426,245.498871 194.962418,246.142365 194.674881,246.437180 
	C188.037735,253.242783 181.349976,259.999023 174.702911,266.795013 
	C173.394180,268.133026 172.214478,269.597260 170.975266,271.003296 
	C165.014084,267.573700 159.052902,264.144104 152.925461,260.408203 
z"/>
<path fill="#F05C33" opacity="1.000000" stroke="none" 
	d="
M171.270981,271.226715 
	C172.214478,269.597260 173.394180,268.133026 174.702911,266.795013 
	C181.349976,259.999023 188.037735,253.242783 194.674881,246.437180 
	C194.962418,246.142365 194.892426,245.498871 195.350037,244.621948 
	C196.170990,244.328110 196.630905,244.430115 197.163177,244.610382 
	C197.235550,244.688629 197.529465,244.781357 197.529465,244.781357 
	C197.529465,244.781357 197.828079,244.685532 198.273346,244.595642 
	C200.529572,244.546906 202.340530,244.588074 204.245071,244.686417 
	C204.572281,244.795822 204.760452,244.720474 205.316833,244.383392 
	C209.707214,243.446533 213.683914,242.643845 217.660614,241.841156 
	C217.261734,243.239380 217.289948,245.052963 216.397217,245.970917 
	C208.404724,254.189346 200.211334,262.212067 192.181595,270.394958 
	C190.861496,271.740204 190.050781,273.585297 188.993561,275.558716 
	C183.177216,274.428741 177.371948,272.939423 171.270981,271.226715 
z"/>
<path fill="#F4782E" opacity="1.000000" stroke="none" 
	d="
M163.392365,222.262634 
	C155.386871,229.846558 147.381393,237.430496 139.004395,245.068924 
	C136.024658,240.688461 133.416443,236.253510 131.131393,231.403503 
	C132.503647,230.228409 133.690506,229.602219 134.579803,228.686905 
	C141.050018,222.027435 147.391342,215.240936 153.948898,208.669708 
	C155.229080,207.386871 157.275085,206.868210 159.092133,206.400879 
	C160.608414,211.957336 162.000381,217.109985 163.392365,222.262634 
z"/>
<path fill="#F57F2B" opacity="1.000000" stroke="none" 
	d="
M158.967850,205.997086 
	C157.275085,206.868210 155.229080,207.386871 153.948898,208.669708 
	C147.391342,215.240936 141.050018,222.027435 134.579803,228.686905 
	C133.690506,229.602219 132.503647,230.228409 131.087250,231.037033 
	C129.772278,228.700333 128.824600,226.315079 127.885803,223.567032 
	C130.041275,220.594589 132.022949,217.825333 134.365280,215.405121 
	C141.463120,208.071304 148.675537,200.847351 155.927200,193.665283 
	C156.566925,193.031708 157.818695,193.016113 159.017242,193.428558 
	C159.154800,198.094788 159.061325,202.045944 158.967850,205.997086 
z"/>
<path fill="#FDFDFD" opacity="1.000000" stroke="none" 
	d="
M159.092133,206.400879 
	C159.061325,202.045944 159.154800,198.094788 159.191742,193.704025 
	C161.111511,187.428040 162.045273,180.923599 165.271851,175.888412 
	C173.012466,163.808868 184.962280,158.167923 199.572174,157.083450 
	C207.664032,158.034988 215.589355,158.168091 222.626617,162.980164 
	C227.533875,167.514450 232.086746,172.018021 236.888336,176.755829 
	C242.593460,187.477615 244.364792,198.521606 242.183594,210.585587 
	C238.678360,224.665176 231.629379,235.545349 217.911118,241.587616 
	C213.683914,242.643845 209.707214,243.446533 205.115662,244.321625 
	C204.500824,244.394043 204.151505,244.629242 204.151505,244.629242 
	C202.340530,244.588074 200.529572,244.546906 198.109039,244.461029 
	C197.499481,244.416336 197.090805,244.532104 197.090805,244.532104 
	C196.630905,244.430115 196.170990,244.328110 195.357697,244.273087 
	C189.306870,242.509567 183.609467,240.699051 177.539307,238.907837 
	C172.727478,233.558578 168.288406,228.190018 163.620850,222.542053 
	C162.000381,217.109985 160.608414,211.957336 159.092133,206.400879 
z"/>
<path fill="#F26531" opacity="1.000000" stroke="none" 
	d="
M204.245071,244.686432 
	C204.151505,244.629242 204.500824,244.394043 204.701996,244.455811 
	C204.760452,244.720474 204.572281,244.795822 204.245071,244.686432 
z"/>
<path fill="#F26531" opacity="1.000000" stroke="none" 
	d="
M197.163177,244.610367 
	C197.090805,244.532104 197.499481,244.416336 197.663788,244.550934 
	C197.828079,244.685532 197.529465,244.781357 197.529465,244.781357 
	C197.529465,244.781357 197.235550,244.688629 197.163177,244.610367 
z"/>
</svg>