<svg width="24" height="24" viewBox="0 0 24 24" fill="none" xmlns="http://www.w3.org/2000/svg">
<path d="M22.08 0H1.92C0.859613 0 0 0.859613 0 1.92V22.08C0 23.1404 0.859613 24 1.92 24H22.08C23.1404 24 24 23.1404 24 22.08V1.92C24 0.859613 23.1404 0 22.08 0Z" fill="url(#paint0_radial_1701_9087)"/>
<path d="M22.08 0H1.92C0.859613 0 0 0.859613 0 1.92V22.08C0 23.1404 0.859613 24 1.92 24H22.08C23.1404 24 24 23.1404 24 22.08V1.92C24 0.859613 23.1404 0 22.08 0Z" fill="url(#paint1_radial_1701_9087)" fill-opacity="0.57"/>
<path d="M22.08 0H1.92C0.859613 0 0 0.859613 0 1.92V22.08C0 23.1404 0.859613 24 1.92 24H22.08C23.1404 24 24 23.1404 24 22.08V1.92C24 0.859613 23.1404 0 22.08 0Z" fill="url(#paint2_radial_1701_9087)" fill-opacity="0.68"/>
<path d="M22.08 0H1.92C0.859613 0 0 0.859613 0 1.92V22.08C0 23.1404 0.859613 24 1.92 24H22.08C23.1404 24 24 23.1404 24 22.08V1.92C24 0.859613 23.1404 0 22.08 0Z" fill="url(#paint3_radial_1701_9087)" fill-opacity="0.08"/>
<path d="M22.08 0H1.92C0.859613 0 0 0.859613 0 1.92V22.08C0 23.1404 0.859613 24 1.92 24H22.08C23.1404 24 24 23.1404 24 22.08V1.92C24 0.859613 23.1404 0 22.08 0Z" fill="black"/>
<path d="M8.4473 20.4001V12.9601L15.4793 20.4001H19.3913V20.2081L11.3033 11.7361L18.7673 3.6961V3.6001H14.8313L8.4473 10.7041V3.6001H5.2793V20.4001H8.4473Z" fill="white"/>
<defs>
<radialGradient id="paint0_radial_1701_9087" cx="0" cy="0" r="1" gradientUnits="userSpaceOnUse" gradientTransform="translate(-18.5778 11.4859) rotate(140.172) scale(41.2803 49.8139)">
<stop stop-color="#2F80F2"/>
<stop offset="0.999657" stop-color="#A942B5"/>
</radialGradient>
<radialGradient id="paint1_radial_1701_9087" cx="0" cy="0" r="1" gradientUnits="userSpaceOnUse" gradientTransform="translate(-0.388744 0.3738) rotate(46.3208) scale(38.1858 40.0133)">
<stop stop-color="#45F9DE"/>
<stop offset="1" stop-color="#A942B5" stop-opacity="0"/>
</radialGradient>
<radialGradient id="paint2_radial_1701_9087" cx="0" cy="0" r="1" gradientUnits="userSpaceOnUse" gradientTransform="translate(-23.76 -12.1773) rotate(180) scale(23.0505 11.8701)">
<stop stop-color="#E957C5"/>
<stop offset="1" stop-color="#A942B5" stop-opacity="0"/>
</radialGradient>
<radialGradient id="paint3_radial_1701_9087" cx="0" cy="0" r="1" gradientUnits="userSpaceOnUse" gradientTransform="translate(-21.4106 1.47347) rotate(119.938) scale(13.8364 20.7435)">
<stop stop-opacity="0.184878"/>
<stop offset="1" stop-color="#101010"/>
</radialGradient>
</defs>
</svg>
