<svg width="16" height="14" viewBox="0 0 16 14" fill="none" xmlns="http://www.w3.org/2000/svg">
<path d="M15 1.5064C14.3906 1.93625 13.7159 2.26501 13.0018 2.48004C12.6186 2.03936 12.1092 1.72702 11.5427 1.58526C10.9761 1.4435 10.3797 1.47916 9.83405 1.68741C9.28842 1.89567 8.81992 2.26647 8.4919 2.74967C8.16388 3.23287 7.99217 3.80516 8 4.38913V5.02549C6.88168 5.05449 5.77354 4.80646 4.77428 4.3035C3.77502 3.80054 2.91566 3.05826 2.27273 2.14276C2.27273 2.14276 -0.272727 7.87004 5.45455 10.4155C4.14397 11.3051 2.58274 11.7512 1 11.6882C6.72727 14.87 13.7273 11.6882 13.7273 4.37004C13.7267 4.19278 13.7096 4.01596 13.6764 3.84185C14.3258 3.20135 14.7842 2.39267 15 1.5064Z" stroke="black" stroke-width="1.5" stroke-linecap="round" stroke-linejoin="round"/>
</svg>
