<svg width="24" height="24" viewBox="0 0 24 24" fill="none" xmlns="http://www.w3.org/2000/svg">
<mask id="mask0_1907_56363" style="mask-type:luminance" maskUnits="userSpaceOnUse" x="0" y="3" width="24" height="17">
<path d="M24 3.9964H0.00976562V19.9899H24V3.9964Z" fill="white"/>
</mask>
<g mask="url(#mask0_1907_56363)">
<path d="M21.2974 15.0434C21.2974 16.645 20.3589 17.7913 18.7337 18.5554C17.0965 19.3252 14.8019 19.6814 12.2218 19.6814C9.64191 19.6814 7.33149 19.3253 5.67836 18.5549C4.03636 17.7898 3.08521 16.6428 3.08521 15.0434C3.08521 13.4184 4.05842 11.9119 5.70657 10.7976C7.35295 9.68457 9.64494 8.98639 12.1913 8.98639C14.7376 8.98639 17.0295 9.68604 18.6761 10.7999C20.3243 11.9151 21.2974 13.4216 21.2974 15.0434Z" fill="black"/>
<path d="M2.0666 12.2968C5.2413 14.231 5.97049 17.4507 6.14329 18.958C6.17133 19.21 5.97223 19.4284 5.73118 19.4284H0.578217C0.570534 19.4284 0.566989 19.4273 0.566144 19.427C0.565173 19.4266 0.56447 19.4262 0.563555 19.4255C0.561206 19.4235 0.555929 19.4174 0.55296 19.4063C0.549991 19.3954 0.55137 19.3869 0.552791 19.3831C0.55341 19.3814 0.554198 19.38 0.555549 19.3783C0.55683 19.3768 0.560249 19.3731 0.568072 19.3685C0.568114 19.3685 0.568156 19.3685 0.568213 19.3683L1.47625 18.8335L1.70514 18.6987L1.61134 18.4502L1.60565 18.4523C1.61134 18.4502 1.61134 18.4502 1.61134 18.4502L1.61126 18.45L1.61085 18.449L1.60912 18.4443L1.60209 18.4255C1.59584 18.4086 1.58655 18.3834 1.57458 18.3506C1.5506 18.285 1.51588 18.1887 1.47312 18.0667C1.38758 17.8227 1.27012 17.4768 1.14274 17.0701C0.887234 16.254 0.594989 15.2028 0.43844 14.2403C0.36011 13.7588 0.317355 13.309 0.327368 12.9271C0.337569 12.5379 0.401984 12.2558 0.506359 12.0815C0.595706 11.9322 0.7166 11.8526 0.926786 11.8554C1.16784 11.8585 1.53524 11.973 2.0666 12.2968Z" fill="#454545"/>
<path d="M1.61134 18.4502L1.70514 18.6987L1.47625 18.8335L0.568213 19.3683C0.568156 19.3685 0.568114 19.3685 0.568072 19.3685C0.560249 19.3731 0.55683 19.3768 0.555549 19.3783C0.554198 19.38 0.55341 19.3814 0.552791 19.3831C0.55137 19.3869 0.549991 19.3954 0.55296 19.4063C0.555929 19.4174 0.561206 19.4235 0.563555 19.4255C0.56447 19.4262 0.565173 19.4266 0.566144 19.427C0.566989 19.4273 0.570534 19.4284 0.578217 19.4284H5.73118C5.97223 19.4284 6.17133 19.21 6.14329 18.958C5.97049 17.4507 5.2413 14.231 2.0666 12.2968C1.53524 11.973 1.16784 11.8585 0.926786 11.8554C0.7166 11.8526 0.595706 11.9322 0.506359 12.0815C0.401984 12.2558 0.337569 12.5379 0.327368 12.9271C0.317355 13.309 0.36011 13.7588 0.43844 14.2403C0.594989 15.2028 0.887234 16.254 1.14274 17.0701C1.27012 17.4768 1.38758 17.8227 1.47312 18.0667C1.51588 18.1887 1.5506 18.285 1.57458 18.3506C1.58655 18.3834 1.59584 18.4086 1.60209 18.4255L1.60912 18.4443L1.61085 18.449L1.61126 18.45L1.61134 18.4502ZM1.61134 18.4502L1.60565 18.4523C1.61134 18.4502 1.61134 18.4502 1.61134 18.4502Z" stroke="#454545" stroke-width="0.631146" stroke-linejoin="round"/>
<path d="M22.5192 18.4598L22.44 18.6923L22.646 18.8262L23.4678 19.3605L23.4681 19.3607C23.4729 19.3638 23.4751 19.3668 23.4773 19.3731C23.4804 19.3824 23.4818 19.3975 23.4777 19.4142C23.4763 19.4203 23.4744 19.4249 23.4728 19.4284H18.8298C18.666 19.4284 18.4627 19.2459 18.4912 18.9535C18.6409 17.4448 19.3086 14.2185 22.1649 12.289C22.6448 11.9655 22.9672 11.8583 23.1686 11.8553C23.262 11.854 23.3253 11.875 23.372 11.9043C23.4204 11.9346 23.4697 11.9852 23.5155 12.0697C23.6118 12.2475 23.6707 12.5344 23.68 12.9265C23.6893 13.311 23.6506 13.7628 23.5797 14.2451C23.4381 15.2095 23.1739 16.2621 22.943 17.0785C22.8278 17.4856 22.7215 17.8317 22.6443 18.0758C22.6056 18.1978 22.5742 18.2943 22.5525 18.36C22.5417 18.3928 22.5333 18.418 22.5276 18.4349L22.5213 18.4539L22.5196 18.4584L22.5193 18.4595L22.5192 18.4598C22.5192 18.4598 22.5192 18.4598 22.541 18.4673L22.5192 18.4598Z" fill="#454545"/>
<path d="M22.5192 18.4598L22.44 18.6923L22.646 18.8262L23.4678 19.3605L23.4681 19.3607C23.4729 19.3638 23.4751 19.3668 23.4773 19.3731C23.4804 19.3824 23.4818 19.3975 23.4777 19.4142C23.4763 19.4203 23.4744 19.4249 23.4728 19.4284H18.8298C18.666 19.4284 18.4627 19.2459 18.4912 18.9535C18.6409 17.4448 19.3086 14.2185 22.1649 12.289C22.6448 11.9655 22.9672 11.8583 23.1686 11.8553C23.262 11.854 23.3253 11.875 23.372 11.9043C23.4204 11.9346 23.4697 11.9852 23.5155 12.0697C23.6118 12.2475 23.6707 12.5344 23.68 12.9265C23.6893 13.311 23.6506 13.7628 23.5797 14.2451C23.4381 15.2095 23.1739 16.2621 22.943 17.0785C22.8278 17.4856 22.7215 17.8317 22.6443 18.0758C22.6056 18.1978 22.5742 18.2943 22.5525 18.36C22.5417 18.3928 22.5333 18.418 22.5276 18.4349L22.5213 18.4539L22.5196 18.4584L22.5193 18.4595L22.5192 18.4598ZM22.5192 18.4598C22.5192 18.4598 22.5192 18.4598 22.541 18.4673L22.5192 18.4598Z" stroke="#454545" stroke-width="0.631146" stroke-linejoin="round"/>
<path fill-rule="evenodd" clip-rule="evenodd" d="M20.6661 7.37167C20.6661 5.51718 19.1904 4.01117 17.3731 4.01117C16.3486 4.01117 15.4339 4.49036 14.8301 5.23713C14.007 5.05045 13.1288 4.94465 12.2202 4.94465C11.3115 4.94465 10.4334 5.04421 9.61013 5.23713C9.00031 4.49036 8.08557 4.01117 7.06719 4.01117C5.24993 4.01117 3.77417 5.51718 3.77417 7.37167C3.77417 7.98155 3.93272 8.54786 4.20713 9.03948C3.94492 9.61201 3.80466 10.2219 3.80466 10.8566C3.80466 14.1238 7.57334 16.7687 12.2202 16.7687C16.867 16.7687 20.6356 14.1238 20.6356 10.8566C20.6356 10.2219 20.4953 9.61201 20.2332 9.03948C20.5076 8.54786 20.6661 7.98155 20.6661 7.37167ZM8.81202 7.19576C8.81202 8.32996 7.91104 9.2494 6.79963 9.2494C5.6882 9.2494 4.78722 8.32996 4.78722 7.19576C4.78722 6.06157 5.6882 5.14213 6.79963 5.14213C7.91104 5.14213 8.81202 6.06157 8.81202 7.19576ZM7.15686 7.17056C7.15686 7.37678 6.99305 7.54395 6.79097 7.54395C6.58889 7.54395 6.42508 7.37678 6.42508 7.17056C6.42508 6.96435 6.58889 6.79717 6.79097 6.79717C6.99305 6.79717 7.15686 6.96435 7.15686 7.17056ZM17.5513 9.2494C18.6626 9.2494 19.5637 8.32996 19.5637 7.19576C19.5637 6.06157 18.6626 5.14213 17.5513 5.14213C16.4399 5.14213 15.5388 6.06157 15.5388 7.19576C15.5388 8.32996 16.4399 9.2494 17.5513 9.2494ZM17.5383 7.54395C17.7405 7.54395 17.9042 7.37678 17.9042 7.17056C17.9042 6.96435 17.7405 6.79717 17.5383 6.79717C17.3362 6.79717 17.1724 6.96435 17.1724 7.17056C17.1724 7.37678 17.3362 7.54395 17.5383 7.54395Z" fill="#454545"/>
<mask id="mask1_1907_56363" style="mask-type:luminance" maskUnits="userSpaceOnUse" x="3" y="4" width="18" height="13">
<path fill-rule="evenodd" clip-rule="evenodd" d="M20.6661 7.37167C20.6661 5.51718 19.1904 4.01117 17.3731 4.01117C16.3486 4.01117 15.4339 4.49036 14.8301 5.23713C14.007 5.05045 13.1288 4.94465 12.2202 4.94465C11.3115 4.94465 10.4334 5.04421 9.61013 5.23713C9.00031 4.49036 8.08557 4.01117 7.06719 4.01117C5.24993 4.01117 3.77417 5.51718 3.77417 7.37167C3.77417 7.98155 3.93272 8.54786 4.20713 9.03948C3.94492 9.61201 3.80466 10.2219 3.80466 10.8566C3.80466 14.1238 7.57334 16.7687 12.2202 16.7687C16.867 16.7687 20.6356 14.1238 20.6356 10.8566C20.6356 10.2219 20.4953 9.61201 20.2332 9.03948C20.5076 8.54786 20.6661 7.98155 20.6661 7.37167ZM8.81202 7.19576C8.81202 8.32996 7.91104 9.2494 6.79963 9.2494C5.6882 9.2494 4.78722 8.32996 4.78722 7.19576C4.78722 6.06157 5.6882 5.14213 6.79963 5.14213C7.91104 5.14213 8.81202 6.06157 8.81202 7.19576ZM7.15686 7.17056C7.15686 7.37678 6.99305 7.54395 6.79097 7.54395C6.58889 7.54395 6.42508 7.37678 6.42508 7.17056C6.42508 6.96435 6.58889 6.79717 6.79097 6.79717C6.99305 6.79717 7.15686 6.96435 7.15686 7.17056ZM17.5513 9.2494C18.6626 9.2494 19.5637 8.32996 19.5637 7.19576C19.5637 6.06157 18.6626 5.14213 17.5513 5.14213C16.4399 5.14213 15.5388 6.06157 15.5388 7.19576C15.5388 8.32996 16.4399 9.2494 17.5513 9.2494ZM17.5383 7.54395C17.7405 7.54395 17.9042 7.37678 17.9042 7.17056C17.9042 6.96435 17.7405 6.79717 17.5383 6.79717C17.3362 6.79717 17.1724 6.96435 17.1724 7.17056C17.1724 7.37678 17.3362 7.54395 17.5383 7.54395Z" fill="#414141"/>
</mask>
<g mask="url(#mask1_1907_56363)">
<path d="M14.8302 5.2371L14.6906 5.85262L15.074 5.93954L15.3211 5.63389L14.8302 5.2371ZM9.61017 5.2371L9.12131 5.63631L9.37054 5.9415L9.75417 5.8516L9.61017 5.2371ZM4.20718 9.03945L4.781 9.30226L4.91428 9.01129L4.75829 8.73183L4.20718 9.03945ZM20.2332 9.03945L19.6821 8.73184L19.526 9.01129L19.6594 9.30226L20.2332 9.03945ZM17.3731 4.64228C18.8298 4.64228 20.035 5.85359 20.035 7.37164H21.2974C21.2974 5.18071 19.551 3.38 17.3731 3.38V4.64228ZM15.3211 5.63389C15.8124 5.02602 16.551 4.64228 17.3731 4.64228V3.38C16.1464 3.38 15.0554 3.95463 14.3394 4.84031L15.3211 5.63389ZM12.2202 5.57577C13.0801 5.57577 13.9113 5.67591 14.6906 5.85262L14.9697 4.62159C14.1026 4.42492 13.1776 4.31347 12.2202 4.31347V5.57577ZM9.75417 5.8516C10.5277 5.67035 11.3573 5.57577 12.2202 5.57577V4.31347C11.2658 4.31347 10.3392 4.41803 9.46617 4.6226L9.75417 5.8516ZM7.06724 4.64228C7.88223 4.64228 8.6223 5.02521 9.12131 5.63631L10.099 4.83791C9.3784 3.95543 8.28902 3.38 7.06724 3.38V4.64228ZM4.40536 7.37164C4.40536 5.85359 5.61056 4.64228 7.06724 4.64228V3.38C4.88939 3.38 3.14307 5.18071 3.14307 7.37164H4.40536ZM4.75829 8.73183C4.53453 8.33096 4.40536 7.87013 4.40536 7.37164H3.14307C3.14307 8.0929 3.33101 8.76468 3.65608 9.34706L4.75829 8.73183ZM4.43585 10.8566C4.43585 10.317 4.55465 9.79649 4.781 9.30226L3.63335 8.77664C3.33527 9.42747 3.17356 10.1267 3.17356 10.8566H4.43585ZM12.2202 16.1374C10.0108 16.1374 8.03716 15.5077 6.63263 14.5213C5.22631 13.5337 4.43585 12.2287 4.43585 10.8566H3.17356C3.17356 12.7516 4.26744 14.4027 5.90716 15.5542C7.54867 16.7072 9.78277 17.3997 12.2202 17.3997V16.1374ZM20.0046 10.8566C20.0046 12.2287 19.2141 13.5337 17.8078 14.5213C16.4032 15.5077 14.4296 16.1374 12.2202 16.1374V17.3997C14.6576 17.3997 16.8918 16.7072 18.5332 15.5542C20.173 14.4027 21.2669 12.7516 21.2669 10.8566H20.0046ZM19.6594 9.30226C19.8857 9.79649 20.0046 10.317 20.0046 10.8566H21.2669C21.2669 10.1267 21.105 9.42747 20.807 8.77664L19.6594 9.30226ZM20.035 7.37164C20.035 7.87013 19.9058 8.33096 19.6821 8.73184L20.7844 9.34706C21.1094 8.76468 21.2974 8.0929 21.2974 7.37164H20.035ZM6.79967 9.88051C8.27166 9.88051 9.44321 8.66637 9.44321 7.19573H8.18092C8.18092 7.99349 7.5505 8.61822 6.79967 8.61822V9.88051ZM4.15612 7.19573C4.15612 8.66637 5.32767 9.88051 6.79967 9.88051V8.61822C6.04883 8.61822 5.41841 7.99349 5.41841 7.19573H4.15612ZM6.79967 4.51095C5.32767 4.51095 4.15612 5.7251 4.15612 7.19573H5.41841C5.41841 6.39798 6.04883 5.77325 6.79967 5.77325V4.51095ZM9.44321 7.19573C9.44321 5.7251 8.27166 4.51095 6.79967 4.51095V5.77325C7.5505 5.77325 8.18092 6.39798 8.18092 7.19573H9.44321ZM6.79102 8.17507C7.35367 8.17507 7.78805 7.71319 7.78805 7.17053H6.52576C6.52576 7.04031 6.63251 6.91277 6.79102 6.91277V8.17507ZM5.79398 7.17053C5.79398 7.71319 6.22837 8.17507 6.79102 8.17507V6.91277C6.94952 6.91277 7.05627 7.04031 7.05627 7.17053H5.79398ZM6.79102 6.16601C6.22837 6.16601 5.79398 6.62787 5.79398 7.17053H7.05627C7.05627 7.30076 6.94952 7.42829 6.79102 7.42829V6.16601ZM7.78805 7.17053C7.78805 6.62787 7.35367 6.16601 6.79102 6.16601V7.42829C6.63251 7.42829 6.52576 7.30076 6.52576 7.17053H7.78805ZM18.9326 7.19573C18.9326 7.99349 18.3022 8.61822 17.5514 8.61822V9.88051C19.0233 9.88051 20.1948 8.66637 20.1948 7.19573H18.9326ZM17.5514 5.77325C18.3022 5.77325 18.9326 6.39798 18.9326 7.19573H20.1948C20.1948 5.7251 19.0233 4.51095 17.5514 4.51095V5.77325ZM16.1701 7.19573C16.1701 6.39798 16.8004 5.77325 17.5514 5.77325V4.51095C16.0793 4.51095 14.9078 5.7251 14.9078 7.19573H16.1701ZM17.5514 8.61822C16.8004 8.61822 16.1701 7.99349 16.1701 7.19573H14.9078C14.9078 8.66637 16.0793 9.88051 17.5514 9.88051V8.61822ZM17.2731 7.17053C17.2731 7.04031 17.3799 6.91277 17.5383 6.91277V8.17507C18.101 8.17507 18.5353 7.7132 18.5353 7.17053H17.2731ZM17.5383 7.42829C17.3799 7.42829 17.2731 7.30077 17.2731 7.17053H18.5353C18.5353 6.62787 18.101 6.16601 17.5383 6.16601V7.42829ZM17.8037 7.17053C17.8037 7.30077 17.6969 7.42829 17.5383 7.42829V6.16601C16.9758 6.16601 16.5413 6.62787 16.5413 7.17053H17.8037ZM17.5383 6.91277C17.6969 6.91277 17.8037 7.04031 17.8037 7.17053H16.5413C16.5413 7.7132 16.9758 8.17507 17.5383 8.17507V6.91277Z" fill="#414141"/>
</g>
</g>
</svg>
