<svg width="24" height="24" viewBox="0 0 24 24" fill="none" xmlns="http://www.w3.org/2000/svg">
<path d="M9.1607 16.8741L5.84398 11.1295C5.7613 10.9863 5.7178 10.8239 5.7178 10.6585C5.7178 10.4931 5.7613 10.3307 5.84398 10.1875L9.1607 4.44562C9.24337 4.30241 9.36229 4.18349 9.50551 4.10081C9.64873 4.01813 9.81116 3.9746 9.97655 3.97461H16.6072C16.7725 3.9746 16.935 4.01813 17.0782 4.10081C17.2214 4.18349 17.3403 4.30241 17.423 4.44562L20.7509 10.1931L19.1192 11.1351L16.0744 5.86426H10.5317L7.75889 10.6641L10.8037 15.9377L9.1607 16.8741Z" fill="black"/>
<path d="M14.0224 20.0002H7.37783C7.21247 20.0002 7.04998 19.9567 6.90677 19.874C6.76356 19.7913 6.64465 19.6724 6.56196 19.5292L3.24805 13.7902L4.87698 12.8482L7.92172 18.1218H13.4617L16.2317 13.3191L13.1898 8.04832L14.8187 7.10628L18.1354 12.8482C18.2181 12.9913 18.2616 13.1538 18.2616 13.3191C18.2616 13.4845 18.2181 13.647 18.1354 13.7902L14.8187 19.5348C14.7374 19.6745 14.6213 19.7908 14.4818 19.8723C14.3423 19.9539 14.184 19.998 14.0224 20.0002Z" fill="black"/>
</svg>
