<svg width="16" height="17" viewBox="0 0 16 17" fill="none" xmlns="http://www.w3.org/2000/svg">
<path fill-rule="evenodd" clip-rule="evenodd" d="M8 0.500001C3.58042 0.500001 -6.26021e-07 4.08042 -1.39877e-06 8.5C-2.16988e-06 12.9103 3.58042 16.4907 8 16.5C12.4196 16.5 16 12.9196 16 8.50001C16 4.08042 12.4196 0.500002 8 0.500001ZM9.46915 4.59375C10.2058 4.71496 10.9144 4.93874 11.595 5.24643C12.7605 6.96205 13.3386 8.90145 13.1335 11.1392C12.3503 11.7266 11.4645 12.1649 10.5228 12.4539C10.3083 12.1649 10.1218 11.8665 9.96332 11.5495C10.271 11.4376 10.5694 11.2977 10.8491 11.1299C10.8118 11.1019 10.7768 11.0739 10.7419 11.046C10.7069 11.018 10.672 10.99 10.6347 10.9621C8.9843 11.7453 7.06356 11.7453 5.41321 10.9621C5.37591 10.99 5.34095 11.018 5.30598 11.046C5.27102 11.0739 5.23605 11.1019 5.19875 11.1299C5.47848 11.2977 5.76752 11.4376 6.07521 11.5495C5.9167 11.8665 5.73022 12.1648 5.51577 12.4539C4.57405 12.1742 3.69759 11.7266 2.90505 11.1392C2.72789 9.20914 3.09153 7.26042 4.43419 5.25575C5.10552 4.93874 5.82346 4.71496 6.56006 4.59375C6.66262 4.77091 6.75586 4.95739 6.83978 5.15319C7.623 5.03198 8.41554 5.03198 9.19876 5.15319C9.27335 4.97603 9.37591 4.76158 9.46915 4.59375ZM5.37591 8.91077C5.37591 9.47953 5.78617 9.94573 6.29899 9.94573C6.82113 9.94573 7.22207 9.47953 7.23139 8.91077C7.23139 8.33268 6.82113 7.86648 6.29899 7.86648C5.78617 7.86648 5.37591 8.342 5.37591 8.91077ZM8.80715 8.91077C8.80715 9.47953 9.2174 9.94573 9.73022 9.94573C10.243 9.94573 10.644 9.48886 10.6533 8.91077C10.6626 8.33268 10.2524 7.86648 9.73023 7.86648C9.2174 7.86648 8.80715 8.342 8.80715 8.91077Z" fill="black" fill-opacity="0.75"/>
</svg>
