<svg width="16" height="16" viewBox="0 0 16 16" fill="none" xmlns="http://www.w3.org/2000/svg">
<path d="M15 3V7H11M1 13V9H5M2.33998 5.99842C2.67809 5.04295 3.25274 4.18869 4.01029 3.51537C4.76785 2.84205 5.68362 2.3716 6.67217 2.14793C7.66072 1.92426 8.68982 1.95465 9.66344 2.23627C10.6371 2.51789 11.5235 3.04157 12.24 3.75842C12.9565 4.47528 15 6.99841 15 6.99841M13.66 9.99842C13.3219 10.9539 12.7472 11.8082 11.9897 12.4815C11.2321 13.1548 10.3163 13.6252 9.32779 13.8489C8.33924 14.0726 7.31014 14.0422 6.33652 13.7606C5.3629 13.479 4.47648 12.9553 3.75998 12.2384C3.04348 11.5216 1 8.99841 1 8.99841" stroke="black" stroke-width="1.5" stroke-linecap="round" stroke-linejoin="round"/>
</svg>
