<svg width="24" height="24" viewBox="0 0 24 24" fill="none" xmlns="http://www.w3.org/2000/svg">
<path d="M20.382 1.71033L13.1357 7.26358L14.4757 3.98724L20.382 1.71033Z" fill="#E2761B" stroke="#E2761B" stroke-width="0.0730286" stroke-linecap="round" stroke-linejoin="round"/>
<path d="M3.65385 1.71033L10.8418 7.31627L9.56733 3.98724L3.65385 1.71033ZM17.7749 14.5829L15.8449 17.6339L19.9742 18.8061L21.1613 14.6506L17.7749 14.5829ZM2.88916 14.6506L4.06893 18.8061L8.19819 17.6339L6.26847 14.5829L2.88916 14.6506Z" fill="#E4761B" stroke="#E4761B" stroke-width="0.0730286" stroke-linecap="round" stroke-linejoin="round"/>
<path d="M7.96546 9.42777L6.81494 11.2238L10.9151 11.4117L10.7695 6.86537L7.96546 9.42777ZM16.0711 9.42777L13.2308 6.81268L13.1361 11.4117L17.229 11.2238L16.0711 9.42777ZM8.19848 17.6338L10.6601 16.3938L8.53346 14.6806L8.19848 17.6338ZM13.3764 16.3938L15.8452 17.6338L15.5029 14.6806L13.3764 16.3938Z" fill="#E4761B" stroke="#E4761B" stroke-width="0.0730286" stroke-linecap="round" stroke-linejoin="round"/>
<path d="M15.845 17.6339L13.3762 16.3939L13.5729 18.0547L13.551 18.7536L15.845 17.6339ZM8.19824 17.6339L10.4923 18.7536L10.4778 18.0547L10.6598 16.3939L8.19824 17.6339Z" fill="#D7C1B3" stroke="#D7C1B3" stroke-width="0.0730286" stroke-linecap="round" stroke-linejoin="round"/>
<path d="M10.5286 13.5834L8.47485 12.9598L9.92411 12.2759L10.5286 13.5834ZM13.5072 13.5834L14.1117 12.2759L15.5681 12.9598L13.5072 13.5834Z" fill="#233447" stroke="#233447" stroke-width="0.0730286" stroke-linecap="round" stroke-linejoin="round"/>
<path d="M8.19838 17.6336L8.54798 14.5828L6.26855 14.6503L8.19838 17.6336ZM15.4956 14.5828L15.8451 17.6336L17.7751 14.6503L15.4956 14.5828ZM17.2289 11.2237L13.136 11.4116L13.5147 13.5832L14.1192 12.2757L15.5758 12.9596L17.2289 11.2237ZM8.47518 12.9596L9.93164 12.2757L10.5288 13.5832L10.9148 11.4116L6.81473 11.2237L8.47518 12.9596Z" fill="#CD6116" stroke="#CD6116" stroke-width="0.0730286" stroke-linecap="round" stroke-linejoin="round"/>
<path d="M6.81457 11.2239L8.53331 14.6806L8.47502 12.9598L6.81445 11.2239H6.81457ZM15.5756 12.9598L15.5027 14.6806L17.2287 11.2239L15.5756 12.9598ZM10.9147 11.4118L10.5287 13.5834L11.0093 16.1459L11.1186 12.7719L10.9147 11.4118ZM13.1358 11.4118L12.9393 12.7643L13.0267 16.1459L13.5146 13.5834L13.1358 11.4118Z" fill="#E4751F" stroke="#E4751F" stroke-width="0.0730286" stroke-linecap="round" stroke-linejoin="round"/>
<path d="M13.5145 13.5833L13.0265 16.1458L13.3761 16.3938L15.5026 14.6804L15.5754 12.9595L13.5145 13.5833ZM8.47485 12.9595L8.53314 14.6804L10.6597 16.3938L11.0093 16.1458L10.5286 13.5833L8.47485 12.9595Z" fill="#F6851B" stroke="#F6851B" stroke-width="0.0730286" stroke-linecap="round" stroke-linejoin="round"/>
<path d="M13.551 18.7536L13.5729 18.0548L13.3908 17.8894H10.6452L10.4778 18.0548L10.4923 18.7536L8.19824 17.634L8.99939 18.3103L10.6234 19.475H13.4126L15.044 18.3103L15.845 17.634L13.551 18.7536Z" fill="#C0AD9E" stroke="#C0AD9E" stroke-width="0.0730286" stroke-linecap="round" stroke-linejoin="round"/>
<path d="M13.3762 16.3939L13.0267 16.1459H11.0094L10.6597 16.3939L10.4778 18.0547L10.6452 17.8894H13.3908L13.5729 18.0547L13.3762 16.3939Z" fill="#161616" stroke="#161616" stroke-width="0.0730286" stroke-linecap="round" stroke-linejoin="round"/>
<path d="M20.688 7.62438L21.3071 4.55833L20.3822 1.71033L13.3763 7.0757L16.0708 9.42781L19.8796 10.5775L20.7244 9.56313L20.3603 9.29261L20.943 8.74404L20.4914 8.38336L21.074 7.92496L20.688 7.62438ZM2.73633 4.55833L3.35541 7.62438L2.96216 7.92496L3.54479 8.38324L3.10056 8.74404L3.68307 9.29261L3.31896 9.56313L4.15644 10.5775L7.96524 9.42781L10.6599 7.07581L3.65393 1.71033L2.73633 4.55833Z" fill="#763D16" stroke="#763D16" stroke-width="0.0730286" stroke-linecap="round" stroke-linejoin="round"/>
<path d="M19.8796 10.5773L16.0708 9.42763L17.2287 11.2236L15.5026 14.6803L17.7749 14.6503H21.1613L19.8796 10.5773ZM7.96527 9.42763L4.15636 10.5773L2.88916 14.6503H6.26847L8.53339 14.6803L6.81453 11.2236L7.96527 9.42763ZM13.1358 11.4115L13.3761 7.07552L14.4831 3.98706H9.56733L10.6598 7.07552L10.9146 11.4115L11.0021 12.7792L11.0093 16.1457H13.0266L13.0412 12.7792L13.1358 11.4115Z" fill="#F6851B" stroke="#F6851B" stroke-width="0.0730286" stroke-linecap="round" stroke-linejoin="round"/>
<path d="M18.3144 22.3429C21.0127 22.3429 23.2001 20.1555 23.2001 17.4572C23.2001 14.7589 21.0127 12.5715 18.3144 12.5715C15.6161 12.5715 13.4287 14.7589 13.4287 17.4572C13.4287 20.1555 15.6161 22.3429 18.3144 22.3429Z" fill="#053318"/>
<path d="M20.9974 18.2834C20.9974 19.2425 19.827 19.6323 18.3737 19.6323C16.9205 19.6323 15.7329 19.2425 15.7329 18.2834C15.7329 17.3243 16.9119 16.5482 18.3651 16.5482C19.8184 16.5482 20.9974 17.326 20.9974 18.2834Z" fill="#24A95A"/>
<path d="M20.7302 16.1929C20.7302 15.688 20.318 15.278 19.8102 15.278C19.5462 15.278 19.3084 15.3889 19.1407 15.5656C19.128 15.5793 19.1121 15.5896 19.0944 15.5954C19.0767 15.6012 19.0578 15.6025 19.0394 15.599C18.8192 15.5546 18.5952 15.5322 18.3705 15.5321C18.1459 15.5315 17.9218 15.5538 17.7017 15.5986C17.6834 15.6022 17.6645 15.6011 17.6467 15.5953C17.629 15.5895 17.613 15.5794 17.6002 15.5657C17.514 15.4749 17.4102 15.4026 17.2951 15.3532C17.1801 15.3037 17.0562 15.2781 16.931 15.278C16.4232 15.278 16.011 15.688 16.011 16.1929C16.0108 16.3345 16.0437 16.4742 16.1071 16.6008C16.1144 16.6153 16.1186 16.6313 16.1191 16.6476C16.1197 16.6639 16.1168 16.6801 16.1105 16.6951C16.0506 16.8365 16.0197 16.9884 16.0194 17.142C16.0194 18.0316 17.0724 18.7518 18.3705 18.7518C19.6688 18.7518 20.7217 18.0316 20.7217 17.142C20.7215 16.9884 20.6905 16.8365 20.6306 16.6951C20.6244 16.6801 20.6214 16.6639 20.622 16.6476C20.6226 16.6313 20.6267 16.6153 20.6341 16.6008C20.6974 16.4742 20.7304 16.3345 20.7302 16.1929Z" fill="#32DA6D"/>
<path d="M16.8565 16.7004C17.167 16.7004 17.4186 16.45 17.4186 16.1412C17.4186 15.8323 17.167 15.582 16.8565 15.582C16.546 15.582 16.2942 15.8323 16.2942 16.1412C16.2942 16.45 16.546 16.7004 16.8565 16.7004ZM19.8556 16.7004C20.1661 16.7004 20.4177 16.45 20.4177 16.1412C20.4177 15.8323 20.1661 15.582 19.8556 15.582C19.545 15.582 19.2933 15.8323 19.2933 16.1412C19.2933 16.45 19.545 16.7004 19.8556 16.7004Z" fill="white"/>
<path d="M16.5582 19.5629C16.6792 19.5629 16.7746 19.4578 16.7609 19.3391C16.7116 18.9189 16.502 18.009 15.5804 17.4616C14.5702 16.8616 15.0504 18.4563 15.2513 19.038C15.2714 19.095 15.2709 19.1573 15.25 19.2141C15.2291 19.2708 15.189 19.3185 15.1367 19.3488L15.0709 19.3867C14.9857 19.4358 15.0215 19.5629 15.1186 19.5629H16.5582ZM20.2192 19.5629C20.1102 19.5629 20.025 19.4578 20.0369 19.3391C20.0796 18.9206 20.2704 18.009 21.1017 17.4616C22.0222 16.857 21.5745 18.4812 21.3956 19.0514C21.3782 19.1057 21.3793 19.1644 21.3987 19.2181C21.4181 19.2717 21.4547 19.3175 21.5029 19.3483L21.5634 19.3867C21.6401 19.4358 21.6078 19.5629 21.5209 19.5629H20.2192Z" fill="#32DA6D"/>
<path d="M16.8562 16.4758C16.9451 16.4758 17.0305 16.4404 17.0934 16.3775C17.1563 16.3146 17.1916 16.2293 17.1916 16.1404C17.1916 16.0514 17.1563 15.9661 17.0934 15.9032C17.0305 15.8403 16.9451 15.8049 16.8562 15.8049C16.7672 15.8049 16.6819 15.8403 16.619 15.9032C16.5561 15.9661 16.5208 16.0514 16.5208 16.1404C16.5208 16.2293 16.5561 16.3146 16.619 16.3775C16.6819 16.4404 16.7672 16.4758 16.8562 16.4758ZM19.8554 16.4758C19.8994 16.4758 19.943 16.4671 19.9837 16.4502C20.0244 16.4334 20.0614 16.4087 20.0925 16.3775C20.1237 16.3464 20.1484 16.3094 20.1652 16.2687C20.1821 16.228 20.1908 16.1844 20.1908 16.1403C20.1907 16.0963 20.1821 16.0526 20.1652 16.0119C20.1483 15.9713 20.1236 15.9343 20.0925 15.9031C20.0613 15.872 20.0243 15.8473 19.9836 15.8304C19.9429 15.8136 19.8993 15.8049 19.8553 15.8049C19.7663 15.8049 19.681 15.8403 19.6181 15.9032C19.5552 15.9661 19.5199 16.0515 19.5199 16.1404C19.5199 16.2294 19.5553 16.3147 19.6182 16.3776C19.6811 16.4405 19.7664 16.4758 19.8554 16.4758ZM19.1026 17.4213C19.1859 17.4285 19.249 17.5024 19.228 17.5834C19.181 17.7649 19.0787 17.9272 18.9353 18.0478C18.752 18.2019 18.5151 18.2769 18.2765 18.2566C18.0986 18.2413 17.9292 18.1736 17.7897 18.062C17.6503 17.9504 17.5471 17.7999 17.4932 17.6296C17.4676 17.5489 17.4534 17.465 17.4513 17.3804C17.4498 17.3246 17.4994 17.2833 17.5549 17.2881L18.3539 17.3569L19.1026 17.4213Z" fill="#092511"/>
<g style="mix-blend-mode:color">
<path fill-rule="evenodd" clip-rule="evenodd" d="M20.688 7.62438L21.3071 4.55833L20.3822 1.71033L20.1893 1.85806L20.382 1.71033L14.4762 3.98706H9.56733L9.56817 3.98944L9.56733 3.98724L3.65401 1.71039L3.65393 1.71033L3.65392 1.71036L3.65385 1.71033L3.65391 1.71038L2.73633 4.55833L3.35541 7.62438L2.96216 7.92496L3.54479 8.38324L3.10056 8.74404L3.68307 9.29261L3.31896 9.56313L4.15634 10.5774L2.88916 14.6503H2.90393L2.88916 14.6506L4.06893 18.8061L8.19819 17.6339L8.18298 17.6098L8.19838 17.6336L8.21041 17.5287L8.19849 17.6338L8.19824 17.6339L10.4923 18.7536V18.7536L8.19824 17.634L8.99939 18.3103L10.6234 19.475H13.4126L13.7593 19.2275C14.4684 21.0507 16.2405 22.3429 18.3144 22.3429C21.0127 22.3429 23.2001 20.1555 23.2001 17.4572C23.2001 15.6265 22.1933 14.031 20.7031 13.1942L19.8796 10.5775L20.7244 9.56313L20.3603 9.29261L20.943 8.74404L20.4914 8.38336L21.074 7.92496L20.688 7.62438ZM13.5965 18.7314L13.5965 18.7314L13.551 18.7536V18.7536L13.5965 18.7314ZM13.0684 16.1755L13.3762 16.3939L13.449 17.0088L13.3762 16.3939L13.5284 16.4704L13.5285 16.4702L13.3764 16.3938L13.5853 16.2256L13.5854 16.2252L13.3761 16.3938L13.0684 16.1755ZM15.5558 13.4243L15.5559 13.4241L15.5756 12.9598L15.5758 12.9596L14.1192 12.2757L14.1178 12.2788L15.5681 12.9598L13.5159 13.5808L13.5147 13.5832L13.5144 13.5812L13.5142 13.5813L13.5145 13.5833L13.5147 13.5832L15.5754 12.9595L15.5558 13.4243ZM6.81487 11.2243L8.47486 12.9596L8.47485 12.9595L8.47515 12.9596L8.48784 12.9536L8.47518 12.9596L6.81473 11.2237L6.81498 11.2237L7.96546 9.42777L7.9689 9.42462L7.96524 9.42781L7.96514 9.42784L6.81453 11.2236L6.81487 11.2243ZM11.0093 16.1459L11.0093 16.1457H13.0265L13.0265 16.1458L13.0267 16.1459L13.0267 16.1459H11.0094L10.66 16.3937L10.6599 16.3937L11.0093 16.1458L10.5286 13.5833L10.5285 13.5833L9.92538 12.2786L9.93164 12.2757L10.5288 13.5832L10.5287 13.5834L11.0093 16.1457L11.0093 16.1459ZM13.1357 11.4125L13.1358 11.4118L13.5125 13.5718L13.5127 13.5715L13.136 11.4116L13.1361 11.4116L13.1363 11.4029L13.1358 11.4115L13.1357 11.4125ZM13.3908 17.8894L13.3908 17.8894H10.6452L10.4778 18.0547V18.0548L10.6452 17.8894H13.3908Z" fill="black"/>
</g>
</svg>
