<svg width="168" height="160" viewBox="0 0 168 160" fill="none" xmlns="http://www.w3.org/2000/svg">
<mask id="mask0_1309_20420" style="mask-type:alpha" maskUnits="userSpaceOnUse" x="2" y="0" width="163" height="157">
<path d="M92.4268 153.268C87.2933 156.998 80.342 156.998 75.2085 153.268L8.84744 105.054C3.71393 101.325 1.56586 94.7135 3.52669 88.6787L28.8744 10.6666C30.8352 4.63177 36.4589 0.545899 42.8043 0.545899L124.831 0.545907C131.176 0.545907 136.8 4.63178 138.761 10.6666L164.109 88.6787C166.07 94.7135 163.921 101.325 158.788 105.054L92.4268 153.268Z" fill="#D9D9D9"/>
</mask>
<g mask="url(#mask0_1309_20420)">
<path d="M83.8177 159.523L0.238281 98.7994L32.1628 0.545898L135.473 0.545907L167.397 98.7994L83.8177 159.523Z" fill="#CCCCCC"/>
<path d="M83.8177 159.523L0.238281 98.7994L32.1628 0.545898L135.473 0.545907L167.397 98.7994L83.8177 159.523Z" fill="url(#paint0_radial_1309_20420)" fill-opacity="0.5"/>
<path opacity="0.2" d="M83.8164 63.5033V160.592L159.485 106.766C167.299 101.208 170.605 91.2237 167.653 82.1002L144.019 9.04956C143.056 6.07195 140.283 4.05469 137.154 4.05469C135.24 4.05469 133.404 4.81496 132.051 6.16825L90.2513 47.968C86.1311 52.0882 83.8164 57.6764 83.8164 63.5033Z" fill="#696969"/>
<path d="M110.5 83.3966L131.5 83.3966L131.5 86.333L110.5 86.333L110.5 83.3966Z" fill="white"/>
<path d="M131.5 74.6932L131.5 80.9936L110.5 80.9936L110.5 74.4937C110.5 72.5868 110.92 70.9492 111.761 69.5807C112.595 68.2123 113.795 67.1639 115.36 66.4353C116.919 65.7004 118.789 65.333 120.969 65.333C123.157 65.333 125.037 65.7036 126.609 66.4448C128.181 67.1797 129.391 68.244 130.239 69.6378C131.08 71.0315 131.5 72.7167 131.5 74.6932ZM128.731 78.0572L128.731 74.8548C128.731 73.3724 128.431 72.1402 127.829 71.1582C127.221 70.1763 126.342 69.4414 125.194 68.9536C124.039 68.4658 122.63 68.2219 120.969 68.2219C119.322 68.2219 117.924 68.4658 116.775 68.9536C115.627 69.435 114.755 70.1541 114.161 71.1107C113.566 72.0673 113.269 73.2552 113.269 74.6742L113.269 78.0572L128.731 78.0572Z" fill="white"/>
</g>
<defs>
<radialGradient id="paint0_radial_1309_20420" cx="0" cy="0" r="1" gradientUnits="userSpaceOnUse" gradientTransform="translate(43.0817 13.6667) rotate(70.8988) scale(124.486 127.137)">
<stop stop-color="white"/>
<stop offset="1" stop-color="white" stop-opacity="0"/>
</radialGradient>
</defs>
</svg>
