<svg width="236" height="224" viewBox="0 0 236 224" fill="none" xmlns="http://www.w3.org/2000/svg">
<mask id="mask0_1548_31603" style="mask-type:alpha" maskUnits="userSpaceOnUse" x="4" y="0" width="228" height="219">
<path d="M130.112 214.866C122.89 220.113 113.11 220.113 105.888 214.866L12.5243 147.033C5.30201 141.786 2.27988 132.485 5.03857 123.994L40.7003 14.2388C43.459 5.74843 51.371 5.28404e-07 60.2983 1.30885e-06L175.702 1.13978e-05C184.629 1.21782e-05 192.541 5.74843 195.3 14.2388L230.962 123.994C233.72 132.485 230.698 141.786 223.476 147.033L130.112 214.866Z" fill="#D9D9D9"/>
</mask>
<g mask="url(#mask0_1548_31603)">
<path d="M118 223.666L0.412109 138.233L45.3267 0L190.673 1.27066e-05L235.588 138.233L118 223.666Z" fill="url(#paint0_linear_1548_31603)"/>
<path d="M118 223.666L0.412109 138.233L45.3267 0L190.673 1.27066e-05L235.588 138.233L118 223.666Z" fill="url(#paint1_radial_1548_31603)" fill-opacity="0.5"/>
<path d="M118.001 88.5748V225.169L224.459 149.441C235.453 141.621 240.104 127.575 235.951 114.739L202.701 11.9638C201.345 7.77461 197.444 4.93652 193.041 4.93652C190.349 4.93652 187.766 6.00615 185.862 7.9101L127.054 66.7183C121.258 72.515 118.001 80.377 118.001 88.5748Z" fill="#FFA077"/>
<path d="M154 122.966L190 122.966L190 128L154 128L154 122.966Z" fill="white"/>
<path d="M190 108.046L190 118.847L154 118.847L154 107.704C154 104.435 154.721 101.628 156.162 99.2818C157.592 96.936 159.648 95.1386 162.332 93.8897C165.004 92.6299 168.209 92 171.947 92C175.697 92 178.92 92.6353 181.615 93.906C184.311 95.1658 186.385 96.9903 187.838 99.3796C189.279 101.769 190 104.658 190 108.046ZM185.254 113.813L185.254 108.323C185.254 105.782 184.738 103.669 183.707 101.986C182.664 100.303 181.158 99.0429 179.189 98.2067C177.209 97.3704 174.795 96.9523 171.947 96.9523C169.123 96.9523 166.727 97.3704 164.758 98.2067C162.789 99.0321 161.295 100.265 160.275 101.905C159.256 103.545 158.746 105.581 158.746 108.014L158.746 113.813L185.254 113.813Z" fill="white"/>
</g>
<defs>
<linearGradient id="paint0_linear_1548_31603" x1="118" y1="0" x2="118" y2="223.666" gradientUnits="userSpaceOnUse">
<stop stop-color="#FF4D00"/>
<stop offset="1" stop-color="#FF4D00"/>
</linearGradient>
<radialGradient id="paint1_radial_1548_31603" cx="0" cy="0" r="1" gradientUnits="userSpaceOnUse" gradientTransform="translate(60.6885 18.4596) rotate(70.8988) scale(175.139 178.87)">
<stop stop-color="white"/>
<stop offset="1" stop-color="white" stop-opacity="0"/>
</radialGradient>
</defs>
</svg>
