<svg width="213" height="191" viewBox="0 0 213 191" fill="none" xmlns="http://www.w3.org/2000/svg">
<g opacity="0.23">
<mask id="mask0_1794_57247" style="mask-type:alpha" maskUnits="userSpaceOnUse" x="10" y="23" width="163" height="157">
<path d="M100.427 176.691C95.2933 180.421 88.342 180.421 83.2085 176.691L16.8474 128.477C11.7139 124.747 9.56586 118.136 11.5267 112.102L36.8744 34.0894C38.8352 28.0546 44.4589 23.9688 50.8043 23.9688L132.831 23.9688C139.176 23.9688 144.8 28.0546 146.761 34.0894L172.109 112.102C174.07 118.136 171.921 124.747 166.788 128.477L100.427 176.691Z" fill="#D9D9D9"/>
</mask>
<g mask="url(#mask0_1794_57247)">
<path d="M91.8177 182.946L8.23828 122.222L40.1628 23.9688L143.473 23.9688L175.397 122.222L91.8177 182.946Z" fill="#CCCCCC"/>
<path d="M91.8177 182.946L8.23828 122.222L40.1628 23.9688L143.473 23.9688L175.397 122.222L91.8177 182.946Z" fill="url(#paint0_radial_1794_57247)" fill-opacity="0.5"/>
<path opacity="0.2" d="M91.8164 86.9261V184.015L167.485 130.189C175.299 124.63 178.605 114.647 175.653 105.523L152.019 32.4724C151.056 29.4948 148.283 27.4775 145.154 27.4775C143.24 27.4775 141.404 28.2378 140.051 29.5911L98.2513 71.3909C94.1311 75.5111 91.8164 81.0993 91.8164 86.9261Z" fill="#696969"/>
<path d="M118.5 106.82L139.5 106.82L139.5 109.756L118.5 109.756L118.5 106.82Z" fill="white"/>
<path d="M139.5 98.1166L139.5 104.417L118.5 104.417L118.5 97.917C118.5 96.0101 118.92 94.3725 119.761 93.0041C120.595 91.6357 121.795 90.5872 123.36 89.8587C124.919 89.1238 126.789 88.7563 128.969 88.7563C131.157 88.7563 133.037 89.127 134.609 89.8682C136.181 90.6031 137.391 91.6674 138.239 93.0611C139.08 94.4548 139.5 96.14 139.5 98.1166ZM136.731 101.481L136.731 98.2781C136.731 96.7957 136.431 95.5635 135.829 94.5816C135.221 93.5996 134.342 92.8647 133.194 92.3769C132.039 91.8891 130.63 91.6452 128.969 91.6452C127.322 91.6452 125.924 91.8891 124.775 92.3769C123.627 92.8584 122.755 93.5774 122.161 94.534C121.566 95.4907 121.269 96.6785 121.269 98.0976L121.269 101.481L136.731 101.481Z" fill="white"/>
</g>
</g>
<mask id="mask1_1794_57247" style="mask-type:alpha" maskUnits="userSpaceOnUse" x="25" y="18" width="163" height="157">
<path d="M115.427 171.691C110.293 175.421 103.342 175.421 98.2085 171.691L31.8474 123.477C26.7139 119.747 24.5659 113.136 26.5267 107.102L51.8744 29.0894C53.8352 23.0546 59.4589 18.9688 65.8043 18.9688L147.831 18.9688C154.176 18.9688 159.8 23.0546 161.761 29.0894L187.109 107.102C189.07 113.136 186.921 119.747 181.788 123.477L115.427 171.691Z" fill="#D9D9D9"/>
</mask>
<g mask="url(#mask1_1794_57247)">
<path d="M106.818 177.946L23.2383 117.222L55.1628 18.9688L158.473 18.9688L190.397 117.222L106.818 177.946Z" fill="#CCCCCC"/>
<path d="M106.818 177.946L23.2383 117.222L55.1628 18.9688L158.473 18.9688L190.397 117.222L106.818 177.946Z" fill="url(#paint1_radial_1794_57247)" fill-opacity="0.5"/>
<path opacity="0.2" d="M106.816 81.9261V179.015L182.485 125.189C190.299 119.63 193.605 109.647 190.653 100.523L167.019 27.4724C166.056 24.4948 163.283 22.4775 160.154 22.4775C158.24 22.4775 156.404 23.2378 155.051 24.5911L113.251 66.3909C109.131 70.5111 106.816 76.0993 106.816 81.9261Z" fill="#696969"/>
<path d="M133.5 101.82L154.5 101.82L154.5 104.756L133.5 104.756L133.5 101.82Z" fill="white"/>
<path d="M154.5 93.1166L154.5 99.4169L133.5 99.4169L133.5 92.917C133.5 91.0101 133.92 89.3725 134.761 88.0041C135.595 86.6357 136.795 85.5872 138.36 84.8587C139.919 84.1238 141.789 83.7563 143.969 83.7563C146.157 83.7563 148.037 84.127 149.609 84.8682C151.181 85.6031 152.391 86.6674 153.239 88.0611C154.08 89.4548 154.5 91.14 154.5 93.1166ZM151.731 96.4806L151.731 93.2781C151.731 91.7957 151.431 90.5635 150.829 89.5816C150.221 88.5996 149.342 87.8647 148.194 87.3769C147.039 86.8891 145.63 86.6452 143.969 86.6452C142.322 86.6452 140.924 86.8891 139.775 87.3769C138.627 87.8584 137.755 88.5774 137.161 89.534C136.566 90.4907 136.269 91.6785 136.269 93.0976L136.269 96.4806L151.731 96.4806Z" fill="white"/>
</g>
<mask id="mask2_1794_57247" style="mask-type:alpha" maskUnits="userSpaceOnUse" x="39" y="12" width="163" height="157">
<path d="M129.427 165.691C124.293 169.421 117.342 169.421 112.209 165.691L45.8474 117.477C40.7139 113.747 38.5659 107.136 40.5267 101.102L65.8744 23.0894C67.8352 17.0546 73.4589 12.9688 79.8043 12.9688L161.831 12.9688C168.176 12.9688 173.8 17.0546 175.761 23.0894L201.109 101.102C203.07 107.136 200.921 113.747 195.788 117.477L129.427 165.691Z" fill="#D9D9D9"/>
</mask>
<g mask="url(#mask2_1794_57247)">
<path d="M120.818 171.946L37.2383 111.222L69.1628 12.9688L172.473 12.9688L204.397 111.222L120.818 171.946Z" fill="url(#paint2_linear_1794_57247)"/>
<path d="M120.818 171.946L37.2383 111.222L69.1628 12.9688L172.473 12.9688L204.397 111.222L120.818 171.946Z" fill="url(#paint3_radial_1794_57247)" fill-opacity="0.5"/>
<path d="M120.816 75.9261V173.015L196.485 119.189C204.299 113.63 207.605 103.647 204.653 94.5231L181.019 21.4724C180.056 18.4948 177.283 16.4775 174.154 16.4775C172.24 16.4775 170.404 17.2378 169.051 18.5911L127.251 60.3909C123.131 64.5111 120.816 70.0993 120.816 75.9261Z" fill="#FFA077"/>
<path d="M147.5 95.82L168.5 95.82L168.5 98.7563L147.5 98.7563L147.5 95.82Z" fill="white"/>
<path d="M168.5 87.1166L168.5 93.4169L147.5 93.4169L147.5 86.917C147.5 85.0101 147.92 83.3725 148.761 82.0041C149.595 80.6357 150.795 79.5872 152.36 78.8587C153.919 78.1238 155.789 77.7563 157.969 77.7563C160.157 77.7563 162.037 78.127 163.609 78.8682C165.181 79.6031 166.391 80.6674 167.239 82.0611C168.08 83.4548 168.5 85.14 168.5 87.1166ZM165.731 90.4806L165.731 87.2781C165.731 85.7957 165.431 84.5635 164.829 83.5816C164.221 82.5996 163.342 81.8647 162.194 81.3769C161.039 80.8891 159.63 80.6452 157.969 80.6452C156.322 80.6452 154.924 80.8891 153.775 81.3769C152.627 81.8584 151.755 82.5774 151.161 83.534C150.566 84.4907 150.269 85.6785 150.269 87.0976L150.269 90.4806L165.731 90.4806Z" fill="white"/>
</g>
<defs>
<radialGradient id="paint0_radial_1794_57247" cx="0" cy="0" r="1" gradientUnits="userSpaceOnUse" gradientTransform="translate(51.0817 37.0895) rotate(70.8988) scale(124.486 127.137)">
<stop stop-color="white"/>
<stop offset="1" stop-color="white" stop-opacity="0"/>
</radialGradient>
<radialGradient id="paint1_radial_1794_57247" cx="0" cy="0" r="1" gradientUnits="userSpaceOnUse" gradientTransform="translate(66.0817 32.0895) rotate(70.8988) scale(124.486 127.137)">
<stop stop-color="white"/>
<stop offset="1" stop-color="white" stop-opacity="0"/>
</radialGradient>
<linearGradient id="paint2_linear_1794_57247" x1="120.818" y1="12.9687" x2="120.818" y2="171.946" gradientUnits="userSpaceOnUse">
<stop stop-color="#FF4D00"/>
<stop offset="1" stop-color="#FF4D00"/>
</linearGradient>
<radialGradient id="paint3_radial_1794_57247" cx="0" cy="0" r="1" gradientUnits="userSpaceOnUse" gradientTransform="translate(80.0817 26.0895) rotate(70.8988) scale(124.486 127.137)">
<stop stop-color="white"/>
<stop offset="1" stop-color="white" stop-opacity="0"/>
</radialGradient>
</defs>
</svg>
