<svg width="326" height="142" viewBox="0 0 326 142" fill="none" xmlns="http://www.w3.org/2000/svg">
<rect x="16" y="1" width="295" height="141" rx="8" fill="#F2EFED"/>
<g clip-path="url(#clip0_2033_63925)">
<mask id="mask0_2033_63925" style="mask-type:alpha" maskUnits="userSpaceOnUse" x="8" y="10" width="135" height="130">
<path d="M82.9874 136.918C78.7453 140 73.0011 140 68.7591 136.918L13.9218 97.0761C9.6797 93.994 7.90466 88.531 9.52498 83.5441L30.471 19.079C32.0913 14.0922 36.7384 10.7158 41.9819 10.7158L109.765 10.7158C115.008 10.7158 119.655 14.0922 121.276 19.079L142.221 83.5442C143.842 88.531 142.067 93.994 137.825 97.0761L82.9874 136.918Z" fill="#D9D9D9"/>
</mask>
<g mask="url(#mask0_2033_63925)">
<path d="M75.8732 142.086L6.80762 91.9073L33.1883 10.7158L118.558 10.7158L144.939 91.9073L75.8732 142.086Z" fill="#CCCCCC"/>
<path d="M75.8732 142.086L6.80762 91.9073L33.1883 10.7158L118.558 10.7158L144.939 91.9073L75.8732 142.086Z" fill="url(#paint0_radial_2033_63925)" fill-opacity="0.5"/>
<path opacity="0.2" d="M75.8721 62.7404V142.969L138.401 98.4903C144.858 93.8972 147.59 85.6471 145.151 78.1079L125.621 17.7427C124.825 15.2822 122.533 13.6152 119.947 13.6152C118.366 13.6152 116.849 14.2435 115.731 15.3618L81.1895 49.9029C77.7848 53.3076 75.8721 57.9254 75.8721 62.7404Z" fill="#696969"/>
<path d="M97.9221 79.179L115.275 79.179L115.275 81.6055L97.9221 81.6055L97.9221 79.179Z" fill="white"/>
<path d="M115.275 71.987L115.275 77.1933L97.9221 77.1933L97.9221 71.8221C97.9221 70.2463 98.2695 68.8931 98.9643 67.7623C99.6535 66.6315 100.645 65.7651 101.938 65.1631C103.226 64.5558 104.771 64.2522 106.573 64.2522C108.381 64.2522 109.934 64.5584 111.234 65.1709C112.533 65.7782 113.533 66.6577 114.233 67.8094C114.928 68.9611 115.275 70.3536 115.275 71.987ZM112.988 74.7668L112.988 72.1205C112.988 70.8955 112.739 69.8773 112.242 69.0658C111.739 68.2544 111.013 67.6471 110.064 67.244C109.11 66.8409 107.946 66.6394 106.573 66.6394C105.212 66.6394 104.057 66.8409 103.108 67.244C102.159 67.6419 101.439 68.2361 100.947 69.0266C100.456 69.817 100.21 70.7986 100.21 71.9713L100.21 74.7668L112.988 74.7668Z" fill="white"/>
</g>
</g>
<g clip-path="url(#clip1_2033_63925)">
<mask id="mask1_2033_63925" style="mask-type:alpha" maskUnits="userSpaceOnUse" x="182" y="10" width="135" height="130">
<path d="M256.987 136.918C252.745 140 247.001 140 242.759 136.918L187.922 97.0761C183.68 93.994 181.905 88.531 183.525 83.5441L204.471 19.079C206.091 14.0922 210.738 10.7158 215.982 10.7158L283.765 10.7158C289.008 10.7158 293.655 14.0922 295.276 19.079L316.221 83.5442C317.842 88.531 316.067 93.994 311.825 97.0761L256.987 136.918Z" fill="#D9D9D9"/>
</mask>
<g mask="url(#mask1_2033_63925)">
<path d="M249.873 142.086L180.808 91.9073L207.188 10.7158L292.558 10.7158L318.939 91.9073L249.873 142.086Z" fill="url(#paint1_linear_2033_63925)"/>
<path d="M249.873 142.086L180.808 91.9073L207.188 10.7158L292.558 10.7158L318.939 91.9073L249.873 142.086Z" fill="url(#paint2_radial_2033_63925)" fill-opacity="0.5"/>
<path d="M249.872 62.7404V142.969L312.401 98.4903C318.858 93.8972 321.59 85.6471 319.151 78.1079L299.621 17.7427C298.825 15.2822 296.533 13.6152 293.947 13.6152C292.366 13.6152 290.849 14.2435 289.731 15.3618L255.19 49.9029C251.785 53.3076 249.872 57.9254 249.872 62.7404Z" fill="#FFA077"/>
<path d="M271.922 79.179L289.275 79.179L289.275 81.6055L271.922 81.6055L271.922 79.179Z" fill="white"/>
<path d="M289.275 71.987L289.275 77.1933L271.922 77.1933L271.922 71.8221C271.922 70.2463 272.27 68.8931 272.964 67.7623C273.653 66.6315 274.645 65.7651 275.938 65.1631C277.226 64.5558 278.771 64.2522 280.573 64.2522C282.381 64.2522 283.934 64.5584 285.234 65.1709C286.533 65.7782 287.533 66.6577 288.233 67.8094C288.928 68.9611 289.275 70.3536 289.275 71.987ZM286.988 74.7668L286.988 72.1205C286.988 70.8955 286.739 69.8773 286.242 69.0658C285.739 68.2544 285.013 67.6471 284.064 67.244C283.11 66.8409 281.946 66.6394 280.573 66.6394C279.212 66.6394 278.057 66.8409 277.108 67.244C276.159 67.6419 275.439 68.2361 274.947 69.0266C274.456 69.817 274.21 70.7986 274.21 71.9713L274.21 74.7668L286.988 74.7668Z" fill="white"/>
</g>
</g>
<path d="M170 71L158 71" stroke="#FF4D00" stroke-width="2.25" stroke-linecap="round" stroke-linejoin="round"/>
<path d="M164 77L170 71L164 65" stroke="#FF4D00" stroke-width="2.25" stroke-linecap="round" stroke-linejoin="round"/>
<defs>
<radialGradient id="paint0_radial_2033_63925" cx="0" cy="0" r="1" gradientUnits="userSpaceOnUse" gradientTransform="translate(42.2111 21.5581) rotate(70.8988) scale(102.868 105.06)">
<stop stop-color="white"/>
<stop offset="1" stop-color="white" stop-opacity="0"/>
</radialGradient>
<linearGradient id="paint1_linear_2033_63925" x1="249.873" y1="10.7158" x2="249.873" y2="142.086" gradientUnits="userSpaceOnUse">
<stop stop-color="#FF4D00"/>
<stop offset="1" stop-color="#FF4D00"/>
</linearGradient>
<radialGradient id="paint2_radial_2033_63925" cx="0" cy="0" r="1" gradientUnits="userSpaceOnUse" gradientTransform="translate(216.211 21.5581) rotate(70.8988) scale(102.868 105.06)">
<stop stop-color="white"/>
<stop offset="1" stop-color="white" stop-opacity="0"/>
</radialGradient>
<clipPath id="clip0_2033_63925">
<rect width="152" height="142" fill="white"/>
</clipPath>
<clipPath id="clip1_2033_63925">
<rect width="152" height="142" fill="white" transform="translate(174)"/>
</clipPath>
</defs>
</svg>
